<?xml version="1.0" encoding="utf-8"?>
<!-- Generator: Adobe Illustrator 25.0.0, SVG Export Plug-In . SVG Version: 6.00 Build 0)  -->
<svg version="1.1" id="Layer_1" xmlns="http://www.w3.org/2000/svg" xmlns:xlink="http://www.w3.org/1999/xlink" x="0px" y="0px"
	 viewBox="0 0 1080 1080" style="enable-background:new 0 0 1080 1080;" xml:space="preserve">
<style type="text/css">
	.st0{fill:#005FA3;}
	.st1{fill:#FFFFFF;}
	.st2{fill:#FF002F;}
	.st3{fill:none;}
	.st4{clip-path:url(#SVGID_2_);}
	.st5{clip-path:url(#SVGID_3_);}
</style>
<g>
	<circle cx="540" cy="540" r="540"/>
</g>
<g>
	<polygon class="st0" points="338.1,819.6 335.8,817.5 338.1,819.5 	"/>
</g>
<g>
	<path class="st1" d="M545.9,1014.8c-261.8,0-474.8-213-474.8-474.8s213-474.8,474.8-474.8s474.8,213,474.8,474.8
		S807.7,1014.8,545.9,1014.8z M545.9,89.4C297.5,89.4,95.3,291.5,95.3,540s202.1,450.6,450.6,450.6S996.5,788.4,996.5,540
		S794.3,89.4,545.9,89.4z"/>
</g>
<g>
	<circle class="st2" cx="999.8" cy="458" r="33.9"/>
	<path d="M999.8,501.4c-23.9,0-43.4-19.5-43.4-43.4s19.5-43.4,43.4-43.4c23.9,0,43.4,19.5,43.4,43.4S1023.7,501.4,999.8,501.4z
		 M999.8,427.1c-17,0-30.9,13.8-30.9,30.9s13.8,30.9,30.9,30.9c17,0,30.9-13.8,30.9-30.9S1016.8,427.1,999.8,427.1z"/>
</g>
<g>
	<line class="st3" x1="587.3" y1="756" x2="587.2" y2="756.1"/>
</g>
<g>
	<g>
		<path class="st1" d="M547.3,502.9l78.4-109.1H517.1c0,0-78.2,116.4-104,165.5c-0.1,0.2-0.2,0.4-0.3,0.6c-1.3,2.5-2.5,4.7-3.5,6.8
			c-0.1,0.2-0.2,0.5-0.4,0.9c-1.2,2.7-2.3,5.4-3.3,8.2c-6,16.8-8.7,35.6-8.7,55.4c0,71,62,128.6,138.6,128.6
			c76.5,0,138.6-57.6,138.6-128.6C674.1,562.9,642.9,507.1,547.3,502.9z M535.6,679.7c-26.8,0-48.5-21.8-48.5-48.5
			s21.8-48.5,48.5-48.5s48.5,21.7,48.5,48.5C584,657.9,562.3,679.7,535.6,679.7z"/>
	</g>
	<g>
		<path class="st1" d="M824.2,389.5h-15.9c-69.5,0-125.8,56.3-125.8,125.8v118.6c0,69.5,56.3,125.8,125.8,125.8h15.9
			c69.5,0,125.8-56.3,125.8-125.8V515.3C950,445.8,893.7,389.5,824.2,389.5z M857.3,639.4c0,22.7-18.3,41-41,41
			c-22.7,0-41-18.3-41-41V510c0-22.7,18.3-41,41-41c11.3,0,21.6,4.6,29,12c7.4,7.4,12,17.7,12,29V639.4z"/>
	</g>
	<g>
		<path class="st1" d="M389.2,649.1c0,61.2-58.1,110.7-130,110.7c-71.7,0-130-49.5-130-110.7c0-2.5,0.1-5,0.3-7.4h93.2
			c0,20.5,16.7,37.2,37.2,37.2c20.6,0,37.2-16.7,37.2-37.2c0-20.6-16.6-37.2-37.2-37.2H217v-72.9h36.7c14.9,0,27-13.9,27-31.1
			s-12.1-31.1-27-31.1s-27,13.9-27,31.1h-89.1c-1-5-1.5-10-1.5-15.2c0-52.9,52.6-95.7,117.7-95.7s117.7,42.8,117.7,95.7
			c0,28.6-15.4,54.3-39.9,71.8C366.2,576.9,389.2,610.7,389.2,649.1z"/>
	</g>
</g>
<g>
	<path class="st1" d="M244.2,258.3l4.7-1.6v3.3L244.2,258.3L244.2,258.3L244.2,258.3z M253,263.5v-2.1l-2.4-0.8v-4.4l2.4-0.8v-2.2
		l-10.7,4v2.5L253,263.5L253,263.5z M247.6,273.4c3.2,0,5.6-2,5.6-5.3c0-2.6-1.5-4.4-3.7-4.8v2.1c1.2,0.3,1.9,1.2,1.9,2.7
		c0,1.9-1.6,3.2-3.8,3.2c-2.2,0-3.8-1.2-3.8-3.2c0-1.4,0.7-2.3,1.9-2.7v-2.1c-2.3,0.4-3.7,2.1-3.7,4.8
		C242.1,271.3,244.4,273.4,247.6,273.4 M247.6,283c-2.2,0-3.8-1.3-3.8-3.3c0-2,1.6-3.3,3.8-3.3c2.2,0,3.8,1.3,3.8,3.3
		C251.4,281.7,249.8,283,247.6,283 M247.6,285.1c3.2,0,5.6-2.2,5.6-5.5c0-3.3-2.4-5.5-5.6-5.5s-5.6,2.2-5.6,5.5
		C242.1,283,244.4,285.1,247.6,285.1 M243.9,289.9c0-1.4,0.8-2,1.9-2c1.1,0,2,0.7,2,2v2.3h-3.9V289.9L243.9,289.9z M253,294.4v-2.1
		h-3.5v-2.5c0-2.6-1.6-4-3.7-4c-2.1,0-3.5,1.4-3.5,4v4.6L253,294.4L253,294.4z M253,303.6v-7.9h-1.7v5.8h-2.9v-4.6h-1.7v4.6H244
		v-5.7h-1.7v7.8H253L253,303.6z"/>
	<polyline class="st1" points="241.8,301.5 241.8,295.8 241.3,295.8 241.3,301.5 	"/>
	<path class="st1" d="M791.6,236.5c-7.4,0-13.6,1.9-18.7,5.6c-5.6,4.1-8.4,9.4-8.4,16c0,3.1,0.6,5.9,1.7,8.4c2,5,6.8,9.1,14.3,12.4
		c10.4,3.9,18.4,6.7,23.9,8.2c10.2,3.7,15.3,8.5,15.3,14.5c0,4.9-2.1,8.6-6.3,11.3c-3.6,2.2-8.2,3.3-14,3.3c-7.1,0-13.1-1.7-18-5.1
		c-4.8-3.4-9.8-10-14.9-19.7l-4,0.7l2.5,28.8h4l3.4-8.4c6.5,6.5,15.5,9.7,26.9,9.7c5.1,0,9.6-0.6,13.6-1.9
		c12.1-3.9,18.1-11.2,18.1-21.8c0-6.5-2.6-11.8-7.8-15.9c-4.9-3.7-13.7-7.4-26.6-11.1c-7.3-2.1-12.1-3.8-14.5-5.2
		c-5-2.8-7.5-6.6-7.5-11.3c0-4.1,1.8-7.2,5.4-9.4c3.1-2,7-3,11.7-3c6.2,0,11.2,1.2,14.9,3.6c4.2,2.9,8.7,8.2,13.4,15.8l3.3-0.6
		v-23.9h-4.4l-3.3,6.7C809,239,801,236.5,791.6,236.5"/>
	<polygon class="st1" points="680.2,237.5 676.9,237.5 648.4,237.5 648.4,241.9 665.1,244.5 665.1,315.8 655,315.8 655,320.7 
		694.2,320.7 694.2,315.8 680.2,315.8 	"/>
	<path class="st1" d="M623.7,236.5c-13.5,0-24.2,4.4-32.3,13.2c-7.4,8-11.1,17.7-11.1,29.1c0,11.6,3.5,21.6,10.5,29.8
		c7.8,9,18,13.4,30.6,13.4c11.1,0,21.4-2.7,31-8.2l-1.5-3.3c-8.3,3.1-16.2,4.6-23.6,4.6c-10.4,0-18-2.6-22.8-7.8
		c-5.5-5.9-8.2-15.8-8.2-29.8c0-12.8,2.9-22,8.6-27.8c4.7-4.9,11.7-7.3,21-7.3c6,0,11.2,0.7,15.5,2.1v0.4c-6.3,1.3-9.5,4.7-9.5,10.3
		c0,2.6,0.9,4.6,2.8,6.3c1.8,1.6,4.2,2.4,7,2.4c3.2,0,5.8-1,7.8-3c2-2,3-4.4,3-7.3c0-6.1-3.3-10.7-9.9-13.6
		C637.5,237.6,631.2,236.5,623.7,236.5"/>
	<path class="st1" d="M536.4,316.1c-7.9,0-13.9-2.2-18.2-6.6c-5.6-5.7-8.4-15.8-8.4-30.3c0-8,0.8-14.4,2.5-19.3
		c1.9-5.9,4.7-10.3,8.4-13.2c3.7-2.8,8.9-4.3,15.7-4.3c8,0,14.1,2.1,18.2,6.3c5.6,6,8.4,16.2,8.4,30.4c0,7.9-0.8,14.3-2.3,19.1
		C557,310.1,548.9,316.1,536.4,316.1 M536.4,236.5c-11.8,0-21.9,4.5-30.3,13.4c-8.1,8.5-12.2,18.3-12.2,29.3c0,11.1,4,20.8,12,29.3
		c8.5,9.1,18.7,13.6,30.5,13.6c11.8,0,21.9-4.5,30.4-13.4c8.1-8.6,12.2-18.4,12.2-29.5c0-10.9-4-20.7-12-29.3
		C558.4,240.9,548.2,236.5,536.4,236.5"/>
	<polygon class="st1" points="538,218.6 526.5,231.1 537.4,231.1 560.7,218.6 	"/>
	<path class="st1" d="M352.7,268.5c0.6-5.1,1.7-9.4,3.1-12.9c3.8-9.2,11-13.8,21.5-13.8c6.5,0,11.3,1.8,14.2,5.2
		c3.1,3.9,4.9,11.1,5.4,21.5H352.7L352.7,268.5z M377.7,236.5c-6,0-11.5,1.2-16.4,3.5c-7.9,3.6-14,9.2-18.3,16.9
		c-4,7.1-5.9,14.9-5.9,23.5c0,11,3.5,20.6,10.5,28.6c7.6,8.7,17.4,13.1,29.4,13.1c11.1,0,21.4-2.8,31.1-8.3l-1.5-3.3
		c-8.7,3.2-17,4.8-25,4.8c-9.4,0-16.4-2.8-21-8.4c-5.2-6-7.8-15.6-7.8-28.6v-2.6c0-0.8,0.1-1.7,0.2-2.6H412
		c-0.1-6.8-1.2-12.6-3.1-17.2C403.4,242.9,392.9,236.5,377.7,236.5"/>
	<polygon class="st1" points="347.4,236.7 313.3,236.7 313.3,240.6 327.2,243 330.2,297.7 282,236.7 252.2,236.7 252.2,240.6 
		264.8,243 264.8,314.3 252.2,316.8 252.2,320.7 287.8,320.7 287.8,316.8 273.6,314.3 269.8,244.7 331.8,321.9 336,321.9 336,243.1 
		347.4,240.6 	"/>
	<path class="st1" d="M487.8,265.1l3.4-0.7l-3.7-27.7h-3.1l-2.9,6.5c-7.2-5-15.2-7.5-24-7.5c-12.9,0-23.7,4.4-32.3,13.3
		c-8.2,8.4-12.3,18.3-12.3,29.7c0,12,3.9,22,11.6,30c8.3,8.6,19.1,12.9,32.3,12.9c11.1,0,20.2-3.6,27.5-10.9l5.6,9.9h3v-38h-27.7
		v3.9l12.6,2.4v21.7c-5.3,3.3-11.5,5-18.5,5c-10.2,0-17.7-2.6-22.3-7.7c-5-5.6-7.5-15-7.5-28.2c0-14.6,2.6-24.9,7.9-30.8
		c4.3-4.9,11.1-7.3,20.5-7.3c6.4,0,11.8,1.8,16.2,5.2C477.9,250.3,482.5,256.3,487.8,265.1L487.8,265.1z"/>
	<path class="st1" d="M724.3,319c23.8,0,43.1-19.3,43.1-43.1s-19.3-43.1-43.1-43.1s-43.1,19.3-43.1,43.1
		C681.2,299.7,700.5,319,724.3,319L724.3,319z"/>
	<g>
		<g>
			<defs>
				<rect id="SVGID_7_" x="680.1" y="231.6" width="88.4" height="88.7"/>
			</defs>
			<clipPath id="SVGID_1_">
				<use xlink:href="#SVGID_7_"  style="overflow:visible;"/>
			</clipPath>
		</g>
		<g>
			<defs>
				<rect id="SVGID_9_" x="680.1" y="231.6" width="88.4" height="88.7"/>
			</defs>
			<defs>
				<path id="SVGID_10_" d="M724.3,319c23.8,0,43.1-19.3,43.1-43.1s-19.3-43.1-43.1-43.1c-23.8,0-43.1,19.3-43.1,43.1
					C681.2,299.7,700.5,319,724.3,319L724.3,319z"/>
			</defs>
			<clipPath id="SVGID_2_">
				<use xlink:href="#SVGID_9_"  style="overflow:visible;"/>
			</clipPath>
			<clipPath id="SVGID_3_" class="st4">
				<use xlink:href="#SVGID_10_"  style="overflow:visible;"/>
			</clipPath>
			<g transform="matrix(1 0 0 1 -3.051758e-05 0)" class="st5">
				
					<image style="overflow:visible;enable-background:new    ;" width="655" height="662" xlink:href="3535BC1D.jpg"  transform="matrix(0.1345 0 0 0.1341 680.2703 231.5636)">
				</image>
			</g>
		</g>
	</g>
</g>
</svg>
