<svg id="_icon_contrast" xmlns="http://www.w3.org/2000/svg" width="24" height="24" viewBox="0 0 24 24">
  <rect id="Rectangle_Copy" data-name="Rectangle Copy" width="24" height="24" fill="rgba(255,255,255,0.5)"/>
  <path id="_" data-name="ï‚" d="M3,11.19A6.063,6.063,0,0,1,.811,9,5.813,5.813,0,0,1,0,6,5.814,5.814,0,0,1,.811,3,6.061,6.061,0,0,1,3,.811,5.814,5.814,0,0,1,6,0,5.813,5.813,0,0,1,9,.811,6.063,6.063,0,0,1,11.19,3,5.821,5.821,0,0,1,12,6a5.821,5.821,0,0,1-.81,3A6.066,6.066,0,0,1,9,11.19,5.821,5.821,0,0,1,6,12,5.821,5.821,0,0,1,3,11.19Z" transform="translate(6.5 6)" fill="#2d2d2d"/>
</svg>
