<svg id="BR_Copy" data-name="BR Copy" xmlns="http://www.w3.org/2000/svg" xmlns:xlink="http://www.w3.org/1999/xlink" width="16.8" height="12" viewBox="0 0 16.8 12">
  <defs>
    <clipPath id="clip-path">
      <rect id="Mask" width="16.8" height="12" fill="#fff"/>
    </clipPath>
    <clipPath id="clip-path-2">
      <circle id="Mask-2" data-name="Mask" cx="2.8" cy="2.8" r="2.8" transform="translate(0 0)" fill="#053087"/>
    </clipPath>
  </defs>
  <rect id="Mask-3" data-name="Mask" width="16.8" height="12" fill="#fff"/>
  <g id="BR_Copy-2" data-name="BR Copy" clip-path="url(#clip-path)">
    <rect id="Mask_Copy" data-name="Mask Copy" width="16.8" height="12" fill="#05ab41"/>
    <path id="Rectangle_60" data-name="Rectangle 60" d="M.32,4.607a.4.4,0,0,1,0-.672L6.384.012a.4.4,0,0,1,.435,0l6.064,3.924a.4.4,0,0,1,0,.672L6.818,8.531a.4.4,0,0,1-.435,0Z" transform="translate(1.799 1.729)" fill="#fdd216"/>
    <g id="Oval_2" data-name="Oval 2" transform="translate(5.6 3.2)">
      <circle id="Mask-4" data-name="Mask" cx="2.8" cy="2.8" r="2.8" transform="translate(0 0)" fill="#053087"/>
      <g id="Oval_2-2" data-name="Oval 2" clip-path="url(#clip-path-2)">
        <path id="Line" d="M0,.235c.4-.4,1.846-.213,3.2,0a7.52,7.52,0,0,1,3.2,1.2" transform="matrix(0.995, 0.105, -0.105, 0.995, -0.307, 1.834)" fill="none" stroke="#fff" stroke-linecap="square" stroke-miterlimit="10" stroke-width="0.8"/>
      </g>
    </g>
  </g>
</svg>
