<svg id="empresas-mais-sigitais" xmlns="http://www.w3.org/2000/svg" width="201.944" height="94" viewBox="0 0 201.944 94">
  <g id="Group" transform="translate(92 22)">
    <path id="Shape" d="M0,13.118V0H3.615c3.6,0,5.173,1.789,5.173,4.23C8.77,7.211,6.73,8.7,3.486,8.758L1.78,8.777v4.342Z" transform="translate(0.167 1.863)" fill="#606062"/>
    <path id="Path" d="M0,9.932V.28L1.706,0V1.7A3.013,3.013,0,0,1,4.376,0a3.373,3.373,0,0,1,1.8.484L5.729,2.106a2.9,2.9,0,0,0-1.52-.447c-.927,0-1.78.652-2.5,1.994v6.28Z" transform="translate(10.587 5.05)" fill="#606062"/>
    <path id="Shape-2" data-name="Shape" d="M0,10.156C0,7.043,2.039,4.938,4.709,4.938A3.415,3.415,0,0,1,8.362,8.7a4.907,4.907,0,0,1-.2,1.527h-1c-.612,0-1.391,0-2.207.019-.945.019-2.021.019-3.208.019v.093a3.072,3.072,0,0,0,3.134,3.2,5.265,5.265,0,0,0,2.855-.8l.316,1.6a6.217,6.217,0,0,1-3.208.8A4.705,4.705,0,0,1,0,10.156ZM6.1,3.932,4.079,1.267,2,3.932H.742L3.133,0H4.969L7.36,3.932Z" transform="translate(17.28 0.149)" fill="#606062"/>
    <path id="Path-2" data-name="Path" d="M11.94,3.913c0-1.677-.593-2.292-1.835-2.292a3.546,3.546,0,0,0-2.429,1.1V9.932H5.97v-6c0-1.677-.593-2.292-1.835-2.292a3.555,3.555,0,0,0-2.429.988v7.3H0V.28L1.706,0V1.323A4.378,4.378,0,0,1,4.765,0a2.589,2.589,0,0,1,2.5,1.6A4.773,4.773,0,0,1,10.735,0c1.761,0,2.892,1.23,2.892,3.354V9.913H11.921v-6Z" transform="translate(27.532 5.087)" fill="#606062"/>
    <path id="Shape-3" data-name="Shape" d="M.278,14.18V4.547l1.706-.28V14.18ZM0,1.229A1.107,1.107,0,0,1,1.131,0a1.116,1.116,0,0,1,1.13,1.229,1.117,1.117,0,0,1-1.13,1.23A1.116,1.116,0,0,1,0,1.229Z" transform="translate(43.31 0.801)" fill="#606062"/>
    <path id="Shape-4" data-name="Shape" d="M0,5.143C0,2.068,1.984,0,4.709,0s4.6,2.031,4.6,5.143c0,3.093-2,5.125-4.691,5.125C1.91,10.267,0,8.255,0,5.143Z" transform="translate(47.111 5.031)" fill="#606062"/>
    <path id="Path-3" data-name="Path" d="M0,0H8.269V1.658H1.78V5.7H7.194V7.36H1.78v4.1H8.269v1.658H0Z" transform="translate(0.167 21.745)" fill="#606062"/>
    <path id="Path-4" data-name="Path" d="M11.94,3.913c0-1.677-.593-2.292-1.835-2.292a3.546,3.546,0,0,0-2.429,1.1V9.932H5.97v-6c0-1.677-.593-2.292-1.835-2.292a3.555,3.555,0,0,0-2.429.988v7.3H0V.28L1.706,0V1.323A4.378,4.378,0,0,1,4.765,0a2.589,2.589,0,0,1,2.5,1.6A4.773,4.773,0,0,1,10.735,0c1.761,0,2.892,1.23,2.892,3.354V9.913H11.921v-6Z" transform="translate(10.179 24.95)" fill="#606062"/>
    <path id="Shape-5" data-name="Shape" d="M0,14.814V.28L1.706,0V1.192A3.757,3.757,0,0,1,4.357.019c2.688,0,4.264,2.18,4.264,5.068a4.876,4.876,0,0,1-4.857,5.162,8.866,8.866,0,0,1-2.058-.261v4.827Z" transform="translate(26.253 24.932)" fill="#606062"/>
    <path id="Path-5" data-name="Path" d="M0,9.932V.28L1.706,0V1.7A3.013,3.013,0,0,1,4.376,0a3.373,3.373,0,0,1,1.8.484L5.729,2.106a2.9,2.9,0,0,0-1.52-.447c-.927,0-1.78.652-2.5,1.994v6.28Z" transform="translate(36.765 24.932)" fill="#606062"/>
    <path id="Shape-6" data-name="Shape" d="M0,5.217C0,2.106,2.039,0,4.709,0A3.416,3.416,0,0,1,8.362,3.764a4.913,4.913,0,0,1-.2,1.528h-1c-.612,0-1.391,0-2.207.019-.945.018-2.021.018-3.208.018v.094a3.073,3.073,0,0,0,3.134,3.2,5.273,5.273,0,0,0,2.855-.8l.316,1.6a6.208,6.208,0,0,1-3.208.8A4.705,4.705,0,0,1,0,5.217Z" transform="translate(43.44 24.95)" fill="#606062"/>
    <path id="Path-6" data-name="Path" d="M3.337,10.248A6.613,6.613,0,0,1,0,9.354L.445,7.789a5.532,5.532,0,0,0,2.948.894c1.094,0,1.891-.5,1.891-1.36,0-.969-1.149-1.267-2.262-1.6C1.669,5.329.185,4.677.185,2.907S1.687,0,3.615,0a7.341,7.341,0,0,1,3.1.708L6.267,2.273a6.246,6.246,0,0,0-2.725-.708c-1.02,0-1.687.429-1.687,1.193,0,.95,1.02,1.211,2.206,1.547,1.391.391,2.892,1.025,2.892,2.87S5.432,10.248,3.337,10.248Z" transform="translate(52.933 24.95)" fill="#606062"/>
    <path id="Shape-7" data-name="Shape" d="M0,7.51C0,5.776,1.224,4.3,5.692,4.062V3.783c0-1.565-.593-2.18-2.15-2.18a6.178,6.178,0,0,0-3.1,1.062L.112,1.118A6.6,6.6,0,0,1,3.708,0C6.323,0,7.472,1.118,7.4,3.727V7.752c0,.782.111.95.945.95l-.111,1.454c-1.558.148-2.225-.429-2.485-1.267H5.655a3.309,3.309,0,0,1-2.615,1.36A2.8,2.8,0,0,1,0,7.51Z" transform="translate(61.127 24.932)" fill="#606062"/>
    <path id="Path-7" data-name="Path" d="M7.639,12.913H5.859L1.873,2.18,1.724,13.118H0L.445,0H2.8l4,10.789L10.79,0h2.318l.426,13.118h-1.8l-.13-10.9Z" transform="translate(74.365 21.764)" fill="#606062"/>
    <path id="Shape-8" data-name="Shape" d="M0,7.51C0,5.776,1.224,4.3,5.692,4.062V3.783c0-1.565-.593-2.18-2.15-2.18a6.178,6.178,0,0,0-3.1,1.062L.112,1.118A6.6,6.6,0,0,1,3.708,0C6.323,0,7.472,1.118,7.4,3.727V7.752c0,.782.111.95.945.95l-.111,1.454c-1.558.148-2.225-.429-2.485-1.267H5.655a3.335,3.335,0,0,1-2.615,1.36A2.8,2.8,0,0,1,0,7.51Z" transform="translate(89.754 24.932)" fill="#606062"/>
    <path id="Shape-9" data-name="Shape" d="M.278,14.161V4.528l1.706-.28v9.913ZM0,1.229A1.107,1.107,0,0,1,1.131,0a1.116,1.116,0,0,1,1.13,1.229,1.116,1.116,0,0,1-1.13,1.23A1.116,1.116,0,0,1,0,1.229Z" transform="translate(99.283 20.683)" fill="#606062"/>
    <path id="Path-8" data-name="Path" d="M3.337,10.248A6.613,6.613,0,0,1,0,9.354L.445,7.789a5.532,5.532,0,0,0,2.948.894c1.094,0,1.891-.5,1.891-1.36,0-.969-1.149-1.267-2.262-1.6C1.669,5.329.185,4.677.185,2.907S1.687,0,3.615,0a7.341,7.341,0,0,1,3.1.708L6.267,2.273a6.246,6.246,0,0,0-2.725-.708c-1.02,0-1.687.429-1.687,1.193,0,.95,1.02,1.211,2.206,1.547,1.391.391,2.892,1.025,2.892,2.87S5.432,10.248,3.337,10.248Z" transform="translate(102.991 24.95)" fill="#606062"/>
    <path id="Shape-10" data-name="Shape" d="M0,13.118V0H3.912c4.32,0,6.916,2.552,6.916,6.466,0,4.044-2.5,6.653-6.99,6.653Z" transform="translate(0.167 41.627)" fill="#606062"/>
    <path id="Shape-11" data-name="Shape" d="M.278,14.18V4.547l1.706-.28V14.18ZM0,1.229A1.107,1.107,0,0,1,1.131,0a1.116,1.116,0,0,1,1.13,1.229,1.107,1.107,0,0,1-1.13,1.23A1.116,1.116,0,0,1,0,1.229Z" transform="translate(12.793 40.547)" fill="#606062"/>
    <path id="Shape-12" data-name="Shape" d="M0,12.3a2.239,2.239,0,0,1,2.039-2.236A1.813,1.813,0,0,1,.815,8.46,2.078,2.078,0,0,1,2.41,6.6,3.283,3.283,0,0,1,.815,3.633,3.626,3.626,0,0,1,4.691,0,6.225,6.225,0,0,1,7.157.54L9.623.317l.055,1.7L7.843,1.677a3,3,0,0,1,.649,1.975,3.613,3.613,0,0,1-3.82,3.522,4.011,4.011,0,0,1-1.335-.223c-.39.148-.946.521-.946,1.006,0,.559.371.894,2.17.894h.871c2.855,0,4.171.876,4.171,2.572,0,2.105-2.262,3.689-5.154,3.689C1.947,15.112,0,14.012,0,12.3Z" transform="translate(15.926 44.814)" fill="#606062"/>
    <path id="Shape-13" data-name="Shape" d="M.278,14.18V4.547l1.706-.28V14.18ZM0,1.229A1.107,1.107,0,0,1,1.131,0a1.116,1.116,0,0,1,1.13,1.229,1.127,1.127,0,0,1-1.13,1.23A1.116,1.116,0,0,1,0,1.229Z" transform="translate(26.661 40.547)" fill="#606062"/>
    <path id="Path-9" data-name="Path" d="M4.227,12.13c-1.854,0-2.837-.894-2.781-3l.148-5.366L0,3.652l.056-1.1L1.65,2.068,1.687,0h1.65L3.282,2.2H6.267L6.211,3.745H3.226L3.078,9.186c-.019.894.389,1.36,1.261,1.36a4.6,4.6,0,0,0,1.724-.354,5.2,5.2,0,0,1,.167.764,6.985,6.985,0,0,1,.148.764A5.869,5.869,0,0,1,4.227,12.13Z" transform="translate(29.924 42.913)" fill="#606062"/>
    <path id="Shape-14" data-name="Shape" d="M0,7.51C0,5.776,1.224,4.3,5.692,4.062V3.783c0-1.565-.593-2.18-2.15-2.18a6.178,6.178,0,0,0-3.1,1.062L.112,1.118A6.6,6.6,0,0,1,3.708,0C6.323,0,7.472,1.118,7.4,3.727V7.752c0,.782.111.95.945.95l-.111,1.454c-1.558.148-2.225-.429-2.485-1.267H5.655a3.281,3.281,0,0,1-2.615,1.36A2.8,2.8,0,0,1,0,7.51Z" transform="translate(37.322 44.795)" fill="#606062"/>
    <path id="Path-10" data-name="Path" d="M0,.28,1.706,0V14.4H0Z" transform="translate(47.185 40.323)" fill="#606062"/>
    <path id="Path-11" data-name="Path" d="M0,8.739c2.929-2.161,5.581-3.82,5.581-5.46,0-.988-.723-1.658-1.984-1.658A4.976,4.976,0,0,0,.63,2.814L.019,1.342A5.842,5.842,0,0,1,3.782,0C5.914,0,7.4,1.211,7.4,3.056c0,2.292-2.039,3.54-4.783,5.516H7.861v1.64H.019L0,8.739Z" transform="translate(54.546 44.516)" fill="#606062"/>
    <path id="Shape-15" data-name="Shape" d="M0,5.273A4.922,4.922,0,0,1,5.025,0a4.947,4.947,0,0,1,5.043,5.273,4.946,4.946,0,0,1-5.043,5.273A4.922,4.922,0,0,1,0,5.273Z" transform="translate(63.649 44.497)" fill="#606062"/>
    <path id="Path-12" data-name="Path" d="M0,8.739c2.929-2.161,5.581-3.82,5.581-5.46,0-.988-.723-1.658-1.984-1.658A4.976,4.976,0,0,0,.63,2.814L.019,1.342A5.842,5.842,0,0,1,3.782,0C5.914,0,7.4,1.211,7.4,3.056c0,2.292-2.039,3.54-4.783,5.516H7.861v1.64H.019L0,8.739Z" transform="translate(74.94 44.516)" fill="#606062"/>
    <path id="Shape-16" data-name="Shape" d="M0,5.273A4.922,4.922,0,0,1,5.025,0a4.947,4.947,0,0,1,5.043,5.273,4.946,4.946,0,0,1-5.043,5.273A4.922,4.922,0,0,1,0,5.273Z" transform="translate(84.043 44.497)" fill="#606062"/>
  </g>
  <g id="Group-2" data-name="Group">
    <path id="Path-13" data-name="Path" d="M18.389,6.844,16.9,6.825H14.08l-2.433.019L9.9,1.538,9.4,0,8.953,1.556,7.374,7.013l-5.814.15L0,7.2l1.282.9,4.607,3.206L5,14.175l1.95-2.85.241-.356-.427-.3L3.1,8.138l4.625-.169.334-.019.093-.338L9.418,3.394l1.319,4.144.111.375h.39l2.823-.019c.39,0,.78,0,1.17-.019L11.7,10.407l-.39.281.186.469,1.467,3.863L9.77,12.657l-.446-.338-.334.394L4.625,17.982,9.436,13.95l4.421,3.244,1.523,1.125-.632-1.8-1.895-5.325,4.328-3.431Z" transform="translate(26.73 26.832)" fill="#02b28b"/>
    <g id="Group-3" data-name="Group" transform="translate(5.758 72.564)">
      <path id="Path-14" data-name="Path" d="M1.879,0H1.786A1.8,1.8,0,0,0,0,1.913,1.814,1.814,0,0,0,1.731,4.031h.093A1.809,1.809,0,0,0,3.607,2.119a2.188,2.188,0,0,0-.446-1.5A1.663,1.663,0,0,0,1.879,0Z" transform="translate(37.407 3.225)" fill="#0290d0"/>
      <path id="Path-15" data-name="Path" d="M1.783,0H1.765A1.675,1.675,0,0,0,.483.563,2.147,2.147,0,0,0,0,2.006,2.142,2.142,0,0,0,.52,3.488a1.7,1.7,0,0,0,1.3.544h.019a1.7,1.7,0,0,0,1.282-.563A2,2,0,0,0,3.6,2.025,2.093,2.093,0,0,0,3.083.563,1.619,1.619,0,0,0,1.783,0Z" transform="translate(27.677 3)" fill="#0290d0"/>
      <path id="Path-16" data-name="Path" d="M0,2.194l1.616.131L.984,0Z" transform="translate(50.896 4.294)" fill="#0290d0"/>
      <path id="Shape-17" data-name="Shape" d="M30.575,9.225A172.6,172.6,0,0,0,0,11.738V2.513A167.407,167.407,0,0,1,30.575,0,167.837,167.837,0,0,1,61.149,2.513v9.225A170.579,170.579,0,0,0,30.575,9.225Z" transform="translate(0.13 0.169)" fill="#0290d0"/>
    </g>
    <path id="Path-17" data-name="Path" d="M9.993,10.032,6.668,5.513,10.123.825,4.774,0V6.3L0,8.475Z" transform="translate(62.784 78.658)" fill="#0574b9"/>
    <path id="Path-18" data-name="Path" d="M5.35,6.3V0L0,.825,3.455,5.513.13,10.032l9.993-1.556Z" transform="translate(0 78.658)" fill="#0574b9"/>
    <path id="Path-19" data-name="Path" d="M0,.263V7.538A.255.255,0,0,0,.26,7.8H7.467a.255.255,0,0,0,.26-.263V.263A.255.255,0,0,0,7.467,0H.26A.255.255,0,0,0,0,.263Z" transform="translate(37.02 16.463)" fill="#0290d0"/>
    <path id="Path-20" data-name="Path" d="M48.3,14.288a9.693,9.693,0,0,0-1-4.5,8.751,8.751,0,0,0-3.176-3.413,9.786,9.786,0,0,0-2.062-.956c-.223-.075-.427-.131-.65-.188.019-.488.037-.975.074-1.463.019-.694.019-1.388.037-2.081h0L41.534,0,39.862.019l-8.21.056V3.319l6.52.038v.319c-.037.656-.037,1.331-.074,1.988-.093,1.313-.186,2.644-.334,3.956a54.3,54.3,0,0,1-1.5,7.744,40.977,40.977,0,0,1-7.04,14.025c-.8,1.069-1.635,2.119-2.47,3.188a29.511,29.511,0,0,0-2.415,3.431,8.489,8.489,0,0,0-.873,2.063,4.9,4.9,0,0,0-.186,1.163c0,.206-.019.394,0,.6a2.328,2.328,0,0,0,.111.675A3.6,3.6,0,0,0,24,43.595a10.569,10.569,0,0,0,.743.825,14.12,14.12,0,0,0,1.579,1.425,18.963,18.963,0,0,0,3.548,2.25c.65.319,1.245.563,1.858.844.594.281,1.207.581,1.8.881,1.189.6,3.975,2.363,4.031,2.381-1.913-.113-4.161-.131-6.055-.113-1.6.019-3.213-.056-4.811-.056s-3.176-.019-4.774,0c-1.6,0-3.232.019-4.83.075l-4.755.169c-2.359.075-5.015.131-7.43.375.241-.319.52-.675.966-1.2a29.3,29.3,0,0,1,2.415-2.4,22.392,22.392,0,0,1,2.656-2.119,12.6,12.6,0,0,1,1.467-.863,5.873,5.873,0,0,1,1.616-.544,5.929,5.929,0,0,0-1.709.281,12.24,12.24,0,0,0-1.635.619,24.563,24.563,0,0,0-3.065,1.706c-.984.638-1.932,1.313-2.861,2.025S3.065,51.7,2.173,52.5L0,54.564c3.269-.394,7.411-.788,12.3-1.05,1.579-.15,3.158-.206,4.737-.206,1.727-.056,3.176-.113,4.755-.094,2.006.019,4.031.037,6.055.094,2.842.075,5.48.188,7.913.356,1.709.056,3.418.15,5.127.375l.873.113c1.727.169,3.288.356,4.662.525l-4.792-2.925c-.632-.394-1.226-.713-1.839-1.031s-1.226-.638-1.839-.938C36.7,49.183,35.46,48.62,34.2,48.1c-.632-.263-1.263-.506-1.913-.75-.632-.244-1.3-.469-1.876-.694a17.262,17.262,0,0,1-3.436-1.819A9.475,9.475,0,0,1,25.5,43.576a3.349,3.349,0,0,1-.836-1.481,1.738,1.738,0,0,1-.019-.338c0-.15.019-.281.019-.431a4.581,4.581,0,0,1,.186-.844,6.7,6.7,0,0,1,.817-1.631,30.6,30.6,0,0,1,2.452-3.075c.892-1.013,1.8-2.025,2.693-3.075a50.211,50.211,0,0,0,4.83-6.788,35.664,35.664,0,0,0,1.895-3.769c.13-.319.279-.638.409-.975l.39-.975.186-.488.167-.506.334-.994A48,48,0,0,0,40.9,10.013c.111-.694.186-1.388.26-2.081a.24.24,0,0,1,.019-.113,9.91,9.91,0,0,1,1.43.844A7.335,7.335,0,0,1,44.784,11.1a6.134,6.134,0,0,1,.594,1.538,8.607,8.607,0,0,1,.279,1.706l.019.225v.694a7.9,7.9,0,0,1-.019.938c-.019.3-.037.619-.074.919l-.149.919A16.6,16.6,0,0,1,44.283,21.6a19.166,19.166,0,0,1-1.969,3.281,49.1,49.1,0,0,1-5.331,5.869,32.771,32.771,0,0,0,3.381-2.213c.26-.206.539-.413.8-.619l.78-.656a17.862,17.862,0,0,0,1.486-1.425,18.729,18.729,0,0,0,2.563-3.319,16.526,16.526,0,0,0,1.672-3.956l.26-1.05.167-1.069a10.256,10.256,0,0,0,.111-1.088l.037-.544.019-.263Z" transform="translate(13.671 18.938)" fill="#0290d0"/>
    <path id="Path-21" data-name="Path" d="M.26,6.656H6.334a.255.255,0,0,0,.26-.263V.263A.255.255,0,0,0,6.334,0H.26A.255.255,0,0,0,0,.263V6.394A.255.255,0,0,0,.26,6.656Z" transform="translate(27.751 13.2)" fill="#02b28b"/>
    <path id="Path-22" data-name="Path" d="M25.856,3.131V0L24.278.019V.825a.542.542,0,0,1-.539.544H17.126a.542.542,0,0,1-.539-.544V.075L8.563.131h0L7.04.225l.074,1.35c.074,1.144.149,2.288.241,3.431H7.319A10.438,10.438,0,0,0,4.179,6.263,8.617,8.617,0,0,0,1,9.675a9.929,9.929,0,0,0-1,4.5v.281l.019.263.037.544A7.451,7.451,0,0,0,.167,16.35l.167,1.069.26,1.05a16.526,16.526,0,0,0,1.672,3.956A18.729,18.729,0,0,0,4.83,25.744c.483.506.984.975,1.486,1.425l.78.656c.26.206.539.413.8.619a36.181,36.181,0,0,0,3.381,2.213,49.05,49.05,0,0,1-5.294-5.888,20.436,20.436,0,0,1-1.969-3.281,16.268,16.268,0,0,1-1.152-3.563l-.149-.919c-.037-.3-.056-.619-.074-.919a7.818,7.818,0,0,1-.019-.938v-.694l.019-.225a8.389,8.389,0,0,1,.279-1.706A6.889,6.889,0,0,1,5.684,8.55,9.044,9.044,0,0,1,7.17,7.688c.149-.075.3-.131.446-.206.019.113.019.206.037.319a46.289,46.289,0,0,0,1.17,6.169,52.2,52.2,0,0,0,2.006,5.888c.762,1.913,1.6,3.788,2.452,5.663-.613-1.95-1.226-3.919-1.765-5.888a47.349,47.349,0,0,1-1.282-5.963,53.642,53.642,0,0,1-.316-10.65Z" transform="translate(10.625 19.051)" fill="#0290d0"/>
    <path id="Path-23" data-name="Path" d="M0,.263V3.675a.255.255,0,0,0,.26.263H3.641a.255.255,0,0,0,.26-.263V.263A.255.255,0,0,0,3.641,0H.26A.255.255,0,0,0,0,.263Z" transform="translate(20.823 12.713)" fill="#0290d0"/>
    <path id="Path-24" data-name="Path" d="M0,.263V3.675a.255.255,0,0,0,.26.263H3.641a.255.255,0,0,0,.26-.263V.263A.255.255,0,0,0,3.641,0H.26A.267.267,0,0,0,0,.263Z" transform="translate(47.682 12.713)" fill="#0290d0"/>
    <path id="Path-25" data-name="Path" d="M0,.263V4.2a.255.255,0,0,0,.26.263h3.9a.255.255,0,0,0,.26-.263V.263A.255.255,0,0,0,4.161,0H.26A.267.267,0,0,0,0,.263Z" transform="translate(40.679 5.1)" fill="#0290d0"/>
    <path id="Path-26" data-name="Path" d="M.26,5.588H5.275a.255.255,0,0,0,.26-.263V.263A.255.255,0,0,0,5.275,0H.26A.255.255,0,0,0,0,.263V5.325A.281.281,0,0,0,.26,5.588Z" transform="translate(32.581 2.438)" fill="#02b28b"/>
    <path id="Path-27" data-name="Path" d="M0,.263V1.05a.255.255,0,0,0,.26.263h.78A.255.255,0,0,0,1.3,1.05V.263A.255.255,0,0,0,1.04,0H.26A.255.255,0,0,0,0,.263Z" transform="translate(22.922 6.731)" fill="#02b28b"/>
    <path id="Path-28" data-name="Path" d="M0,.264v.788a.255.255,0,0,0,.26.263h.78a.255.255,0,0,0,.26-.263V.264A.255.255,0,0,0,1.04,0H.26A.245.245,0,0,0,0,.264Z" transform="translate(42.24 12.13)" fill="#02b28b"/>
    <path id="Path-29" data-name="Path" d="M0,.263V2.156a.255.255,0,0,0,.26.263H2.136a.255.255,0,0,0,.26-.263V.263A.255.255,0,0,0,2.136,0H.26A.255.255,0,0,0,0,.263Z" transform="translate(28.253 7.781)" fill="#0290d0"/>
    <path id="Path-30" data-name="Path" d="M2.136,0H.26A.255.255,0,0,0,0,.263V2.156a.255.255,0,0,0,.26.263H2.136a.255.255,0,0,0,.26-.263V.263A.255.255,0,0,0,2.136,0Z" transform="translate(40.772)" fill="#02b28b"/>
    <path id="Path-31" data-name="Path" d="M.26,2.419H2.136a.255.255,0,0,0,.26-.263V.263A.255.255,0,0,0,2.136,0H.26A.255.255,0,0,0,0,.263V2.156A.255.255,0,0,0,.26,2.419Z" transform="translate(48.091 7.781)" fill="#02b28b"/>
    <path id="Path-32" data-name="Path" d="M0,.263V2.681a.255.255,0,0,0,.26.263h2.4a.255.255,0,0,0,.26-.263V.263A.255.255,0,0,0,2.656,0H.26A.267.267,0,0,0,0,.263Z" transform="translate(36.351 11.025)" fill="#0290d0"/>
    <g id="Group-4" data-name="Group" transform="translate(13.374 84.002)">
      <path id="Path-33" data-name="Path" d="M1.709,2.944h-.5V1.725H0l.019-.506H1.207V0h.5V1.219h1.17l.019.506H1.709V2.944Z" transform="translate(0.13 1.913)" fill="#0290d0"/>
      <path id="Shape-18" data-name="Shape" d="M0,4.481V0H1.337A2.134,2.134,0,0,1,3.7,2.212,2.168,2.168,0,0,1,1.3,4.481Z" transform="translate(3.808 0.581)" fill="#0290d0"/>
      <path id="Shape-19" data-name="Shape" d="M.119,4.875v-3.3l.738-.094V4.875ZM0,.431A.444.444,0,0,1,.5,0,.443.443,0,0,1,1,.431.457.457,0,0,1,.5.862.444.444,0,0,1,0,.431Z" transform="translate(8.192 0.188)" fill="#0290d0"/>
      <path id="Shape-20" data-name="Shape" d="M0,4.2a.777.777,0,0,1,.688-.769.61.61,0,0,1-.409-.544A.7.7,0,0,1,.817,2.25,1.124,1.124,0,0,1,.279,1.238,1.242,1.242,0,0,1,1.6,0a1.977,1.977,0,0,1,.836.187L3.269.113l.019.581L2.656.581a1.083,1.083,0,0,1,.223.675,1.23,1.23,0,0,1-1.3,1.2,1.317,1.317,0,0,1-.446-.075c-.13.056-.316.187-.316.337,0,.187.131.3.743.3h.3c.966,0,1.43.3,1.43.881,0,.713-.761,1.256-1.765,1.256C.669,5.156,0,4.782,0,4.2Z" transform="translate(9.343 1.669)" fill="#0290d0"/>
      <path id="Shape-21" data-name="Shape" d="M.119,4.875v-3.3l.738-.094V4.875ZM0,.431A.444.444,0,0,1,.5,0,.443.443,0,0,1,1,.431.457.457,0,0,1,.5.862.444.444,0,0,1,0,.431Z" transform="translate(13.095 0.188)" fill="#0290d0"/>
      <path id="Path-34" data-name="Path" d="M1.43,4.163c-.632,0-.966-.3-.947-1.031L.539,1.294,0,1.256.019.881.557.713.576,0h.557L1.115.75H2.136l-.019.525H1.1L1.04,3.131c0,.3.13.469.427.469a1.669,1.669,0,0,0,.594-.113,1.525,1.525,0,0,1,.056.263c.019.075.037.169.056.263A1.814,1.814,0,0,1,1.43,4.163Z" transform="translate(14.303 0.994)" fill="#0290d0"/>
      <path id="Shape-22" data-name="Shape" d="M0,2.55c0-.6.428-1.106,1.931-1.181V1.275c0-.544-.2-.751-.724-.751A1.966,1.966,0,0,0,.149.9L.037.375A2.217,2.217,0,0,1,1.263,0c.892,0,1.283.375,1.264,1.275V2.644c0,.262.037.319.316.319L2.8,3.45c-.538.057-.761-.149-.854-.431H1.913a1.044,1.044,0,0,1-.873.469A.954.954,0,0,1,0,2.55Z" transform="translate(16.903 1.669)" fill="#0290d0"/>
      <path id="Path-35" data-name="Path" d="M0,.094.576,0V4.931H0Z" transform="translate(20.358 0.131)" fill="#0290d0"/>
      <path id="Path-36" data-name="Path" d="M0,0H.594V4.481H0Z" transform="translate(23.107 0.581)" fill="#0290d0"/>
      <path id="Path-37" data-name="Path" d="M2.1,1.313c0-.581-.2-.769-.669-.769A1.377,1.377,0,0,0,.576.9V3.394H0V.094L.576,0V.488A1.547,1.547,0,0,1,1.635,0,1,1,0,0,1,2.693,1.125V3.394H2.118L2.1,1.313Z" transform="translate(24.723 1.669)" fill="#0290d0"/>
      <path id="Path-38" data-name="Path" d="M1.133,3.506A2.271,2.271,0,0,1,0,3.206l.149-.544a1.9,1.9,0,0,0,1,.3c.372,0,.65-.169.65-.469,0-.338-.39-.431-.762-.544C.576,1.819.074,1.594.074.994A1.058,1.058,0,0,1,1.245,0,2.509,2.509,0,0,1,2.3.244L2.155.788A2.144,2.144,0,0,0,1.226.544C.873.544.65.694.65.956c0,.319.353.413.762.525.483.131.984.356.984.975A1.163,1.163,0,0,1,1.133,3.506Z" transform="translate(28.085 1.669)" fill="#0290d0"/>
      <path id="Path-39" data-name="Path" d="M1.43,4.163c-.632,0-.966-.3-.947-1.031L.539,1.294,0,1.256.019.881.557.713.576,0h.557L1.115.75H2.136l-.019.525H1.1L1.04,3.131c0,.3.13.469.427.469a1.669,1.669,0,0,0,.594-.113,1.525,1.525,0,0,1,.056.263c.019.075.037.169.056.263A1.814,1.814,0,0,1,1.43,4.163Z" transform="translate(30.816 0.994)" fill="#0290d0"/>
      <path id="Shape-23" data-name="Shape" d="M.119,4.875v-3.3l.738-.094V4.875ZM0,.431A.444.444,0,0,1,.5,0,.443.443,0,0,1,1,.431.457.457,0,0,1,.5.862.444.444,0,0,1,0,.431Z" transform="translate(33.491 0.188)" fill="#0290d0"/>
      <path id="Path-40" data-name="Path" d="M1.43,4.163c-.632,0-.966-.3-.947-1.031L.539,1.294,0,1.256.019.881.557.713.576,0h.557L1.115.75H2.136l-.019.525H1.1L1.04,3.131c0,.3.13.469.427.469a1.669,1.669,0,0,0,.594-.113,1.525,1.525,0,0,1,.056.263c.019.075.037.169.056.263A1.814,1.814,0,0,1,1.43,4.163Z" transform="translate(34.698 0.994)" fill="#0290d0"/>
      <path id="Path-41" data-name="Path" d="M.594,2.063c0,.581.2.769.632.769a1.4,1.4,0,0,0,.892-.356V0h.576V3.281l-.576.094V2.906a1.528,1.528,0,0,1-1.1.488A.989.989,0,0,1,0,2.269V0H.576V2.063Z" transform="translate(37.429 1.781)" fill="#0290d0"/>
      <path id="Path-42" data-name="Path" d="M1.43,4.163c-.632,0-.966-.3-.947-1.031L.539,1.294,0,1.256.019.881.557.713.576,0h.557L1.115.75H2.136l-.019.525H1.1L1.04,3.131c0,.3.13.469.427.469a1.669,1.669,0,0,0,.594-.113,1.525,1.525,0,0,1,.056.263c.019.075.037.169.056.263A1.814,1.814,0,0,1,1.43,4.163Z" transform="translate(40.679 0.994)" fill="#0290d0"/>
      <path id="Shape-24" data-name="Shape" d="M0,1.781A1.64,1.64,0,0,1,1.6,0,1.169,1.169,0,0,1,2.842,1.294a1.558,1.558,0,0,1-.075.525H.576v.038a1.075,1.075,0,0,0,1.1,1.087,1.714,1.714,0,0,0,.966-.282l.112.545a2.034,2.034,0,0,1-1.1.281A1.608,1.608,0,0,1,0,1.781Z" transform="translate(43.168 1.669)" fill="#0290d0"/>
    </g>
  </g>
  <path id="Path-43" data-name="Path" d="M.5,0Q.8,11.366.883,22.75c.05,3.8.05,7.577.083,11.375L1,45.5.967,56.875C.933,60.673.933,64.452.883,68.25Q.783,79.616.5,91,.2,79.634.117,68.25c-.05-3.8-.05-7.577-.083-11.375L0,45.5.033,34.125c.033-3.8.033-7.577.083-11.375C.183,15.154.283,7.577.5,0Z" transform="translate(80 3)" fill="#606062"/>
</svg>
