<?xml version="1.0" encoding="utf-8"?>
<!-- Generator: Adobe Illustrator 25.0.0, SVG Export Plug-In . SVG Version: 6.00 Build 0)  -->
<svg version="1.1" id="Layer_1" xmlns="http://www.w3.org/2000/svg" xmlns:xlink="http://www.w3.org/1999/xlink" x="0px" y="0px"
	 viewBox="0 0 1080 502.2" style="enable-background:new 0 0 1080 502.2;" xml:space="preserve">
<style type="text/css">
	.st0{fill:#606062;}
	.st1{fill:#02B28B;}
	.st2{fill:#0290D0;}
	.st3{fill:#0574B9;}
</style>
<g>
	<g>
		<path class="st0" d="M506.7,174l-9.2,0.1v23.3h-9.6V127h19.5c19.4,0,27.9,9.6,27.9,22.7C535.2,165.7,524.2,173.7,506.7,174z
			 M506.9,136h-9.5v29.2l10.2-0.2c11.8-0.3,17.9-5.5,17.9-14.6C525.6,140.7,519.4,136,506.9,136z"/>
		<path class="st0" d="M544.1,197.4v-51.8l9.2-1.5v9.1c3.6-5.7,7.8-9.1,14.4-9.1c3.7,0,6.9,0.9,9.7,2.6l-2.4,8.7
			c-2.8-1.7-5.6-2.4-8.2-2.4c-5,0-9.6,3.5-13.5,10.7v33.7H544.1z"/>
		<path class="st0" d="M606.5,190.6c5.4,0,11.3-1.5,15.4-4.3l1.7,8.6c-4.6,2.8-10.7,4.3-17.3,4.3c-15.5,0-26.1-11.1-26.1-26.9
			c0-16.7,11-28,25.4-28c12.6,0,19.7,7.9,19.7,20.2c0,2.8-0.3,6-1.1,8.2h-5.4c-3.3,0-7.5,0-11.9,0.1c-5.1,0.1-10.9,0.1-17.3,0.1v0.5
			C589.8,183.4,596.6,190.6,606.5,190.6z M602.2,124.6L602.2,124.6L591,138.9h-6.8l12.9-21.1h9.9l12.9,21.1h-6.8L602.2,124.6z
			 M616.4,165c0-7.7-3.6-12.7-11.7-12.7c-8.9,0-13.8,7-14.7,13.7l26.5-0.2L616.4,165L616.4,165z"/>
		<path class="st0" d="M699.9,165.3c0-9-3.2-12.3-9.9-12.3c-5.7,0-10,3-13.1,5.9v3.2v35.5h-9.2v-32.2c0-9-3.2-12.3-9.9-12.3
			c-5.7,0-10,2.5-13.1,5.3v39.2h-9.2v-51.8l9.2-1.5v7.1c5-4.7,10.5-7.1,16.5-7.1s10.9,2.8,13.5,8.6c5.5-5.5,11.5-8.6,18.7-8.6
			c9.5,0,15.6,6.6,15.6,18v35.2h-9.2v-32.2H699.9z"/>
		<path class="st0" d="M726.7,134.5c-4.2,0-6.1-3.2-6.1-6.6c0-3.5,1.9-6.6,6.1-6.6s6.1,3.2,6.1,6.6
			C732.8,131.4,730.8,134.5,726.7,134.5z M722.1,145.7l9.2-1.5v53.2h-9.2V145.7z"/>
		<path class="st0" d="M766,199.1c-14.6,0-24.9-10.8-24.9-27.5c0-16.5,10.7-27.6,25.4-27.6s24.8,10.9,24.8,27.6
			C791.3,188.2,780.5,199.1,766,199.1z M766.1,152.4c-10.4,0-15.9,7.9-15.9,19.1c0,11,5.9,19.3,16.1,19.3c10.4,0,15.9-7.9,15.9-19
			C782.2,160.6,776.3,152.4,766.1,152.4z"/>
		<path class="st0" d="M487.9,233.7h44.6v8.9h-35v21.7h29.2v8.9h-29.2v22h35v8.9h-44.6V233.7z"/>
		<path class="st0" d="M606.3,271.9c0-9-3.2-12.3-9.9-12.3c-5.7,0-10,3-13.1,5.9v3.2v35.5h-9.2V272c0-9-3.2-12.3-9.9-12.3
			c-5.7,0-10,2.5-13.1,5.3v39.2h-9.2v-51.8l9.2-1.5v7.1c5-4.7,10.5-7.1,16.5-7.1s10.9,2.8,13.5,8.6c5.5-5.5,11.5-8.6,18.7-8.6
			c9.5,0,15.6,6.6,15.6,18v35.2h-9.2v-32.2H606.3z"/>
		<path class="st0" d="M652.1,250.9c14.5,0,23,11.7,23,27.2c0,15.6-10.8,27.7-26.2,27.7c-3,0-7.9-0.5-11.1-1.4v25.9h-9.2v-78
			l9.2-1.5v6.4C641.4,253.8,645.9,250.9,652.1,250.9z M649.2,297.5c10.5,0,16.3-8.7,16.3-19.1c0-11.4-5.7-18.9-15.3-18.9
			c-4.8,0-9,1.9-12.5,5v29.4C640.7,296.2,644.6,297.5,649.2,297.5z"/>
		<path class="st0" d="M685.3,304.1v-51.8l9.2-1.5v9.1c3.6-5.7,7.8-9.1,14.4-9.1c3.7,0,6.9,0.9,9.7,2.6l-2.4,8.7
			c-2.8-1.7-5.6-2.4-8.2-2.4c-5,0-9.6,3.5-13.5,10.7v33.7L685.3,304.1L685.3,304.1z"/>
		<path class="st0" d="M747.6,297.2c5.4,0,11.3-1.5,15.4-4.3l1.7,8.6c-4.6,2.8-10.7,4.3-17.3,4.3c-15.5,0-26.1-11.1-26.1-26.9
			c0-16.7,11-28,25.4-28c12.6,0,19.7,7.9,19.7,20.2c0,2.8-0.3,6-1.1,8.2h-5.4c-3.3,0-7.5,0-11.9,0.1c-5.1,0.1-10.9,0.1-17.3,0.1v0.5
			C730.9,290,737.7,297.2,747.6,297.2z M757.5,271.7c0-7.7-3.6-12.7-11.7-12.7c-8.9,0-13.8,7-14.7,13.7l26.5-0.2L757.5,271.7
			L757.5,271.7z"/>
		<path class="st0" d="M790.5,305.9c-6.3,0-13.2-1.8-18-4.8l2.4-8.4c4.4,3,10.6,4.8,15.9,4.8c5.9,0,10.2-2.7,10.2-7.3
			c0-5.2-6.2-6.8-12.2-8.6c-7.3-2.1-15.3-5.6-15.3-15.1s8.1-15.6,18.5-15.6c6,0,11.8,1.5,16.7,3.8l-2.4,8.4
			c-4.4-2.4-10.4-3.8-14.7-3.8c-5.5,0-9.1,2.3-9.1,6.4c0,5.1,5.5,6.5,11.9,8.3c7.5,2.1,15.6,5.5,15.6,15.4
			C810,299.3,801.8,305.9,790.5,305.9z"/>
		<path class="st0" d="M833.1,305.8c-9.7,0-16.4-6.3-16.4-14.7c0-9.3,6.6-17.2,30.7-18.5v-1.5c0-8.4-3.2-11.7-11.6-11.7
			c-5.3,0-11.8,2.5-16.7,5.7l-1.8-8.3c4.5-3.2,12-6,19.4-6c14.1,0,20.3,6,19.9,20v21.6c0,4.2,0.6,5.1,5.1,5.1l-0.6,7.8
			c-8.4,0.8-12-2.3-13.4-6.8h-0.5C843.4,303.2,838.6,305.8,833.1,305.8z M826.5,289.9c0,4.6,3.4,8,9.1,8c4.8,0,8.8-2.4,11.8-5.5v-14
			C832.1,280.3,826.5,283.6,826.5,289.9z"/>
		<path class="st0" d="M929.3,303.1h-9.6l-21.5-57.6l-0.8,58.7h-9.3l2.4-70.4h12.7l21.6,57.9l21.5-57.9h12.5l2.3,70.4h-9.7
			l-0.7-58.5L929.3,303.1z"/>
		<path class="st0" d="M987.5,305.8c-9.7,0-16.4-6.3-16.4-14.7c0-9.3,6.6-17.2,30.7-18.5v-1.5c0-8.4-3.2-11.7-11.6-11.7
			c-5.3,0-11.8,2.5-16.7,5.7l-1.8-8.3c4.5-3.2,12-6,19.4-6c14.1,0,20.3,6,19.9,20v21.6c0,4.2,0.6,5.1,5.1,5.1l-0.6,7.8
			c-8.4,0.8-12-2.3-13.4-6.8h-0.5C997.7,303.2,993,305.8,987.5,305.8z M980.8,289.9c0,4.6,3.4,8,9.1,8c4.8,0,8.8-2.4,11.8-5.5v-14
			C986.4,280.3,980.8,283.6,980.8,289.9z"/>
		<path class="st0" d="M1028.6,241.2c-4.2,0-6.1-3.2-6.1-6.6c0-3.5,1.9-6.6,6.1-6.6s6.1,3.2,6.1,6.6S1032.8,241.2,1028.6,241.2z
			 M1024,252.3l9.2-1.5V304h-9.2L1024,252.3L1024,252.3z"/>
		<path class="st0" d="M1060.5,305.9c-6.3,0-13.2-1.8-18-4.8l2.4-8.4c4.4,3,10.6,4.8,15.9,4.8c5.9,0,10.2-2.7,10.2-7.3
			c0-5.2-6.2-6.8-12.2-8.6c-7.3-2.1-15.3-5.6-15.3-15.1s8.1-15.6,18.5-15.6c6,0,11.8,1.5,16.7,3.8l-2.4,8.4
			c-4.4-2.4-10.4-3.8-14.7-3.8c-5.5,0-9.1,2.3-9.1,6.4c0,5.1,5.5,6.5,11.9,8.3c7.5,2.1,15.6,5.5,15.6,15.4
			S1071.8,305.9,1060.5,305.9z"/>
		<path class="st0" d="M508.6,410.8h-20.7v-70.4H509c23.3,0,37.3,13.7,37.3,34.7C546.3,396.8,532.8,410.8,508.6,410.8z M508.6,349.3
			h-11.1v52.6H509c16.8,0,27.7-8.9,27.7-26.1C536.7,358.3,526.5,349.3,508.6,349.3z"/>
		<path class="st0" d="M562.1,347.8c-4.2,0-6.1-3.2-6.1-6.6c0-3.5,1.9-6.6,6.1-6.6s6.1,3.2,6.1,6.6
			C568.2,344.7,566.3,347.8,562.1,347.8z M557.5,359l9.2-1.5v53.2h-9.2V359z"/>
		<path class="st0" d="M577.3,402.9c0-4.4,3.3-8.2,8.6-10c-5.4-3.2-8.6-8.7-8.6-15.9c0-10.1,7.5-19.5,20.9-19.5
			c5.5,0,10,1.5,13.3,2.9l13.3-1.2l0.3,9.1l-9.9-1.8c2.1,1.9,3.5,6.6,3.5,10.6c0,10.4-8.6,18.9-20.6,18.9c-2.6,0-4.2-0.3-7.2-1.2
			c-2.1,0.8-5.1,2.8-5.1,5.4c0,3,2,4.8,11.7,4.8h4.7c15.4,0,22.5,4.7,22.5,13.8c0,11.3-12.2,19.8-27.8,19.8c-13.5,0-24-5.9-24-15.1
			c0-5.9,3.8-10.7,11-12C579.7,409.6,577.3,406.5,577.3,402.9z M582.2,421.6c0,5.5,6.4,9.6,16.3,9.6c9.6,0,17.3-4.2,17.3-10.5
			c0-5.7-5.1-7-15.4-7c-3.3,0-7.1-0.1-9.3-0.4C585.8,414.7,582.2,417.6,582.2,421.6z M598.6,388.6c6.8,0,11-4.8,11-12
			c0-6.8-3.8-11.6-11.8-11.6c-6.8,0-11.3,5-11.3,12.2C586.6,384,591.1,388.6,598.6,388.6z"/>
		<path class="st0" d="M636.9,347.8c-4.2,0-6.1-3.2-6.1-6.6c0-3.5,1.9-6.6,6.1-6.6s6.1,3.2,6.1,6.6
			C642.9,344.7,641,347.8,636.9,347.8z M632.3,359l9.2-1.5v53.2h-9.2V359z"/>
		<path class="st0" d="M671.2,412.4c-10,0-15.3-4.8-15-16.1l0.8-28.8l-8.6-0.6l0.3-5.9l8.6-2.6l0.2-11.1h8.9l-0.3,11.8h16.1
			l-0.3,8.3h-16.1l-0.8,29.2c-0.1,4.8,2.1,7.3,6.8,7.3c3.2,0,6.3-0.7,9.3-1.9c0.1,0,0.5,1.9,0.9,4.1c0.3,1.2,0.6,2.6,0.8,4.1
			C678.9,411.7,675.1,412.4,671.2,412.4z"/>
		<path class="st0" d="M704.7,412.4c-9.7,0-16.4-6.3-16.4-14.7c0-9.3,6.6-17.2,30.7-18.5v-1.5c0-8.4-3.2-11.7-11.6-11.7
			c-5.3,0-11.8,2.5-16.7,5.7l-1.8-8.3c4.5-3.2,12-6,19.4-6c14.1,0,20.3,6,19.9,20V399c0,4.2,0.6,5.1,5.1,5.1l-0.6,7.8
			c-8.4,0.8-12-2.3-13.4-6.8h-0.5C714.9,409.9,710.2,412.4,704.7,412.4z M698,396.6c0,4.6,3.4,8,9.1,8c4.8,0,8.8-2.4,11.8-5.5v-14
			C703.7,387,698,390.3,698,396.6z"/>
		<path class="st0" d="M741.5,334.9l9.2-1.5v77.3h-9.2V334.9z"/>
		<path class="st0" d="M781.2,402.8c15.8-11.6,30.1-20.5,30.1-29.3c0-5.3-3.9-8.9-10.7-8.9c-5.7,0-10.7,2.5-16,6.4l-3.3-7.9
			c5.3-4.2,11.8-7.2,20.3-7.2c11.5,0,19.5,6.5,19.5,16.4c0,12.3-11,19-25.8,29.6h28.3v8.8h-42.3L781.2,402.8L781.2,402.8z"/>
		<path class="st0" d="M857.4,412.4c-16,0-27.1-11.6-27.1-28.3s11.1-28.3,27.1-28.3c15.9,0,27.2,11.6,27.2,28.3
			S873.3,412.4,857.4,412.4z M857.4,364.7c-10.7,0-17.9,8.2-17.9,19.5s7.2,19.5,17.9,19.5c10.8,0,18-8.2,18-19.5
			C875.4,372.9,868.2,364.7,857.4,364.7z"/>
		<path class="st0" d="M891.2,402.8c15.8-11.6,30.1-20.5,30.1-29.3c0-5.3-3.9-8.9-10.7-8.9c-5.7,0-10.7,2.5-16,6.4l-3.3-7.9
			c5.3-4.2,11.8-7.2,20.3-7.2c11.5,0,19.5,6.5,19.5,16.4c0,12.3-11,19-25.8,29.6h28.3v8.8h-42.3L891.2,402.8L891.2,402.8z"/>
		<path class="st0" d="M967.4,412.4c-16,0-27.1-11.6-27.1-28.3s11.1-28.3,27.1-28.3c15.9,0,27.2,11.6,27.2,28.3
			S983.3,412.4,967.4,412.4z M967.4,364.7c-10.7,0-17.9,8.2-17.9,19.5s7.2,19.5,17.9,19.5c10.8,0,18-8.2,18-19.5
			C985.4,372.9,978.2,364.7,967.4,364.7z"/>
	</g>
	<g>
		<path class="st1" d="M242.9,179.6l-8-0.1c-5.1,0-10.1,0-15.2,0l-13.1,0.1l-9.4-28.3l-2.7-8.2l-2.4,8.3l-8.5,29.1l-31.3,0.8
			l-8.4,0.2l6.9,4.8l24.8,17.1l-4.8,15.3l10.5-15.2l1.3-1.9l-2.3-1.6l-19.7-13.5l24.9-0.9l1.8-0.1l0.5-1.8l6.8-22.5l7.1,22.1l0.6,2
			h2.1l15.2-0.1c2.1,0,4.2,0,6.3-0.1l-19,13.5l-2.1,1.5l1,2.5l7.9,20.6l-17.2-12.6l-2.4-1.8l-1.8,2.1L168.8,239l25.9-21.5l23.8,17.3
			l8.2,6l-3.4-9.6l-10.2-28.4l23.3-18.3L242.9,179.6z"/>
		<g>
			<path class="st2" d="M242.5,404.2c-0.2,0-0.3,0-0.5,0c-5.5,0-9.3,4-9.6,10.2c-0.3,6.6,3.3,11,9.3,11.3c0.2,0,0.3,0,0.5,0
				c5.4,0,9.4-4.1,9.6-10.2c0.1-3.2-0.7-6-2.4-8C247.7,405.4,245.3,404.3,242.5,404.2z"/>
			<path class="st2" d="M189.6,403h-0.1c-2.8,0-5.2,1.1-6.9,3s-2.6,4.6-2.6,7.7c0,3.2,1,6,2.8,7.9c1.7,1.9,4.2,2.9,7,2.9h0.1
				c2.7,0,5.2-1.1,6.9-3c1.8-2,2.7-4.6,2.6-7.7c0-3.2-1-5.9-2.8-7.8C194.8,403.9,192.4,403,189.6,403z"/>
			<polygon class="st2" points="305,421.6 313.7,422.3 310.3,409.9 			"/>
			<path class="st2" d="M196.3,387.9c-92.8,0-155.5,11.6-164.6,13.4v49.2c11.1-2.1,74.7-13.4,164.6-13.4s153.5,11.2,164.6,13.4
				v-49.2C351.7,399.5,289,387.9,196.3,387.9z M93.2,408.4l-9.3,0.7l1.8,23.6l-4,0.3L80,409.3l-9.5,0.7l-0.3-3.8h0.2l22.8-1.7
				l0.3,3.8L93.2,408.4z M116.6,430.5l-17.3,1.2l-1.8-27.4h0.2l17.3-1.2l0.3,3.8h-0.2l-13.3,0.9l0.5,8l11.2-0.7l0.3,3.8h-0.2
				l-11,0.7l0.5,8.1l13.5-0.9l0.3,3.8L116.6,430.5z M142.6,427.3c-2.2,1.6-5.3,2.6-8.3,2.8c-0.3,0-0.7,0-1,0c-3.6,0-6.7-1.1-9.1-3.3
				c-2.7-2.4-4.2-6-4.4-10.2c-0.5-8.5,4.8-14.7,12.9-15.2c3.1-0.2,6.5,0.5,8.8,1.8l0.1,0.1l-1.1,3.8l-0.2-0.1
				c-2.6-1.5-4.7-2-7.4-1.9c-2.9,0.2-5.2,1.3-6.8,3.2c-1.6,2-2.4,4.7-2.2,7.9c0.2,3.2,1.3,5.9,3.1,7.7c1.8,1.8,4.3,2.7,7.2,2.5
				c2.7-0.2,5.4-1.3,7.4-3l0.2-0.2L142.6,427.3L142.6,427.3z M166.4,428.2L166.4,428.2l-15.1-21.1l0.9,21.4l-4,0.2v-0.2l-1.1-27.3
				l4.3-0.2l0.1,0.1l15,20.8l-0.9-21.4l4-0.2v0.2l1.1,27.5L166.4,428.2z M199.7,423.8c-2.5,2.7-6,4.2-9.9,4.3c-0.1,0-0.1,0-0.2,0
				c-8.2,0-13.7-5.7-13.8-14.2c0-4,1.3-7.7,3.8-10.3c2.5-2.7,6-4.2,9.9-4.3c0.1,0,0.1,0,0.2,0c3.9,0,7.3,1.3,9.8,3.8
				c2.6,2.6,3.9,6.1,4,10.3C203.5,417.4,202.1,421.1,199.7,423.8z M226.1,427.9h-0.2l-17-0.4v-0.2l0.7-27.3l4,0.1l-0.6,23.6
				l13.1,0.3V427.9z M255.8,415.4c-0.4,8.1-6.1,13.9-13.7,13.9c-0.2,0-0.5,0-0.7,0c-8.2-0.4-13.5-6.4-13.1-14.9
				c0.4-8.4,6.4-14.2,14.4-13.8C251,400.9,256.2,406.9,255.8,415.4z M266.2,423.9c1.6,2,4,3.2,6.9,3.4c2.5,0.2,4.5-0.4,5.8-1
				l0.4-6.1l-7.6-0.5l0.2-3.8l11.5,0.7v0.2l-0.7,12h-0.1c-2.4,1.3-5.7,2.1-8.7,2.1c-0.4,0-0.7,0-1,0c-4-0.2-7.3-1.8-9.7-4.5
				c-2.4-2.7-3.5-6.4-3.2-10.6c0.5-8.5,6.5-14.1,14.6-13.6c3.3,0.2,6.8,1.3,9,2.9l0.1,0.1l-1.6,3.6l-0.2-0.1
				c-2.3-1.7-5.1-2.7-7.5-2.9c-2.9-0.2-5.3,0.6-7.2,2.4c-1.9,1.8-2.9,4.4-3.1,7.6C263.8,419.1,264.5,421.9,266.2,423.9z
				 M294.4,404.4l-1.9,27.2l-4-0.3v-0.2l1.9-27.2l4,0.3V404.4z M316.8,433.4v-0.1l-2-7.2l-11.5-0.9l-3.1,6.9h-0.1l-4.1-0.3
				l12.3-26.6h0.1l4.3,0.3l8.1,28.2L316.8,433.4z"/>
		</g>
		<polygon class="st3" points="391.8,473 373.9,448.9 392.5,423.9 363.7,419.5 363.7,453.1 338,464.7 		"/>
		<polygon class="st3" points="28.8,453.1 28.8,419.5 0,423.9 18.6,448.9 0.7,473 54.5,464.7 		"/>
		<path class="st2" d="M199.3,89.2V128c0,0.8,0.6,1.4,1.4,1.4h38.8c0.8,0,1.4-0.6,1.4-1.4V89.2c0-0.8-0.6-1.4-1.4-1.4h-38.8
			C199.9,87.8,199.3,88.4,199.3,89.2z"/>
		<path class="st2" d="M333.6,177.2c0.1-8-1.5-16.4-5.4-24s-10.1-13.9-17.1-18.2c-3.5-2.2-7.3-3.8-11.1-5.1c-1.2-0.4-2.3-0.7-3.5-1
			c0.1-2.6,0.2-5.2,0.4-7.8c0.1-3.7,0.1-7.4,0.2-11.1l0,0l0.1-9l-9,0.1l-44.2,0.3v17.3l35.1,0.2v1.7c-0.2,3.5-0.2,7.1-0.4,10.6
			c-0.5,7-1,14.1-1.8,21.1c-1.7,14-4.4,27.8-8.1,41.3c-7.7,27-20.3,52.3-37.9,74.8c-4.3,5.7-8.8,11.3-13.3,17s-9.1,11.6-13,18.3
			c-1.9,3.4-3.7,7-4.7,11c-0.6,2-0.9,4.1-1,6.2c0,1.1-0.1,2.1,0,3.2c0,0.9,0.2,2.5,0.6,3.6c0.8,2.3,2,4.2,3.3,5.8
			c1.3,1.6,2.6,3,4,4.4c2.7,2.8,5.5,5.3,8.5,7.6c5.9,4.7,12.3,8.7,19.1,12c3.5,1.7,6.7,3,10,4.5c3.2,1.5,6.5,3.1,9.7,4.7
			c6.4,3.2,21.4,12.6,21.7,12.7c-10.3-0.6-22.4-0.7-32.6-0.6c-8.6,0.1-17.3-0.3-25.9-0.3c-8.6,0-17.1-0.1-25.7,0
			c-8.6,0-17.4,0.1-26,0.4l-25.6,0.9c-12.7,0.4-27,0.7-40,2c1.3-1.7,2.8-3.6,5.2-6.4c4-4.6,8.5-8.7,13-12.8
			c4.5-4.1,9.2-7.9,14.3-11.3c2.5-1.7,5.1-3.2,7.9-4.6c2.7-1.3,5.6-2.4,8.7-2.9c-3.1,0-6.2,0.6-9.2,1.5s-6,2-8.8,3.3
			c-5.7,2.6-11.2,5.7-16.5,9.1s-10.4,7-15.4,10.8s-9.1,8.2-13.9,12.5l-11.7,11c17.6-2.1,39.9-4.2,66.2-5.6c8.5-0.8,17-1.1,25.5-1.1
			c9.3-0.3,17.1-0.6,25.6-0.5c10.8,0.1,21.7,0.2,32.6,0.5c15.3,0.4,29.5,1,42.6,1.9c9.2,0.3,18.4,0.8,27.6,2l4.7,0.6
			c9.3,0.9,17.7,1.9,25.1,2.8L297.7,377c-3.4-2.1-6.6-3.8-9.9-5.5s-6.6-3.4-9.9-5c-6.7-3.2-13.4-6.2-20.2-9c-3.4-1.4-6.8-2.7-10.3-4
			c-3.4-1.3-7-2.5-10.1-3.7c-6.4-2.6-12.8-5.7-18.5-9.7c-2.8-2-5.6-4.2-7.9-6.7c-2.3-2.4-4-5.5-4.5-7.9c-0.1-0.6-0.1-0.9-0.1-1.8
			c0-0.8,0.1-1.5,0.1-2.3c0.2-1.5,0.5-3,1-4.5c0.9-3,2.6-5.9,4.4-8.7c3.7-5.6,8.5-11,13.2-16.4c4.8-5.4,9.7-10.8,14.5-16.4
			c9.5-11.3,18.4-23.3,26-36.2c3.8-6.5,7.2-13.2,10.2-20.1c0.7-1.7,1.5-3.4,2.2-5.2l2.1-5.2l1-2.6l0.9-2.7l1.8-5.3
			c4.8-14.2,7.9-29,10.1-43.7c0.6-3.7,1-7.4,1.4-11.1c0-0.2,0-0.4,0.1-0.6c2.7,1.3,5.3,2.8,7.7,4.5c4.9,3.5,8.9,7.9,11.7,13
			c1.4,2.5,2.5,5.3,3.2,8.2c0.8,2.9,1.3,6,1.5,9.1l0.1,1.2v1.2v2.5c0,1.7,0.1,3.3-0.1,5c-0.1,1.6-0.2,3.3-0.4,4.9l-0.8,4.9
			c-1.3,6.5-3.4,12.8-6.2,19c-2.8,6.1-6.5,11.9-10.6,17.5c-8.2,11.2-18.4,21.2-28.7,31.3c6.3-3.5,12.3-7.5,18.2-11.8
			c1.4-1.1,2.9-2.2,4.3-3.3l4.2-3.5c2.8-2.4,5.5-4.9,8-7.6c5.2-5.3,9.8-11.2,13.8-17.7c3.9-6.5,6.9-13.7,9-21.1l1.4-5.6
			c0.3-1.9,0.6-3.8,0.9-5.7c0.4-1.9,0.4-3.8,0.6-5.8l0.2-2.9l0.1-1.4L333.6,177.2z"/>
		<path class="st1" d="M150.8,105.9h32.7c0.8,0,1.4-0.6,1.4-1.4V71.8c0-0.8-0.6-1.4-1.4-1.4h-32.7c-0.8,0-1.4,0.6-1.4,1.4v32.7
			C149.4,105.3,150,105.9,150.8,105.9z"/>
		<g>
			<path class="st2" d="M196.4,118.3v-16.7l-8.5,0.1v4.3c0,1.6-1.3,2.9-2.9,2.9h-35.6c-1.6,0-2.9-1.3-2.9-2.9v-4l-43.2,0.3l0,0
				l-8.2,0.5l0.4,7.2c0.4,6.1,0.8,12.2,1.3,18.3c-0.1,0-0.1,0-0.2,0c-2,0.4-3.9,1-5.8,1.6c-3.8,1.3-7.5,2.9-11.1,5.1
				c-7,4.3-13.3,10.6-17.1,18.2c-3.9,7.6-5.4,16-5.4,24v1.5l0.1,1.4l0.2,2.9c0.1,1.9,0.2,3.8,0.6,5.8c0.3,1.9,0.6,3.8,0.9,5.7
				l1.4,5.6c2.1,7.4,5.1,14.6,9,21.1c4,6.5,8.6,12.4,13.8,17.7c2.6,2.7,5.3,5.2,8,7.6l4.2,3.5c1.4,1.1,2.9,2.2,4.3,3.3
				c5.9,4.3,11.9,8.2,18.2,11.8C107.8,255,97.5,245,89.4,233.7c-4-5.6-7.8-11.4-10.6-17.5c-2.8-6.1-4.9-12.5-6.2-19l-0.8-4.9
				c-0.2-1.6-0.3-3.3-0.4-4.9c-0.2-1.6-0.1-3.3-0.1-5v-2.5v-1.2l0.1-1.2c0.2-3.2,0.7-6.2,1.5-9.1c0.8-2.9,1.8-5.7,3.2-8.2
				c2.7-5.1,6.7-9.5,11.7-13c2.5-1.8,5.2-3.3,8-4.6c0.8-0.4,1.6-0.7,2.4-1.1c0.1,0.6,0.1,1.1,0.2,1.7c1.4,11.1,3.4,22.1,6.3,32.9
				s6.7,21.2,10.8,31.4c4.1,10.2,8.6,20.2,13.2,30.2c-3.3-10.4-6.6-20.9-9.5-31.4s-5.4-21.1-6.9-31.8c-2.8-18.8-2.7-37.7-1.7-56.8
				L196.4,118.3z"/>
		</g>
		<path class="st2" d="M112.1,69.2v18.2c0,0.8,0.6,1.4,1.4,1.4h18.2c0.8,0,1.4-0.6,1.4-1.4V69.2c0-0.8-0.6-1.4-1.4-1.4h-18.2
			C112.7,67.8,112.1,68.4,112.1,69.2z"/>
		<path class="st2" d="M256.7,69.2v18.2c0,0.8,0.6,1.4,1.4,1.4h18.2c0.8,0,1.4-0.6,1.4-1.4V69.2c0-0.8-0.6-1.4-1.4-1.4h-18.2
			C257.4,67.8,256.7,68.4,256.7,69.2z"/>
		<path class="st2" d="M219,28.6v21c0,0.8,0.6,1.4,1.4,1.4h21c0.8,0,1.4-0.6,1.4-1.4v-21c0-0.8-0.6-1.4-1.4-1.4h-21
			C219.7,27.2,219,27.8,219,28.6z"/>
		<path class="st1" d="M176.8,42.8h27c0.8,0,1.4-0.6,1.4-1.4v-27c0-0.8-0.6-1.4-1.4-1.4h-27c-0.8,0-1.4,0.6-1.4,1.4v27
			C175.4,42.1,176.1,42.8,176.8,42.8z"/>
		<path class="st1" d="M123.4,37.3v4.2c0,0.8,0.6,1.4,1.4,1.4h4.2c0.8,0,1.4-0.6,1.4-1.4v-4.2c0-0.8-0.6-1.4-1.4-1.4h-4.2
			C124,35.9,123.4,36.5,123.4,37.3z"/>
		<path class="st1" d="M227.4,66.1v4.2c0,0.8,0.6,1.4,1.4,1.4h4.2c0.8,0,1.4-0.6,1.4-1.4v-4.2c0-0.8-0.6-1.4-1.4-1.4h-4.2
			C228,64.6,227.4,65.3,227.4,66.1z"/>
		<path class="st2" d="M152.1,42.9V53c0,0.8,0.6,1.4,1.4,1.4h10.1c0.8,0,1.4-0.6,1.4-1.4V42.9c0-0.8-0.6-1.4-1.4-1.4h-10.1
			C152.7,41.5,152.1,42.1,152.1,42.9z"/>
		<path class="st1" d="M231,0h-10.1c-0.8,0-1.4,0.6-1.4,1.4v10.1c0,0.8,0.6,1.4,1.4,1.4H231c0.8,0,1.4-0.6,1.4-1.4V1.4
			C232.4,0.6,231.8,0,231,0z"/>
		<path class="st1" d="M260.3,54.4h10.1c0.8,0,1.4-0.6,1.4-1.4V42.9c0-0.8-0.6-1.4-1.4-1.4h-10.1c-0.8,0-1.4,0.6-1.4,1.4V53
			C258.9,53.8,259.5,54.4,260.3,54.4z"/>
		<path class="st2" d="M195.7,60.2v12.9c0,0.8,0.6,1.4,1.4,1.4H210c0.8,0,1.4-0.6,1.4-1.4V60.2c0-0.8-0.6-1.4-1.4-1.4h-12.9
			C196.4,58.8,195.7,59.4,195.7,60.2z"/>
		<g>
			<path class="st2" d="M81.9,473.9h-2.7v-6.5h-6.5l0.1-2.7h6.4v-6.5h2.7v6.5h6.3l0.1,2.7h-6.4V473.9z"/>
			<path class="st2" d="M99.5,475h-7v-23.9h7.2c7.9,0,12.7,4.7,12.7,11.8C112.3,470.2,107.7,475,99.5,475z M99.5,454.1h-3.8V472h3.9
				c5.7,0,9.4-3,9.4-8.9C109,457.1,105.5,454.1,99.5,454.1z"/>
			<path class="st2" d="M118.2,453.6c-1.4,0-2.1-1.1-2.1-2.3c0-1.2,0.7-2.3,2.1-2.3s2.1,1.1,2.1,2.3
				C120.2,452.5,119.6,453.6,118.2,453.6z M116.6,457.4l3.1-0.5V475h-3.1V457.4z"/>
			<path class="st2" d="M123.8,472.3c0-1.5,1.1-2.8,2.9-3.4c-1.8-1.1-2.9-2.9-2.9-5.4c0-3.4,2.6-6.6,7.1-6.6c1.9,0,3.4,0.5,4.5,1
				l4.5-0.4l0.1,3.1l-3.4-0.6c0.7,0.7,1.2,2.3,1.2,3.6c0,3.5-2.9,6.4-7,6.4c-0.9,0-1.4-0.1-2.4-0.4c-0.7,0.3-1.7,1-1.7,1.8
				c0,1,0.7,1.6,4,1.6h1.6c5.2,0,7.7,1.6,7.7,4.7c0,3.8-4.1,6.7-9.5,6.7c-4.6,0-8.2-2-8.2-5.1c0-2,1.3-3.6,3.7-4.1
				C124.6,474.6,123.8,473.5,123.8,472.3z M125.5,478.6c0,1.9,2.2,3.3,5.5,3.3s5.9-1.4,5.9-3.6c0-2-1.7-2.4-5.2-2.4
				c-1.1,0-2.4,0-3.2-0.2C126.7,476.3,125.5,477.3,125.5,478.6z M131.1,467.4c2.3,0,3.8-1.6,3.8-4.1c0-2.3-1.3-3.9-4-3.9
				c-2.3,0-3.8,1.7-3.8,4.1C127,465.9,128.5,467.4,131.1,467.4z"/>
			<path class="st2" d="M144.6,453.6c-1.4,0-2.1-1.1-2.1-2.3c0-1.2,0.7-2.3,2.1-2.3c1.4,0,2.1,1.1,2.1,2.3
				C146.6,452.5,146,453.6,144.6,453.6z M143,457.4l3.1-0.5V475H143V457.4z"/>
			<path class="st2" d="M156.7,475.5c-3.4,0-5.2-1.6-5.1-5.5l0.3-9.8L149,460l0.1-2l2.9-0.9l0.1-3.8h3l-0.1,4h5.5l-0.1,2.8h-5.5
				l-0.3,9.9c0,1.6,0.7,2.5,2.3,2.5c1.1,0,2.1-0.2,3.2-0.6c0,0,0.2,0.6,0.3,1.4c0.1,0.4,0.2,0.9,0.3,1.4
				C159.3,475.3,158,475.5,156.7,475.5z"/>
			<path class="st2" d="M168.6,475.5c-3.3,0-5.6-2.1-5.6-5c0-3.2,2.3-5.9,10.4-6.3v-0.5c0-2.9-1.1-4-3.9-4c-1.8,0-4,0.8-5.7,2
				l-0.6-2.8c1.5-1.1,4.1-2,6.6-2c4.8,0,6.9,2,6.8,6.8v7.3c0,1.4,0.2,1.7,1.7,1.7l-0.2,2.6c-2.9,0.3-4.1-0.8-4.6-2.3h-0.2
				C172.1,474.7,170.4,475.5,168.6,475.5z M166.3,470.1c0,1.6,1.1,2.7,3.1,2.7c1.6,0,3-0.8,4-1.9v-4.7
				C168.2,466.9,166.3,468,166.3,470.1z"/>
			<path class="st2" d="M181.6,449.2l3.1-0.5V475h-3.1V449.2z"/>
			<path class="st2" d="M196.4,451.1h3.2V475h-3.2V451.1z"/>
			<path class="st2" d="M216.4,463.9c0-3.1-1.1-4.1-3.6-4.1c-1.8,0-3.6,1-4.6,1.9V475h-3.1v-17.6l3.1-0.5v2.6
				c1.6-1.6,3.7-2.6,5.7-2.6c3.6,0,5.7,2.2,5.7,6V475h-3.1L216.4,463.9L216.4,463.9z"/>
			<path class="st2" d="M229.3,475.6c-2.1,0-4.5-0.6-6.1-1.6l0.8-2.9c1.5,1,3.6,1.6,5.4,1.6c2,0,3.5-0.9,3.5-2.5
				c0-1.8-2.1-2.3-4.1-2.9c-2.5-0.7-5.2-1.9-5.2-5.1s2.8-5.3,6.3-5.3c2,0,4,0.5,5.7,1.3l-0.8,2.9c-1.5-0.8-3.5-1.3-5-1.3
				c-1.9,0-3.1,0.8-3.1,2.2c0,1.7,1.9,2.2,4.1,2.8c2.6,0.7,5.3,1.9,5.3,5.2C235.9,473.3,233.1,475.6,229.3,475.6z"/>
			<path class="st2" d="M245.6,475.5c-3.4,0-5.2-1.6-5.1-5.5l0.3-9.8l-2.9-0.2l0.1-2l2.9-0.9l0.1-3.8h3l-0.1,4h5.5l-0.1,2.8h-5.5
				l-0.3,9.9c0,1.6,0.7,2.5,2.3,2.5c1.1,0,2.1-0.2,3.2-0.6c0,0,0.2,0.6,0.3,1.4c0.1,0.4,0.2,0.9,0.3,1.4
				C248.2,475.3,246.9,475.5,245.6,475.5z"/>
			<path class="st2" d="M254.4,453.6c-1.4,0-2.1-1.1-2.1-2.3c0-1.2,0.7-2.3,2.1-2.3c1.4,0,2.1,1.1,2.1,2.3
				C256.4,452.5,255.8,453.6,254.4,453.6z M252.8,457.4l3.1-0.5V475h-3.1V457.4z"/>
			<path class="st2" d="M266.5,475.5c-3.4,0-5.2-1.6-5.1-5.5l0.3-9.8l-2.9-0.2l0.1-2l2.9-0.9l0.1-3.8h3l-0.1,4h5.5l-0.1,2.8h-5.5
				l-0.3,9.9c0,1.6,0.7,2.5,2.3,2.5c1.1,0,2.1-0.2,3.2-0.6c0,0,0.2,0.6,0.3,1.4c0.1,0.4,0.2,0.9,0.3,1.4
				C269.1,475.3,267.8,475.5,266.5,475.5z"/>
			<path class="st2" d="M276.7,468.5c0,3.1,1.1,4.1,3.4,4.1c2,0,3.8-1,4.8-1.9v-13.2h3.1V475l-3.1,0.5V473c-1.6,1.6-3.6,2.6-5.9,2.6
				c-3.4,0-5.5-2.2-5.5-6v-12.1h3.1v11H276.7z"/>
			<path class="st2" d="M298.7,475.5c-3.4,0-5.2-1.6-5.1-5.5l0.3-9.8L291,460l0.1-2l2.9-0.9l0.1-3.8h3l-0.1,4h5.5l-0.1,2.8h-5.5
				l-0.3,9.9c0,1.6,0.7,2.5,2.3,2.5c1.1,0,2.1-0.2,3.2-0.6c0,0,0.2,0.6,0.3,1.4c0.1,0.4,0.2,0.9,0.3,1.4
				C301.3,475.3,300,475.5,298.7,475.5z"/>
			<path class="st2" d="M313.4,472.6c1.8,0,3.8-0.5,5.2-1.5l0.6,2.9c-1.6,1-3.6,1.5-5.9,1.5c-5.3,0-8.9-3.8-8.9-9.1
				c0-5.7,3.8-9.5,8.6-9.5c4.3,0,6.7,2.7,6.7,6.9c0,1-0.1,2-0.4,2.8h-1.8c-1.1,0-2.6,0-4.1,0c-1.7,0-3.7,0-5.9,0v0.2
				C307.7,470.2,310,472.6,313.4,472.6z M316.8,463.9c0-2.6-1.2-4.3-4-4.3c-3,0-4.7,2.4-5,4.7l9-0.1V463.9z"/>
		</g>
	</g>
	<path class="st0" d="M434.4,15.9c1.2,40.5,1.9,81.1,2.3,121.6c0.3,20.3,0.3,40.5,0.5,60.8l0.2,60.8l-0.2,60.8
		c-0.2,20.3-0.2,40.5-0.5,60.8c-0.4,40.5-1.1,81.1-2.3,121.6c-1.2-40.5-1.9-81.1-2.3-121.6c-0.3-20.3-0.3-40.5-0.5-60.8l-0.2-60.8
		l0.2-60.8c0.2-20.3,0.2-40.5,0.5-60.8C432.5,96.9,433.1,56.4,434.4,15.9z"/>
</g>
</svg>
