<svg xmlns="http://www.w3.org/2000/svg" width="32" height="32" viewBox="0 0 32 32">
  <g id="Grupo_1" data-name="Grupo 1" transform="translate(-734 -3939)">
    <path id="Fill_111" data-name="Fill 111" d="M11.058,1.284a4.867,4.867,0,0,1-9.734,0A4.817,4.817,0,0,1,1.5,0H0V6.958a.447.447,0,0,0,.447.447H11.934a.447.447,0,0,0,.448-.447V0h-1.5a4.817,4.817,0,0,1,.173,1.284" transform="translate(743.828 3953.734)" fill="#005fa3"/>
    <path id="Fill_112" data-name="Fill 112" d="M.448,3.051H2.611a.447.447,0,0,0,.448-.446V.446A.447.447,0,0,0,2.611,0H.448A.447.447,0,0,0,0,.446V2.605a.447.447,0,0,0,.448.446" transform="translate(753.114 3948.823)" fill="#005fa3"/>
    <path id="Fill_113" data-name="Fill 113" d="M3.077,6.139A3.07,3.07,0,1,0,0,3.069a3.073,3.073,0,0,0,3.077,3.07" transform="translate(746.942 3951.949)" fill="#005fa3"/>
    <path id="Fill_114" data-name="Fill 114" d="M32,32H0V0H32V32ZM9.9,8A1.9,1.9,0,0,0,8,9.9V22.1A1.9,1.9,0,0,0,9.9,24H22.1A1.9,1.9,0,0,0,24,22.1V9.9A1.9,1.9,0,0,0,22.1,8Z" transform="translate(734 3939)" fill="#005fa3"/>
  </g>
</svg>
