<?xml version="1.0" encoding="utf-8"?>
<!-- Generator: Adobe Illustrator 25.0.0, SVG Export Plug-In . SVG Version: 6.00 Build 0)  -->
<svg version="1.1" id="Layer_2_1_" xmlns="http://www.w3.org/2000/svg" xmlns:xlink="http://www.w3.org/1999/xlink" x="0px" y="0px"
	 viewBox="0 0 163.3 136.5" style="enable-background:new 0 0 163.3 136.5;" xml:space="preserve">
<style type="text/css">
	.st0{fill:#29497B;}
	.st1{fill:#75787B;}
</style>
<path class="st0" d="M29.1,43.2H4.3v14.5h7.4v34.1H4.3v14.5h32.1V91.8h-7.3V43.2z M3.9,29.5l8.5,5.9l6.3-8.4l6.3,8.4l8.5-5.9
	l-6.1-8.8l10-3.2l-3-9.9l-10.3,3.1V0H13.3v10.7L3,7.6l-3,9.9l10,3.2C10,20.7,3.9,29.5,3.9,29.5z"/>
<path class="st0" d="M69.1,67.2c-5.9-2.1-9.5-3.5-9.5-6.1c0-3.1,2.8-5,7.5-5c1.2,0,2.4,0.1,3.6,0.3l1,6.8h12.5V45.1
	c0,0-6.1-2.6-17.1-2.6c-14.5,0-23.9,7.7-23.9,19.6c0,12.6,10.5,16.1,18.2,18.7c5.8,2,9.4,3.3,9.4,6.2c0,1.4,0,5.6-7.3,5.6
	c-2,0-4-0.2-5.9-0.6l-0.9-6.8H44v18c0,0,7.6,3.4,19.5,3.4c14.2,0,23.8-8.5,23.8-21.1C87.4,73.6,76.8,69.9,69.1,67.2 M126.5,57.1
	c1.9,0,3.7,0.2,5.5,0.6l1.1,7.2h12.5V45.3c0,0-6.9-2.7-18.5-2.7c-20.5,0-34.2,13.4-34.2,33.3c0,18.9,12,30.6,31.2,30.6
	c14,0,21.5-4,21.5-4V70.9h-22.3v11.2l7.3,1.1v8.3c-1.6,0.3-3.3,0.5-5,0.5c-10.3,0-16-6.1-16-17C109.6,63.7,116,57.1,126.5,57.1"/>
<path class="st1" d="M4.9,132.8l1.1-0.2v-5.1l-1.1-0.2v-0.8h2.4v6.1l1.1,0.2v0.8H4.9V132.8z M7.2,124.6H5.9v-1.3h1.3V124.6z
	 M9.9,132.8l1.1-0.2v-5.1l-1.1-0.2v-0.8h2.3l0.1,0.9c0.2-0.3,0.5-0.6,0.9-0.8c0.4-0.2,0.8-0.3,1.3-0.3c0.4,0,0.9,0.1,1.2,0.3
	c0.4,0.2,0.6,0.6,0.8,1c0.2-0.4,0.5-0.8,0.9-1c0.4-0.2,0.8-0.4,1.3-0.4c0.7,0,1.3,0.2,1.7,0.8c0.5,0.7,0.7,1.5,0.6,2.3v3.3l1.1,0.2
	v0.8h-3.5v-0.8l1.1-0.2v-3.3c0-0.5-0.1-1-0.4-1.5c-0.3-0.3-0.7-0.5-1.1-0.4c-0.4,0-0.8,0.2-1.1,0.5c-0.3,0.3-0.5,0.8-0.5,1.2v3.5
	l1.1,0.2v0.8h-3.5v-0.8l1.1-0.2v-3.3c0-0.5-0.1-1-0.4-1.5c-0.3-0.3-0.7-0.5-1.1-0.5c-0.3,0-0.7,0.1-1,0.2c-0.3,0.2-0.5,0.4-0.6,0.7
	v4.3l1.1,0.2v0.8H9.9L9.9,132.8z M28.4,133.6c0-0.2-0.1-0.4-0.1-0.5s0-0.3,0-0.5c-0.3,0.3-0.6,0.6-0.9,0.8c-0.4,0.2-0.8,0.3-1.2,0.3
	c-0.6,0-1.2-0.2-1.7-0.6c-0.4-0.4-0.6-1-0.6-1.5c0-0.6,0.3-1.2,0.9-1.6c0.7-0.4,1.5-0.6,2.3-0.6h1.4v-0.8c0-0.4-0.1-0.7-0.4-1
	c-0.3-0.3-0.7-0.4-1.1-0.4c-0.3,0-0.6,0-0.9,0.1c-0.2,0.1-0.4,0.2-0.6,0.3l-0.1,0.8h-1v-1.4c0.4-0.3,0.8-0.5,1.2-0.6
	c0.5-0.2,1-0.2,1.5-0.2c0.7,0,1.4,0.2,2,0.6c0.5,0.4,0.8,1.1,0.8,1.8v4l0.5,0.1v0.8L28.4,133.6z M26.3,132.6c0.4,0,0.8-0.1,1.2-0.3
	c0.3-0.2,0.6-0.4,0.8-0.7v-1.2h-1.4c-0.5,0-0.9,0.1-1.3,0.4c-0.3,0.2-0.5,0.5-0.5,0.9c0,0.3,0.1,0.5,0.3,0.7
	C25.7,132.5,26,132.6,26.3,132.6 M32,130.1c0-1,0.2-2,0.8-2.8c0.5-0.7,1.2-1.1,2.1-1.1c0.4,0,0.8,0.1,1.2,0.3
	c0.3,0.2,0.6,0.4,0.8,0.8l0.1-0.9h1.1v7.1c0,0.8-0.2,1.6-0.8,2.2c-0.6,0.6-1.4,0.9-2.2,0.8c-0.4,0-0.8-0.1-1.1-0.1
	c-0.4-0.1-0.7-0.2-1.1-0.4l0.3-1c0.3,0.1,0.6,0.2,0.9,0.3c0.3,0.1,0.7,0.1,1,0.1c0.5,0,1-0.1,1.3-0.5c0.3-0.4,0.4-0.9,0.4-1.4v-0.7
	c-0.2,0.3-0.5,0.5-0.8,0.7c-1.1,0.5-2.4,0.2-3.2-0.7c-0.5-0.7-0.8-1.6-0.8-2.5L32,130.1z M33.3,130.3c0,0.6,0.1,1.2,0.5,1.7
	c0.3,0.4,0.8,0.7,1.4,0.7c0.4,0,0.7-0.1,1-0.3c0.3-0.2,0.5-0.5,0.7-0.8v-3.3c-0.2-0.3-0.4-0.5-0.7-0.7c-0.3-0.2-0.6-0.3-1-0.3
	c-0.6,0-1.1,0.3-1.4,0.8c-0.3,0.6-0.5,1.3-0.5,2L33.3,130.3z M40.5,132.8l1.1-0.2v-5.1l-1.1-0.2v-0.8h2.4v6.1l1.1,0.2v0.8h-3.5
	L40.5,132.8z M42.9,124.6h-1.3v-1.3h1.3V124.6z M45.6,132.8l1.1-0.2v-5.1l-1.1-0.2v-0.8h2.2l0.1,1.1c0.2-0.4,0.5-0.7,0.9-0.9
	c0.4-0.2,0.8-0.3,1.2-0.3c0.7,0,1.3,0.2,1.8,0.7c0.5,0.6,0.7,1.3,0.6,2.1v3.5l1.1,0.2v0.8h-3.5v-0.8l1.1-0.2v-3.5
	c0-0.5-0.1-1-0.4-1.3c-0.3-0.3-0.7-0.4-1.1-0.4c-0.4,0-0.7,0.1-1,0.3c-0.3,0.2-0.5,0.4-0.7,0.7v4.2l1.1,0.2v0.8h-3.5L45.6,132.8z
	 M58.5,133.7c-0.9,0-1.8-0.3-2.4-1c-0.6-0.7-0.9-1.6-0.9-2.6v-0.3c0-0.9,0.3-1.8,0.9-2.5c0.5-0.6,1.3-1,2.2-1
	c0.8-0.1,1.6,0.3,2.2,0.9c0.5,0.7,0.8,1.5,0.8,2.3v0.8h-4.7c0,0.6,0.2,1.2,0.5,1.7c0.3,0.4,0.9,0.7,1.4,0.7c0.4,0,0.8-0.1,1.2-0.2
	c0.3-0.1,0.6-0.3,0.9-0.5l0.5,0.9c-0.3,0.3-0.6,0.5-1,0.6C59.6,133.6,59,133.7,58.5,133.7 M58.3,127.3c-0.4,0-0.9,0.2-1.1,0.6
	c-0.3,0.4-0.5,0.9-0.6,1.4h3.3v-0.2c0-0.5-0.1-0.9-0.4-1.3C59.2,127.4,58.8,127.2,58.3,127.3 M74.3,127.3l-0.6,0.1l-2.7,7.3
	c-0.2,0.5-0.4,0.9-0.8,1.3c-0.4,0.4-0.9,0.6-1.4,0.5c-0.1,0-0.3,0-0.4,0c-0.1,0-0.2,0-0.4-0.1l0.1-1h0.6c0.3,0,0.5-0.1,0.7-0.4
	c0.2-0.3,0.3-0.5,0.4-0.8l0.3-0.7l-2.4-6.1l-0.7-0.1v-0.8H70v0.8l-0.8,0.1l1.2,3.5l0.2,0.9l1.5-4.4l-0.8-0.1v-0.8h2.9L74.3,127.3z
	 M75.9,130c0-0.9,0.3-1.9,0.9-2.6c1.2-1.3,3.2-1.4,4.5-0.2c0.1,0.1,0.1,0.1,0.2,0.2c0.6,0.7,0.9,1.7,0.9,2.6v0.1
	c0,0.9-0.3,1.9-0.9,2.6c-1.2,1.3-3.2,1.4-4.5,0.2c-0.1-0.1-0.1-0.1-0.2-0.2c-0.6-0.7-0.9-1.7-0.9-2.6V130z M77.2,130.1
	c0,0.6,0.1,1.3,0.5,1.9c0.5,0.8,1.6,1,2.4,0.4c0.2-0.1,0.3-0.3,0.4-0.4c0.3-0.6,0.5-1.2,0.5-1.9V130c0-0.7-0.1-1.3-0.5-1.9
	c-0.5-0.8-1.6-1-2.4-0.4c-0.2,0.1-0.3,0.3-0.4,0.4c-0.3,0.6-0.5,1.2-0.5,1.9L77.2,130.1z M89.4,132.5c-0.2,0.4-0.5,0.7-0.9,0.9
	c-0.4,0.2-0.8,0.3-1.2,0.3c-0.7,0-1.4-0.2-1.8-0.8c-0.5-0.7-0.7-1.5-0.7-2.3v-3.2l-0.8-0.2v-0.8h2.1v4.2c-0.1,0.5,0.1,1.1,0.3,1.6
	c0.3,0.3,0.7,0.5,1.1,0.4c0.4,0,0.8-0.1,1.2-0.3c0.3-0.2,0.5-0.5,0.7-0.8v-4.1l-1-0.2v-0.8h2.3v6.1l0.8,0.2v0.8h-2L89.4,132.5z
	 M93.4,127.3v-0.8h2.3l0.1,1c0.2-0.3,0.4-0.6,0.8-0.9c0.3-0.2,0.6-0.3,1-0.3h0.3c0.1,0,0.2,0,0.3,0.1l-0.2,1.2h-0.7
	c-0.6,0-1.2,0.3-1.4,0.9v4.1l1.1,0.2v0.8h-3.4v-0.8l1.1-0.2v-5.1L93.4,127.3z M103.8,127.4v-1h1.1v-0.9c0-0.6,0.2-1.3,0.6-1.8
	c0.4-0.4,1.1-0.7,1.7-0.6h0.5c0.2,0,0.3,0.1,0.5,0.1l-0.2,1h-0.6c-0.3,0-0.6,0.1-0.9,0.3c-0.2,0.3-0.3,0.6-0.3,1v0.9h1.5v1h-1.5v5.2
	l1.1,0.2v0.8h-3.5v-0.8l1.1-0.2v-5.2L103.8,127.4z M114.7,132.5c-0.4,0.8-1.2,1.2-2.1,1.2c-0.7,0-1.4-0.2-1.8-0.8
	c-0.5-0.7-0.7-1.5-0.7-2.3v-3.2l-0.8-0.2v-0.8h2.1v4.2c-0.1,0.5,0.1,1.1,0.3,1.6c0.3,0.3,0.6,0.4,1,0.4c0.4,0,0.8-0.1,1.2-0.3
	c0.3-0.2,0.5-0.5,0.7-0.8v-4.1l-1-0.2v-0.8h2.3v6.1l0.8,0.2v0.8h-2L114.7,132.5z M120.9,124.7v1.7h1.3v1h-1.3v4.3
	c0,0.3,0.1,0.5,0.2,0.7c0.1,0.1,0.3,0.2,0.6,0.2c0.1,0,0.3,0,0.4,0l0.4-0.1l0.2,0.9c-0.2,0.1-0.3,0.2-0.5,0.2
	c-0.2,0.1-0.5,0.1-0.7,0.1c-0.5,0-0.9-0.2-1.3-0.5c-0.3-0.4-0.5-1-0.5-1.5v-4.3h-1.1v-1h1.1v-1.7L120.9,124.7z M129.5,132.5
	c-0.2,0.4-0.5,0.7-0.9,0.9c-0.4,0.2-0.8,0.3-1.2,0.3c-0.7,0-1.4-0.2-1.8-0.8c-0.5-0.7-0.7-1.5-0.6-2.3v-3.2l-0.8-0.2v-0.8h2.1v4.2
	c-0.1,0.5,0.1,1.1,0.3,1.6c0.3,0.3,0.7,0.5,1.1,0.4c0.4,0,0.8-0.1,1.1-0.3c0.3-0.2,0.5-0.5,0.7-0.8v-4.1l-1-0.2v-0.8h2.3v6.1
	l0.8,0.2v0.8h-2L129.5,132.5z M133.4,127.3v-0.8h2.2l0.1,1c0.2-0.3,0.4-0.6,0.8-0.9c0.3-0.2,0.6-0.3,1-0.3h0.3c0.1,0,0.2,0,0.2,0.1
	l-0.2,1.2h-0.7c-0.3,0-0.6,0.1-0.9,0.2c-0.2,0.2-0.4,0.4-0.5,0.7v4.1l1.1,0.2v0.8h-3.5v-0.8l1.1-0.2v-5.1L133.4,127.3z M143,133.7
	c-0.9,0-1.8-0.3-2.4-1c-0.6-0.7-0.9-1.6-0.9-2.6v-0.3c0-0.9,0.3-1.8,0.9-2.5c0.5-0.6,1.3-1,2.1-1c0.8-0.1,1.6,0.3,2.2,0.9
	c0.5,0.7,0.8,1.5,0.7,2.3v0.8h-4.6c0,0.6,0.2,1.2,0.5,1.7c0.3,0.4,0.9,0.7,1.4,0.7c0.4,0,0.8-0.1,1.2-0.2c0.3-0.1,0.6-0.3,0.9-0.5
	l0.5,0.9c-0.3,0.3-0.6,0.5-1,0.6C144.1,133.6,143.5,133.7,143,133.7 M142.8,127.3c-0.4,0-0.9,0.2-1.1,0.6c-0.3,0.4-0.5,0.9-0.6,1.4
	h3.3v-0.2c0-0.5-0.1-0.9-0.4-1.3C143.7,127.4,143.3,127.2,142.8,127.3 M147.5,125.6c0-0.6,0.2-1.2,0.6-1.7c0.8-0.9,2.2-0.9,3.1-0.1
	c0,0,0.1,0.1,0.1,0.1c0.4,0.4,0.7,1,0.6,1.7c0,0.6-0.2,1.2-0.6,1.7c-0.4,0.4-1,0.7-1.6,0.7c-0.6,0-1.2-0.2-1.6-0.7
	C147.7,126.9,147.5,126.3,147.5,125.6 M147.9,125.6c0,0.5,0.2,1,0.5,1.4c0.7,0.7,1.8,0.8,2.5,0.1c0,0,0.1-0.1,0.1-0.1
	c0.4-0.4,0.6-0.9,0.5-1.4c0-0.5-0.2-1-0.5-1.4c-0.7-0.7-1.8-0.8-2.5-0.1c0,0-0.1,0.1-0.1,0.1C148.1,124.6,147.9,125.1,147.9,125.6
	 M149.3,125.9v1.1h-0.5v-2.7h0.9c0.3,0,0.5,0.1,0.8,0.2c0.2,0.1,0.3,0.4,0.3,0.6c0,0.1,0,0.2-0.1,0.3c-0.1,0.1-0.2,0.2-0.3,0.2
	c0.1,0.1,0.2,0.1,0.3,0.3c0.1,0.1,0.1,0.3,0.1,0.4v0.2c0,0.1,0,0.2,0,0.2c0,0.1,0,0.1,0,0.2h-0.5c0-0.1,0-0.1,0-0.2
	c0-0.1,0-0.2,0-0.3v-0.2c0-0.2-0.1-0.4-0.3-0.4c0,0-0.1,0-0.1,0L149.3,125.9z M149.3,125.5h0.5c0.1,0,0.2,0,0.3-0.1
	c0.1-0.1,0.1-0.2,0.1-0.3c0-0.1,0-0.2-0.1-0.3c-0.1-0.1-0.3-0.1-0.4-0.1h-0.4V125.5z"/>
<path class="st1" d="M4.9,132.8l1.1-0.2v-5.1l-1.1-0.2v-0.8h2.4v6.1l1.1,0.2v0.8H4.9V132.8z M7.2,124.6H5.9v-1.3h1.3V124.6z"/>
<path class="st1" d="M4.9,132.8l1.1-0.2v-5.1l-1.1-0.2v-0.8h2.4v6.1l1.1,0.2v0.8H4.9V132.8z M7.2,124.6H5.9v-1.3h1.3V124.6z"/>
<g>
	<path class="st0" d="M152.9,53.2v-6h-2.2v-0.8h5.4v0.8h-2.2v6H152.9z"/>
	<path class="st0" d="M156.9,53.2v-6.8h1.3l1.6,4.8c0.1,0.4,0.3,0.8,0.3,1c0.1-0.2,0.2-0.6,0.4-1.1l1.6-4.7h1.2v6.8h-0.9v-5.6
		l-2,5.6h-0.8l-2-5.7v5.7H156.9z"/>
</g>
</svg>
