<svg id="isg-slogan-vertical" xmlns="http://www.w3.org/2000/svg" width="143.4" height="121" viewBox="0 0 143.4 121">
  <path id="Shape" d="M3.794,94V81.178h6.53V51.024H3.794V38.2H25.676V81.178h6.441V94ZM16.5,23.876,10.941,31.3l-7.5-5.217,5.382-7.781L0,15.476,2.647,6.72l9.088,2.741V0h9.529V9.462L30.353,6.72,33,15.476l-8.824,2.83,5.382,7.781-7.5,5.217Z" fill="#29497b"/>
  <path id="Shape-2" data-name="Shape" d="M.7,53.977V37.97H11.866l.79,6.047a25.053,25.053,0,0,0,5.186.534c6.416,0,6.416-3.735,6.416-4.98,0-2.579-3.164-3.735-8.262-5.513C9.229,31.746,0,28.634,0,17.429,0,6.847,8.262,0,21.006,0c9.668,0,15.029,2.312,15.029,2.312V18.407H25.049l-.879-6.046a18.946,18.946,0,0,0-3.163-.267c-4.131,0-6.592,1.69-6.592,4.447,0,2.311,3.163,3.557,8.349,5.424,6.767,2.4,16.084,5.691,16,16.273C38.759,49.442,30.322,57,17.842,57,7.383,57,.7,53.977.7,53.977ZM43.681,29.7c0-17.7,12.041-29.612,30.059-29.612C83.936.089,90,2.49,90,2.49V19.919H79.014l-.967-6.4a21.789,21.789,0,0,0-4.834-.534c-9.229,0-14.854,5.869-14.854,15.917,0,9.693,5.009,15.117,14.063,15.117a23.8,23.8,0,0,0,4.395-.445V36.192L70.4,35.213V25.254H90v28.1s-6.592,3.558-18.9,3.558C54.229,56.912,43.681,46.507,43.681,29.7Z" transform="translate(38 37)" fill="#29497b"/>
  <path id="Shape-3" data-name="Shape" d="M56.068,11.977h-.351a.654.654,0,0,1-.351-.089L55.454,11h.526a.661.661,0,0,0,.615-.356,2.708,2.708,0,0,0,.351-.715l.263-.625L55.1,3.856l-.614-.09V3.052h2.632v.714l-.7.09L57.472,6.98l.175.8,1.316-3.927-.7-.09V3.052h2.545l.087.714-.527.09L58,10.371a3.152,3.152,0,0,1-.7,1.16,1.426,1.426,0,0,1-1,.469A1.128,1.128,0,0,1,56.068,11.977Zm-29.57,0c-.351,0-.7-.089-.966-.089a4.194,4.194,0,0,1-.965-.357l.263-.892.79.267A2.939,2.939,0,0,0,26.5,11a1.334,1.334,0,0,0,1.14-.446A2.069,2.069,0,0,0,27.99,9.3V8.675a2.374,2.374,0,0,1-.7.625,2.4,2.4,0,0,1-2.808-.625,3.955,3.955,0,0,1-.7-2.232V6.265a4.156,4.156,0,0,1,.7-2.5,2.163,2.163,0,0,1,1.843-.981,2.308,2.308,0,0,1,1.053.267,1.815,1.815,0,0,1,.7.714l.087-.8h.966V9.3a2.713,2.713,0,0,1-.7,1.964,2.342,2.342,0,0,1-1.663.731A2.12,2.12,0,0,1,26.5,11.977ZM63.263,8.764l-.175-.178A3.709,3.709,0,0,1,62.3,6.265V6.176a3.7,3.7,0,0,1,.789-2.32,2.751,2.751,0,0,1,3.949-.179l.175.179A3.705,3.705,0,0,1,68,6.176v.089a3.71,3.71,0,0,1-.79,2.321,2.788,2.788,0,0,1-2.069.929A2.734,2.734,0,0,1,63.263,8.764Zm55.805-.178a3.536,3.536,0,0,1-.79-2.321V6a3.467,3.467,0,0,1,.79-2.232,2.452,2.452,0,0,1,1.842-.892,2.381,2.381,0,0,1,1.931.8,2.986,2.986,0,0,1,.614,2.053v.714h-4.036a3.046,3.046,0,0,0,.438,1.517,1.668,1.668,0,0,0,1.229.626,4.345,4.345,0,0,0,1.053-.179,3.509,3.509,0,0,0,.789-.446l.439.8a1.819,1.819,0,0,1-.877.535,5.885,5.885,0,0,1-1.316.178A2.7,2.7,0,0,1,119.068,8.586Zm-13.162.178a2.908,2.908,0,0,1-.526-2.053V3.856l-.7-.179V2.963h1.842V6.711a2.768,2.768,0,0,0,.264,1.428,1.032,1.032,0,0,0,.965.356,1.751,1.751,0,0,0,.966-.267,2.4,2.4,0,0,0,.614-.714V3.856l-.877-.179V2.963h2.018V8.407l.7.179V9.3h-1.754l-.088-.893a1.738,1.738,0,0,1-.789.8,2.308,2.308,0,0,1-1.053.267A1.79,1.79,0,0,1,105.907,8.764Zm-4.738.267a2.432,2.432,0,0,1-.438-1.338V3.856h-.966V2.963h.966V1.445h1.053V2.963h1.14v.893h-1.14V7.693a1.3,1.3,0,0,0,.176.625.733.733,0,0,0,.526.178h.351l.351-.089.175.8c-.175.089-.264.178-.439.178a1.47,1.47,0,0,1-.614.089A1.828,1.828,0,0,1,101.168,9.031Zm-8.248-.267a3.513,3.513,0,0,1-.615-2.053V3.856l-.7-.179V2.963h1.843V6.711A2.758,2.758,0,0,0,93.71,8.14a1.118,1.118,0,0,0,.878.356,2.308,2.308,0,0,0,1.053-.267,2.39,2.39,0,0,0,.615-.714V3.856l-.878-.179V2.963H97.4V8.407l.7.179V9.3H96.342V8.407A1.963,1.963,0,0,1,94.5,9.478,1.79,1.79,0,0,1,92.921,8.764Zm-22.2,0a3.518,3.518,0,0,1-.614-2.053V3.856l-.7-.179V2.963h1.842V6.711a2.768,2.768,0,0,0,.264,1.428,1.032,1.032,0,0,0,.965.356,2.308,2.308,0,0,0,1.053-.267,2.4,2.4,0,0,0,.614-.714V3.856l-.877-.179V2.963h2.018V8.407l.7.179V9.3H74.231l-.088-.893a1.738,1.738,0,0,1-.789.8,2.308,2.308,0,0,1-1.053.267A1.791,1.791,0,0,1,70.721,8.764Zm-25.8-.178a3.535,3.535,0,0,1-.789-2.321V6a3.466,3.466,0,0,1,.789-2.232,2.5,2.5,0,0,1,1.931-.892,2.381,2.381,0,0,1,1.931.8,3.619,3.619,0,0,1,.7,2.053v.714H45.364A3.046,3.046,0,0,0,45.8,7.961a1.668,1.668,0,0,0,1.228.626,4.345,4.345,0,0,0,1.053-.179,3.489,3.489,0,0,0,.789-.446l.439.8a1.82,1.82,0,0,1-.877.535,7.56,7.56,0,0,1-1.4.178A2.7,2.7,0,0,1,44.924,8.586Zm-5.352.892V8.764l.966-.178V5.462A1.669,1.669,0,0,0,40.187,4.3a1.31,1.31,0,0,0-.966-.356,1.468,1.468,0,0,0-.877.267,2.083,2.083,0,0,0-.614.625V8.586l.965.178v.714H35.624l.088-.8.965-.179V3.945l-.965-.179V3.052h1.93l.088.982a1.738,1.738,0,0,1,.789-.8,2.308,2.308,0,0,1,1.053-.267,2.093,2.093,0,0,1,1.579.625,2.376,2.376,0,0,1,.527,1.875V8.586l.966.178v.714ZM17.2,8.942A1.984,1.984,0,0,1,16.672,7.6a1.722,1.722,0,0,1,.789-1.428,4.019,4.019,0,0,1,2.018-.536h1.229V4.927a1.154,1.154,0,0,0-.351-.893,1.3,1.3,0,0,0-.965-.357,2.4,2.4,0,0,0-.79.089l-.526.268-.088.714H17.11V3.5a2.936,2.936,0,0,1,1.053-.536,3.361,3.361,0,0,1,1.316-.178,3.123,3.123,0,0,1,1.755.536,2.1,2.1,0,0,1,.7,1.606V8.5l.439.09V9.3l-1.755.089a3.917,3.917,0,0,0-.088-.446V8.5a5.723,5.723,0,0,1-.789.715,2.308,2.308,0,0,1-1.053.267A2.354,2.354,0,0,1,17.2,8.942Zm95.465.446V8.675l.965-.179V3.945l-.877-.179V3.052h1.93l.088.893a2.878,2.878,0,0,1,.7-.8,1.463,1.463,0,0,1,.877-.267h.264c.087,0,.175,0,.175.089l-.175,1.071H116a2.532,2.532,0,0,0-.789.178,1.6,1.6,0,0,0-.438.625V8.5l.965.179v.714Zm-25.885,0V8.675l.966-.179V3.856h-.966V2.963h.966v-.8A2.7,2.7,0,0,1,88.27.553,1.838,1.838,0,0,1,89.762.017H90.2c.176,0,.263.089.438.089L90.464,1h-.526a1.394,1.394,0,0,0-.789.268,1.525,1.525,0,0,0-.264.892v.8H90.2v.893H88.884V8.5l.966.179v.714Zm-8.95,0V8.675l.966-.179V3.945l-1.141-.179V3.052h2.018l.088.893a2.878,2.878,0,0,1,.7-.8,1.466,1.466,0,0,1,.878-.267H81.6a.32.32,0,0,1,.264.089l-.175,1.071h-.615a1.241,1.241,0,0,0-1.229.8V8.5l.966.179v.714Zm-46.592,0V8.675L32.2,8.5V3.945l-.966-.179V3.052h2.106V8.5l.966.179v.714Zm-19.215,0V8.675l.965-.179V5.551a2.558,2.558,0,0,0-.351-1.339,1.033,1.033,0,0,0-.965-.356A1.4,1.4,0,0,0,10.7,4.3a1.665,1.665,0,0,0-.438,1.071V8.5l.965.179v.714H8.16V8.675L9.125,8.5V5.551a2.549,2.549,0,0,0-.351-1.339,1.4,1.4,0,0,0-.965-.446,3.072,3.072,0,0,0-.878.179,1.188,1.188,0,0,0-.527.625V8.407l.965.179V9.3H4.388V8.675L5.352,8.5V3.945l-.965-.179V3.052H6.405l.087.8a2.088,2.088,0,0,1,.79-.715,2.4,2.4,0,0,1,1.14-.267,2.058,2.058,0,0,1,1.053.267,1.779,1.779,0,0,1,.7.893,1.946,1.946,0,0,1,.79-.893,2.462,2.462,0,0,1,1.14-.356A1.639,1.639,0,0,1,13.6,3.5a2.907,2.907,0,0,1,.526,2.053V8.5l.966.179v.714ZM0,9.389V8.675L.965,8.5V3.945L0,3.766V3.052H2.106V8.5l.965.179v.714ZM125.649,3.766a2.119,2.119,0,0,1-.526-1.517,2.446,2.446,0,0,1,.526-1.516,1.909,1.909,0,0,1,2.72-.09l.087.09a1.8,1.8,0,0,1,.527,1.516,2.447,2.447,0,0,1-.527,1.517,2.05,2.05,0,0,1-1.4.625A1.733,1.733,0,0,1,125.649,3.766ZM32.2,1.356V.2h1.14v1.16Zm-31.324,0V.2h1.14v1.16Z" transform="translate(4 109)" fill="#75787b"/>
  <path id="Shape-4" data-name="Shape" d="M0,9V8.3l.943-.175V3.67L0,3.495V2.8H2.057v5.33L3,8.3V9ZM.857,1.136V0H1.971V1.136Z" transform="translate(4 109)" fill="#75787b"/>
  <path id="Shape-5" data-name="Shape" d="M0,9V8.3l.943-.175V3.67L0,3.495V2.8H2.057v5.33L3,8.3V9ZM.857,1.136V0H1.971V1.136Z" transform="translate(4 109)" fill="#75787b"/>
  <g id="Group" transform="translate(132 41)">
    <path id="Path" d="M1.886,5.95V.7H0V0H4.629V.7H2.743V5.95Z" transform="translate(0.6 0.35)" fill="#29497b"/>
    <path id="Path-2" data-name="Path" d="M0,5.95V0H1.114L2.486,4.2a8.225,8.225,0,0,1,.257.875c.086-.175.171-.525.343-.962L4.457,0H5.486V5.95H4.714V1.05L3,5.95H2.314L.6.962V5.95Z" transform="translate(5.914 0.35)" fill="#29497b"/>
  </g>
</svg>
