<svg xmlns="http://www.w3.org/2000/svg" width="32" height="32" viewBox="0 0 32 32">
  <g id="Grupo_2" data-name="Grupo 2" transform="translate(-670 -3939)">
    <path id="Path" d="M0,32H32V0H0Z" transform="translate(670 3939)" fill="#005fa3"/>
    <path id="Path-2" data-name="Path" d="M10.338,10.933H7.023V5.745C7.023,4.508,7,2.917,5.3,2.917c-1.725,0-1.988,1.348-1.988,2.74v5.276H0V.265H3.178V1.724h.046A3.483,3.483,0,0,1,6.361,0c3.357,0,3.977,2.209,3.977,5.082Z" transform="translate(683.662 3952.052)" fill="#fff"/>
    <path id="Path-3" data-name="Path" d="M1.924,3.846A1.923,1.923,0,1,1,3.845,1.923,1.923,1.923,0,0,1,1.924,3.846Z" transform="translate(678 3947.014)" fill="#fff"/>
    <path id="Path-4" data-name="Path" d="M3.319,10.668H0V0H3.319Z" transform="translate(678.263 3952.317)" fill="#fff"/>
  </g>
</svg>
