<svg id="_logo-brq-color" xmlns="http://www.w3.org/2000/svg" xmlns:xlink="http://www.w3.org/1999/xlink" width="589" height="307" viewBox="0 0 589 307">
  <defs>
    <linearGradient id="linear-gradient" x1="0.195" y1="0.675" x2="0.985" y2="0.221" gradientUnits="objectBoundingBox">
      <stop offset="0"/>
      <stop offset="1" stop-color="#fff"/>
    </linearGradient>
    <linearGradient id="linear-gradient-2" x1="0.282" y1="0.675" x2="0.834" y2="0.232" xlink:href="#linear-gradient"/>
  </defs>
  <g id="Asset_1" data-name="Asset 1">
    <path id="Path" d="M165.52,197.98A31.75,31.75,0,0,0,197.2,166.4V85.25a31.74,31.74,0,0,0-31.67-31.57H85.24A31.74,31.74,0,0,0,53.57,85.24H0A85,85,0,0,1,85.24,0h80.29a85.18,85.18,0,0,1,85.34,85.24V166.4a85.36,85.36,0,0,1-85.35,85.35Z" transform="translate(337.64 0.1)" fill="#009cde"/>
    <path id="Path-2" data-name="Path" d="M165.52,197.98A31.75,31.75,0,0,0,197.2,166.4V85.25a31.74,31.74,0,0,0-31.67-31.57H85.24A31.74,31.74,0,0,0,53.57,85.24H0A85,85,0,0,1,85.24,0h80.29a85.18,85.18,0,0,1,85.34,85.24V166.4a85.36,85.36,0,0,1-85.35,85.35Z" transform="translate(337.64 0.1)" opacity="0.27" fill="url(#linear-gradient)" style="mix-blend-mode: multiply;isolation: isolate"/>
    <path id="Path-3" data-name="Path" d="M143.259,111.84c-38.37-1.3-57.22-19.34-75.79-37.13-10.92-10.45-21.68-20.75-39-20.75a27,27,0,1,1,0-53.92c38.8,0,57.41,17.83,76.3,35.92,10.55,10.1,21.24,20.34,38.52,21.86Z" transform="translate(445.251 191.27)" fill="#ed8b00"/>
    <path id="Path-4" data-name="Path" d="M0,0H110.63a85.34,85.34,0,0,1,60.35,145.7,86.369,86.369,0,0,1-18.38,14c7.5,5.86,14.75,11.9,21.82,18.21,22.9,20.43,43.34,43.2,64.24,71.44H169.91a363.362,363.362,0,0,0-31.2-31.52c-20.12-18-42.79-33.94-70.57-50.76v-.06a26.79,26.79,0,0,1,14.25-49.73c4.24.07,8.8,0,13.36-.12,4.21-.09,8.41-.17,12.81-.15.68,0,1.35-.08,2-.08a31.57,31.57,0,1,0,0-63.14H0Z" transform="translate(195.22 0)" fill="#009cde"/>
    <path id="Path-5" data-name="Path" d="M0,0H110.63a85.34,85.34,0,0,1,60.35,145.7,86.369,86.369,0,0,1-18.38,14c7.5,5.86,14.75,11.9,21.82,18.21,22.9,20.43,43.34,43.2,64.24,71.44H169.91a363.362,363.362,0,0,0-31.2-31.52c-20.12-18-42.79-33.94-70.57-50.76v-.06a26.79,26.79,0,0,1,14.25-49.73c4.24.07,8.8,0,13.36-.12,4.21-.09,8.41-.17,12.81-.15.68,0,1.35-.08,2-.08a31.57,31.57,0,1,0,0-63.14H0Z" transform="translate(195.22 0)" opacity="0.27" fill="url(#linear-gradient-2)" style="mix-blend-mode: multiply;isolation: isolate"/>
    <path id="Shape" d="M197.386,249.35h-118A79.37,79.37,0,0,1,23.246,113.86q2.659-2.65,5.54-5A72.21,72.21,0,0,1,91,0h133.57V53.78h-.38V249.35Z" transform="translate(0.004)" fill="#009cde"/>
    <path id="Shape-2" data-name="Shape" d="M1.83,23.49C.74,23.49,0,22.88,0,22.21V1.29C0,.61.74,0,1.83,0H7.52c4.24,0,7.549,2,7.549,7.36v8.77c0,5.37-3.309,7.36-7.549,7.36Z" transform="translate(20.75 283.15)" fill="#ed8b00"/>
    <path id="Path-6" data-name="Path" d="M0,1.29C0,.39,1,0,2.08,0S4.17.39,4.17,1.29V22.18c0,.86-1.06,1.31-2.09,1.31S0,23.04,0,22.18Z" transform="translate(52.25 283.15)" fill="#ed8b00"/>
    <path id="Path-7" data-name="Path" d="M7.5,3.7c-2.15,0-3.38,1.18-3.38,3.69v9c0,2.5,1.23,3.69,3.35,3.69s3.37-1.19,3.37-3.69v-1.9H8.24c-.84,0-1.29-.8-1.29-1.64s.45-1.64,1.29-1.64H13.7a1.29,1.29,0,0,1,1.37,1.32v3.83c0,5.36-3.31,7.36-7.55,7.36S0,21.72,0,16.36v-9C0,2,3.31,0,7.39,0c4.43,0,7.68,2.32,7.68,6.17,0,1.61-.71,2-2.09,2-1.12,0-2.06-.33-2.09-1.32C10.74,5.37,10.23,3.7,7.5,3.7Z" transform="translate(72.93 283.12)" fill="#ed8b00"/>
    <path id="Path-8" data-name="Path" d="M0,1.29C0,.39,1,0,2.09,0S4.18.39,4.18,1.29V22.18c0,.86-1.06,1.31-2.09,1.31S0,23.04,0,22.18Z" transform="translate(104.11 283.15)" fill="#ed8b00"/>
    <path id="Path-9" data-name="Path" d="M14.91,0c.9,0,1.32,1,1.32,1.87s-.48,1.89-1.32,1.89H10.22V22.18c0,.86-1.06,1.31-2.09,1.31s-2.09-.45-2.09-1.31V3.76H1.32C.48,3.76,0,2.89,0,1.87S.42,0,1.32,0Z" transform="translate(123.46 283.15)" fill="#ed8b00"/>
    <path id="Shape-3" data-name="Shape" d="M13.85,22.85l-1.17-4.28H5.32L4.1,22.85c-.16.61-.71.83-1.41.83-1.18,0-2.69-.7-2.69-1.73a1.308,1.308,0,0,1,.07-.32L6.27,1.41C6.56.41,7.75,0,8.94,0s2.41.45,2.69,1.41L17.84,21.63a1.438,1.438,0,0,1,.06.32c0,1-1.51,1.73-2.63,1.73C14.56,23.68,14.01,23.46,13.85,22.85Z" transform="translate(151.32 282.96)" fill="#ed8b00"/>
    <path id="Path-10" data-name="Path" d="M1.83,23.49C.9,23.49,0,23.04,0,22.18V1.29C0,.39,1,0,2.09,0S4.18.39,4.18,1.29V19.85h7.84c.84,0,1.25.9,1.25,1.83s-.41,1.83-1.25,1.83Z" transform="translate(184.29 283.15)" fill="#ed8b00"/>
    <path id="Path-11" data-name="Path" d="M10.89,17.43c0-4.82-10.32-3.35-10.32-11C.57,1.64,4.69,0,8.38,0c1.9,0,6.11.45,6.11,2.57,0,.74-.52,2.22-1.67,2.22-1,0-1.74-1.22-4.44-1.22-2.31,0-3.63.93-3.63,2.47,0,4,10.32,2.61,10.32,10.93,0,4.59-3.22,7-7.65,7-4.21,0-7.42-2.12-7.42-4,0-.9.83-2.25,1.83-2.25,1.32,0,2.18,2.47,5.46,2.47C9.22,20.22,10.89,19.36,10.89,17.43Z" transform="translate(230.83 282.95)" fill="#ed8b00"/>
    <path id="Shape-4" data-name="Shape" d="M0,16.36v-9C0,2,3.27,0,7.51,0s7.56,2,7.56,7.36v9c0,5.359-3.309,7.36-7.56,7.36S0,21.72,0,16.36Z" transform="translate(261.36 283.12)" fill="#ed8b00"/>
    <path id="Path-12" data-name="Path" d="M1.83,23.49C.9,23.49,0,23.04,0,22.18V1.29C0,.39,1,0,2.09,0S4.18.39,4.18,1.29V19.85h7.84c.83,0,1.25.9,1.25,1.83s-.42,1.83-1.25,1.83Z" transform="translate(292.85 283.15)" fill="#ed8b00"/>
    <path id="Path-13" data-name="Path" d="M11.25,1.29c0-.9,1-1.29,2.09-1.29s2.09.39,2.09,1.29v15c0,5.36-3.41,7.36-7.72,7.36S0,21.65,0,16.29v-15C0,.39,1,0,2.09,0S4.18.39,4.18,1.29v15c0,2.5,1.32,3.69,3.53,3.69s3.54-1.13,3.54-3.65Z" transform="translate(320.75 283.15)" fill="#ed8b00"/>
    <path id="Path-14" data-name="Path" d="M14.91,0c.9,0,1.32,1,1.32,1.87s-.49,1.89-1.32,1.89H10.22V22.18c0,.86-1.06,1.31-2.09,1.31s-2.09-.45-2.09-1.31V3.76H1.32C.48,3.76,0,2.89,0,1.87S.42,0,1.32,0Z" transform="translate(351.21 283.15)" fill="#ed8b00"/>
    <path id="Path-15" data-name="Path" d="M0,1.29C0,.39,1,0,2.09,0S4.18.39,4.18,1.29V22.18c0,.86-1.06,1.31-2.09,1.31S0,23.04,0,22.18Z" transform="translate(382.57 283.15)" fill="#ed8b00"/>
    <path id="Shape-5" data-name="Shape" d="M0,16.36v-9C0,2,3.28,0,7.52,0s7.56,2,7.56,7.36v9c0,5.359-3.31,7.36-7.56,7.36S0,21.72,0,16.36Z" transform="translate(403.2 283.12)" fill="#ed8b00"/>
    <path id="Path-16" data-name="Path" d="M11.08,22.18,4.18,9.26V22.18c0,.86-1.06,1.31-2.09,1.31S0,23.04,0,22.18V1.32C0,.42,1,0,2.09,0,3.6,0,4.21.32,5.2,2.22l6.21,12V1.29c0-.9,1-1.29,2.09-1.29s2.08.39,2.08,1.29V22.18c0,.86-1.06,1.31-2.08,1.31A2.53,2.53,0,0,1,11.08,22.18Z" transform="translate(434.7 283.15)" fill="#ed8b00"/>
    <path id="Path-17" data-name="Path" d="M10.89,17.43c0-4.82-10.31-3.35-10.31-11C.58,1.64,4.69,0,8.39,0c1.89,0,6.1.45,6.1,2.57,0,.74-.51,2.22-1.67,2.22-1,0-1.74-1.22-4.43-1.22-2.32,0-3.64.93-3.64,2.47,0,4,10.32,2.61,10.32,10.93,0,4.59-3.21,7-7.65,7-4.21,0-7.42-2.12-7.42-4,0-.9.83-2.25,1.83-2.25,1.32,0,2.19,2.47,5.46,2.47C9.22,20.22,10.89,19.36,10.89,17.43Z" transform="translate(465.84 282.95)" fill="#ed8b00"/>
  </g>
</svg>
