<?xml version="1.0" encoding="utf-8"?>
<!-- Generator: Adobe Illustrator 25.0.0, SVG Export Plug-In . SVG Version: 6.00 Build 0)  -->
<svg version="1.1" id="Layer_1" xmlns="http://www.w3.org/2000/svg" xmlns:xlink="http://www.w3.org/1999/xlink" x="0px" y="0px"
	 viewBox="0 0 704 704" style="enable-background:new 0 0 704 704;" xml:space="preserve">
<style type="text/css">
	.st0{fill:#ED8102;}
	.st1{fill:#035398;}
	.st2{fill:#04A69F;}
	.st3{fill:#8A1F7A;}
</style>
<g>
	<path class="st0" d="M600.9,103.1l-0.2,0.2l-19,88.3l-88.3,19l-0.1,0.1c78.1,78.1,78.1,204.7,0,282.8l0.2,0.2l19,88.3l88.3,19
		l0.1,0.1C738.4,463.4,738.4,240.6,600.9,103.1z"/>
	<path class="st1" d="M103.1,103.1l0.2,0.2l88.3,19l19,88.3l0.1,0.1c78.1-78.1,204.7-78.1,282.8,0l0.2-0.2l88.3-19l19-88.3l0.1-0.1
		C463.4-34.4,240.6-34.4,103.1,103.1z"/>
	<path class="st2" d="M103.1,600.9l0.2-0.2l19-88.3l88.3-19l0.1-0.1c-78.1-78.1-78.1-204.7,0-282.8l-0.2-0.2l-19-88.3l-88.3-19
		l-0.1-0.1C-34.4,240.6-34.4,463.4,103.1,600.9z"/>
	<path class="st3" d="M600.9,600.9l-0.2-0.2l-88.3-19l-19-88.3l-0.1-0.1c-78.1,78.1-204.7,78.1-282.8,0l-0.2,0.2l-88.3,19l-19,88.3
		l-0.1,0.1C240.6,738.4,463.4,738.4,600.9,600.9z"/>
</g>
</svg>
