<svg xmlns="http://www.w3.org/2000/svg" width="32" height="32" viewBox="0 0 32 32">
  <g id="Grupo_4" data-name="Grupo 4" transform="translate(-542 -3939)">
    <path id="_icon-twitter" d="M32,32H0V0H32V32ZM8,21.027H8A9.31,9.31,0,0,0,13.032,22.5a8.949,8.949,0,0,0,6.934-3.043,9.661,9.661,0,0,0,2.406-6.3c0-.146,0-.29-.01-.425A6.631,6.631,0,0,0,24,11.038a6.608,6.608,0,0,1-1.885.517,3.3,3.3,0,0,0,1.444-1.816,6.575,6.575,0,0,1-2.085.8,3.286,3.286,0,0,0-5.594,2.993A9.349,9.349,0,0,1,9.114,10.1a3.283,3.283,0,0,0,1.016,4.383,3.279,3.279,0,0,1-1.488-.411v.042a3.29,3.29,0,0,0,2.633,3.218,3.315,3.315,0,0,1-.865.114,3.349,3.349,0,0,1-.618-.058,3.283,3.283,0,0,0,3.067,2.279,6.547,6.547,0,0,1-4.077,1.4A6.641,6.641,0,0,1,8,21.027Z" transform="translate(542 3939)" fill="#005fa3"/>
  </g>
</svg>
