<?xml version="1.0" encoding="utf-8"?>
<!-- Generator: Adobe Illustrator 25.0.0, SVG Export Plug-In . SVG Version: 6.00 Build 0)  -->
<svg version="1.1" id="Layer_1" xmlns="http://www.w3.org/2000/svg" xmlns:xlink="http://www.w3.org/1999/xlink" x="0px" y="0px"
	 viewBox="0 0 1100 1100" style="enable-background:new 0 0 1100 1100;" xml:space="preserve">
<style type="text/css">
	.st0{fill:#C5C5C5;}
	.st1{fill:#5B5B5B;}
	.st2{enable-background:new    ;}
	.st3{fill:#222222;}
	.st4{fill:#475A76;}
	.st5{fill:#9FCB83;}
	.st6{fill:#FFFFFF;}
	.st7{fill:#0092DC;}
	.st8{fill:#FF8000;}
</style>
<g>
	<circle class="st0" cx="550" cy="550" r="550"/>
</g>
<g>
	<circle class="st1" cx="550" cy="550" r="484"/>
</g>
<g class="st2">
	<path d="M276.3,104.7l-6.7,4.1l-1.1-1.7l15.4-9.4l1.1,1.7l-6.7,4.1l10.6,17.3l-2,1.2L276.3,104.7z"/>
</g>
<g class="st2">
	<path d="M293.9,99.1c0.6-1,1.6-1.9,3-2.7l1.1,1.9l-0.5,0.2c-1.5,0.9-2.5,2.1-2.8,3.5c-0.3,1.4,0,3,1,4.7l4.3,7.5l-2,1.1l-8.4-14.6
		l1.9-1.1l1.6,2.9C293,101.2,293.3,100.1,293.9,99.1z"/>
</g>
<g class="st2">
	<path d="M311.2,90.6c1.6,0.4,2.8,1.6,3.8,3.5l4.9,9.2l-1.9,1l-1.2-2.3c0,1-0.4,2-1,2.9c-0.6,0.9-1.6,1.7-2.8,2.3
		c-1.7,0.9-3.2,1.2-4.6,0.9s-2.4-1.1-3.1-2.4c-0.7-1.3-0.8-2.5-0.3-3.8c0.5-1.3,1.8-2.4,3.7-3.5l4.7-2.5l-0.5-0.9
		c-0.7-1.3-1.6-2.1-2.6-2.4c-1.1-0.3-2.3-0.1-3.7,0.7c-0.9,0.5-1.8,1.1-2.5,1.9c-0.7,0.8-1.2,1.6-1.5,2.5l-1.7-1
		c0.4-1,1.1-2,1.9-2.9c0.9-0.9,1.9-1.7,3.1-2.3C307.9,90.5,309.6,90.2,311.2,90.6z M315,103.1c0.5-0.9,0.7-2,0.6-3.2l-1.3-2.4
		l-4.7,2.5c-2.5,1.4-3.3,2.9-2.4,4.7c0.5,0.9,1.2,1.4,2.1,1.5c0.9,0.1,2-0.1,3.2-0.7C313.6,104.8,314.4,104.1,315,103.1z"/>
</g>
<g class="st2">
	<path d="M331,81.1c1.7,0.6,3,1.9,4,4l4.2,8.8l-2,1l-4.1-8.6c-0.8-1.6-1.7-2.6-2.9-3c-1.2-0.4-2.5-0.3-4,0.4
		c-1.6,0.8-2.7,1.9-3.2,3.3c-0.5,1.4-0.3,3,0.5,4.7l3.8,7.9l-2,1L318,85.4l2-0.9l1.3,2.8c0.1-1.2,0.5-2.3,1.3-3.3
		c0.7-1,1.8-1.8,3.1-2.4C327.6,80.7,329.4,80.6,331,81.1z"/>
</g>
<g class="st2">
	<path d="M345,90.8c-1.3,0.1-2.4,0.1-3.3-0.2l0.2-2.1c0.9,0.2,1.9,0.3,3,0.2c1.1-0.1,2.2-0.4,3.3-0.9c1.4-0.6,2.4-1.3,2.8-2
		c0.5-0.7,0.5-1.5,0.2-2.3c-0.2-0.6-0.6-0.9-1.1-1.1c-0.5-0.2-1.1-0.2-1.7-0.1c-0.6,0.1-1.5,0.3-2.5,0.5c-1.4,0.3-2.5,0.5-3.3,0.6
		c-0.9,0.1-1.7,0-2.5-0.4c-0.8-0.4-1.4-1-1.9-2.1c-0.6-1.3-0.5-2.6,0.2-3.9c0.7-1.3,2-2.4,3.9-3.2c1-0.4,2-0.7,3.2-0.9
		c1.1-0.2,2.1-0.2,2.9,0l-0.2,2.1c-1.7-0.3-3.4-0.1-5.1,0.7c-1.3,0.6-2.2,1.3-2.7,2c-0.5,0.8-0.5,1.5-0.2,2.3c0.3,0.6,0.7,1,1.2,1.2
		c0.5,0.2,1.1,0.2,1.8,0.2c0.6-0.1,1.5-0.3,2.6-0.5c1.3-0.3,2.4-0.5,3.3-0.6c0.8-0.1,1.7,0,2.4,0.4c0.8,0.3,1.4,1,1.8,2
		c0.6,1.3,0.5,2.7-0.3,3.9c-0.8,1.3-2.2,2.4-4.2,3.2C347.6,90.3,346.3,90.6,345,90.8z"/>
</g>
<g class="st2">
	<path d="M354,64.4c-0.3,0.7-0.2,1.5,0.2,2.5l0.7,1.8l4.8-2l0.7,1.8l-4.7,1.9l5.6,13.8l-2.1,0.9l-5.6-13.8l-2.8,1.1l-0.7-1.8
		l2.8-1.1l-0.8-1.9c-0.6-1.4-0.6-2.7-0.1-3.9c0.5-1.2,1.5-2.1,3-2.7c0.6-0.2,1.2-0.4,1.8-0.4c0.6-0.1,1.2,0,1.7,0.2l-0.1,1.9
		c-0.8-0.3-1.7-0.2-2.6,0.2C354.9,63.2,354.3,63.7,354,64.4z"/>
</g>
<g class="st2">
	<path d="M370.6,79.6c-1.5-0.2-2.8-0.8-4-1.8c-1.2-1-2-2.2-2.6-3.8c-0.6-1.5-0.7-3.1-0.5-4.5c0.2-1.5,0.9-2.8,1.8-3.9
		c1-1.1,2.2-2,3.7-2.6c1.5-0.6,3-0.7,4.5-0.5c1.5,0.2,2.8,0.8,3.9,1.8c1.1,1,2,2.2,2.6,3.8c0.6,1.5,0.7,3.1,0.5,4.5
		c-0.2,1.5-0.8,2.8-1.8,3.9c-1,1.1-2.2,2-3.7,2.6C373.6,79.7,372.1,79.9,370.6,79.6z M377.1,75.3c0.7-0.8,1.1-1.8,1.3-3
		c0.1-1.1,0-2.3-0.4-3.5c-0.4-1.2-1.1-2.2-2-2.9c-0.9-0.8-1.8-1.2-2.9-1.4c-1.1-0.2-2.2-0.1-3.3,0.4c-1.1,0.4-2,1-2.7,1.9
		c-0.7,0.8-1.1,1.8-1.3,3c-0.2,1.1,0,2.3,0.4,3.5c0.4,1.2,1.1,2.2,2,2.9c0.9,0.8,1.8,1.2,2.9,1.4c1.1,0.2,2.2,0.1,3.3-0.4
		C375.5,76.8,376.4,76.2,377.1,75.3z"/>
</g>
<g class="st2">
	<path d="M386.5,57.8c0.8-0.9,2-1.6,3.4-2.1l0.7,2.1l-0.5,0.1c-1.7,0.6-2.8,1.5-3.4,2.9c-0.6,1.4-0.6,3,0,4.8l2.7,8.1l-2.2,0.7
		l-5.4-16l2.1-0.7L385,61C385.1,59.8,385.6,58.7,386.5,57.8z"/>
</g>
<g class="st2">
	<path d="M419.7,48.9c1.5,0.8,2.6,2.4,3.2,4.7l2.7,9.4l-2.2,0.6l-2.6-9.2c-0.5-1.7-1.3-2.8-2.3-3.5c-1.1-0.7-2.3-0.8-3.8-0.3
		c-1.7,0.5-2.9,1.4-3.5,2.7c-0.7,1.3-0.7,2.9-0.2,4.7l2.4,8.5l-2.2,0.6l-2.6-9.2c-0.5-1.7-1.3-2.8-2.3-3.5c-1.1-0.6-2.3-0.8-3.8-0.3
		c-1.7,0.5-2.8,1.4-3.5,2.7c-0.7,1.3-0.8,2.9-0.2,4.7l2.4,8.5l-2.2,0.6l-4.6-16.2l2.1-0.6l0.8,3c0.3-1.1,0.9-2.1,1.7-3
		c0.9-0.8,2-1.4,3.3-1.8c1.4-0.4,2.6-0.4,3.8-0.1c1.2,0.3,2.1,0.9,3,1.9c0.3-1.2,0.9-2.3,1.9-3.2c0.9-0.9,2.1-1.6,3.6-2
		C416.5,47.9,418.2,48,419.7,48.9z"/>
</g>
<g class="st2">
	<path d="M438.6,44.3c1.4,0.8,2.3,2.3,2.8,4.4l2.3,10.2l-2.1,0.5l-0.6-2.6c-0.3,1-0.9,1.8-1.7,2.5c-0.9,0.7-2,1.2-3.3,1.5
		c-1.8,0.4-3.4,0.3-4.7-0.3c-1.3-0.6-2.1-1.7-2.4-3.1c-0.3-1.4-0.1-2.6,0.7-3.7s2.3-1.9,4.5-2.4l5.2-1.2l-0.2-1
		c-0.3-1.4-1-2.4-1.9-3c-1-0.6-2.2-0.7-3.7-0.3c-1,0.2-2,0.6-2.9,1.2c-0.9,0.6-1.6,1.2-2.1,2l-1.4-1.4c0.7-0.9,1.5-1.7,2.6-2.3
		c1.1-0.7,2.3-1.1,3.5-1.4C435.5,43.3,437.2,43.5,438.6,44.3z M439,57.3c0.8-0.8,1.2-1.8,1.4-2.9l-0.6-2.7l-5.1,1.2
		c-2.8,0.6-4,1.9-3.5,3.9c0.2,1,0.8,1.6,1.6,2c0.9,0.4,1.9,0.4,3.2,0.1C437.2,58.6,438.2,58.1,439,57.3z"/>
</g>
<g class="st2">
	<path d="M452,56.2c-1.4-0.5-2.6-1.3-3.6-2.4c-1-1.1-1.6-2.5-1.9-4.1c-0.3-1.6-0.2-3.1,0.3-4.5c0.5-1.4,1.3-2.6,2.5-3.6
		c1.2-1,2.5-1.6,4.2-1.9c1.4-0.3,2.8-0.2,4,0.1c1.2,0.3,2.3,1,3.1,1.9l-1.4,1.5c-0.7-0.7-1.5-1.2-2.4-1.4c-0.9-0.2-1.9-0.3-2.9-0.1
		c-1.2,0.2-2.2,0.7-3.1,1.4c-0.9,0.7-1.4,1.6-1.8,2.7c-0.3,1.1-0.4,2.3-0.2,3.5c0.2,1.3,0.7,2.4,1.4,3.2c0.7,0.9,1.6,1.5,2.7,1.8
		s2.2,0.4,3.4,0.2c1-0.2,1.9-0.6,2.6-1.1c0.8-0.6,1.3-1.3,1.7-2.2l1.9,0.8c-0.4,1.2-1.2,2.2-2.2,2.9c-1,0.8-2.2,1.3-3.6,1.6
		C454.9,56.7,453.4,56.6,452,56.2z M453.7,63.2l0.3-1.3c0.7,0.3,1.4,0.3,2.2,0.2c0.6-0.1,1.1-0.3,1.4-0.7c0.3-0.3,0.4-0.7,0.3-1.2
		c-0.1-0.4-0.3-0.8-0.7-1c-0.4-0.2-0.9-0.2-1.5-0.1l-0.7,0.1l0.2-3l1.4-0.3l-0.1,1.9c0.9-0.1,1.6,0.1,2.1,0.4c0.5,0.4,0.9,0.9,1,1.6
		c0.2,0.8,0,1.6-0.6,2.2c-0.6,0.6-1.4,1-2.4,1.2C455.5,63.6,454.6,63.5,453.7,63.2z"/>
</g>
<g class="st2">
	<path d="M475.7,37.5c1.3,0.9,2.2,2.4,2.5,4.6l1.6,10.3l-2.2,0.3l-0.4-2.6c-0.4,0.9-1,1.7-1.9,2.4c-0.9,0.6-2,1.1-3.4,1.3
		c-1.9,0.3-3.4,0.1-4.6-0.6c-1.2-0.7-2-1.8-2.2-3.3c-0.2-1.4,0.1-2.6,1-3.7c0.9-1,2.5-1.7,4.7-2l5.3-0.8l-0.2-1
		c-0.2-1.4-0.8-2.5-1.7-3.1c-0.9-0.6-2.1-0.8-3.7-0.6c-1.1,0.2-2,0.5-3,1c-0.9,0.5-1.7,1.1-2.3,1.8l-1.3-1.5
		c0.7-0.8,1.7-1.6,2.8-2.1c1.1-0.6,2.3-1,3.6-1.2C472.6,36.3,474.4,36.6,475.7,37.5z M470.9,33.5c-0.4-0.2-0.9-0.4-1.4-0.7
		c-0.4-0.3-0.8-0.4-1-0.5c-0.2-0.1-0.5-0.1-0.7-0.1c-0.5,0.1-0.8,0.3-1.1,0.7c-0.2,0.4-0.3,0.9-0.2,1.6l-1.4,0.2
		c-0.1-1.1,0-1.9,0.4-2.7c0.4-0.7,1-1.1,1.9-1.3c0.5-0.1,0.9,0,1.3,0.1c0.4,0.2,0.9,0.4,1.4,0.8c0.4,0.2,0.7,0.4,1,0.5
		c0.3,0.1,0.5,0.1,0.8,0.1c0.5-0.1,0.8-0.3,1.1-0.7c0.2-0.4,0.3-0.9,0.3-1.5l1.4-0.2c0.1,1,0,1.9-0.4,2.6c-0.4,0.7-1,1.1-1.9,1.2
		C471.8,33.7,471.3,33.7,470.9,33.5z M475.1,50.6c0.8-0.7,1.4-1.7,1.6-2.8l-0.4-2.7l-5.2,0.8c-2.8,0.4-4.1,1.6-3.8,3.6
		c0.1,1,0.6,1.7,1.5,2.1c0.8,0.4,1.9,0.6,3.2,0.4C473.2,51.7,474.3,51.3,475.1,50.6z"/>
</g>
<g class="st2">
	<path d="M488.1,50.3c-1.4-0.6-2.5-1.5-3.4-2.7c-0.9-1.2-1.4-2.6-1.6-4.3c-0.2-1.6,0-3.1,0.6-4.5s1.5-2.5,2.7-3.4
		c1.2-0.9,2.6-1.4,4.2-1.6c1.6-0.2,3.1,0,4.5,0.6c1.4,0.6,2.5,1.5,3.4,2.7c0.9,1.2,1.4,2.6,1.6,4.3c0.2,1.6,0,3.1-0.6,4.5
		c-0.6,1.4-1.5,2.5-2.7,3.4c-1.2,0.9-2.6,1.4-4.2,1.6C491,51.1,489.5,50.9,488.1,50.3z M495.5,47.8c0.9-0.6,1.5-1.5,1.9-2.6
		c0.4-1.1,0.6-2.2,0.4-3.5c-0.1-1.3-0.5-2.4-1.2-3.3c-0.6-0.9-1.5-1.6-2.5-2.1c-1-0.4-2.1-0.6-3.3-0.4c-1.2,0.1-2.2,0.5-3.1,1.2
		c-0.9,0.6-1.5,1.5-2,2.6s-0.6,2.2-0.4,3.5c0.1,1.3,0.5,2.4,1.2,3.3c0.7,0.9,1.5,1.6,2.5,2c1,0.4,2.1,0.6,3.3,0.4
		C493.5,48.8,494.6,48.4,495.5,47.8z"/>
</g>
<g class="st2">
	<path d="M513,26.3l9.1-0.5c2.4-0.1,4.5,0.2,6.3,1.1c1.9,0.9,3.3,2.1,4.4,3.7c1.1,1.6,1.7,3.5,1.8,5.7s-0.3,4.1-1.2,5.9
		c-0.9,1.7-2.3,3.1-4,4.2c-1.8,1-3.8,1.6-6.2,1.7l-9.1,0.5L513,26.3z M523,46.2c2-0.1,3.7-0.6,5.1-1.4c1.4-0.9,2.5-2,3.3-3.4
		c0.7-1.4,1.1-3,1-4.8c-0.1-1.8-0.6-3.4-1.5-4.7c-0.9-1.3-2.1-2.3-3.6-3.1c-1.5-0.7-3.2-1-5.2-0.9l-6.6,0.3l0.9,18.3L523,46.2z"/>
</g>
<g class="st2">
	<path d="M539.5,26.6c-0.3-0.3-0.5-0.7-0.5-1.1c0-0.4,0.1-0.8,0.5-1.1c0.3-0.3,0.7-0.5,1.2-0.5c0.5,0,0.9,0.1,1.2,0.4
		c0.3,0.3,0.5,0.7,0.5,1.1c0,0.5-0.1,0.9-0.5,1.2c-0.3,0.3-0.7,0.5-1.2,0.5C540.3,27.1,539.9,27,539.5,26.6z M539.6,30.8l2.3,0
		l0.3,16.8l-2.3,0L539.6,30.8z"/>
</g>
<g class="st2">
	<path d="M564.2,30.9L564,45.6c0,2.9-0.8,5-2.2,6.3c-1.4,1.4-3.5,2-6.3,2c-1.6,0-3-0.3-4.4-0.7c-1.4-0.5-2.5-1.1-3.4-1.9l1.2-1.7
		c0.8,0.7,1.8,1.3,2.9,1.7c1.2,0.4,2.4,0.6,3.7,0.7c2.1,0,3.7-0.4,4.7-1.4s1.5-2.5,1.6-4.6l0-2.1c-0.7,1.1-1.7,1.9-2.8,2.4
		c-1.1,0.5-2.4,0.8-3.8,0.8c-1.6,0-3-0.4-4.3-1.1c-1.3-0.7-2.3-1.7-3-3c-0.7-1.3-1.1-2.7-1-4.3c0-1.6,0.4-3,1.2-4.2
		c0.8-1.2,1.8-2.2,3.1-2.8c1.3-0.7,2.7-1,4.3-1c1.4,0,2.7,0.3,3.9,0.9c1.1,0.6,2.1,1.4,2.8,2.5l0-3.2L564.2,30.9z M558.7,44.2
		c1-0.5,1.8-1.2,2.3-2.2c0.6-0.9,0.8-2,0.9-3.2c0-1.2-0.2-2.3-0.8-3.2c-0.5-0.9-1.3-1.7-2.2-2.2c-1-0.5-2.1-0.8-3.3-0.8
		c-1.2,0-2.3,0.2-3.3,0.7c-1,0.5-1.7,1.2-2.3,2.1c-0.6,0.9-0.8,2-0.9,3.2c0,1.2,0.2,2.3,0.8,3.2c0.5,0.9,1.3,1.7,2.2,2.2
		c1,0.5,2.1,0.8,3.3,0.8C556.6,44.9,557.7,44.7,558.7,44.2z"/>
</g>
<g class="st2">
	<path d="M570.9,31.2l2.3,0.1l-0.7,16.8l-2.3-0.1L570.9,31.2z M571,27c-0.3-0.3-0.4-0.7-0.4-1.2c0-0.4,0.2-0.8,0.5-1.1
		c0.3-0.3,0.7-0.4,1.2-0.4s0.9,0.2,1.2,0.5c0.3,0.3,0.5,0.7,0.4,1.1c0,0.5-0.2,0.9-0.5,1.2c-0.3,0.3-0.7,0.4-1.2,0.4
		S571.3,27.3,571,27z"/>
</g>
<g class="st2">
	<path d="M587.5,47.9c-0.5,0.4-1,0.6-1.6,0.8c-0.6,0.2-1.3,0.2-2,0.2c-1.6-0.1-2.8-0.6-3.6-1.5c-0.8-0.9-1.1-2.1-1-3.7l0.7-10.2
		l-3-0.2l0.1-1.9l3,0.2l0.2-3.7l2.3,0.1l-0.2,3.7l5.1,0.3l-0.1,1.9l-5.1-0.3l-0.7,10c-0.1,1,0.1,1.8,0.6,2.3
		c0.5,0.6,1.2,0.9,2.1,0.9c0.5,0,0.9,0,1.4-0.1c0.4-0.1,0.8-0.3,1.2-0.6L587.5,47.9z"/>
</g>
<g class="st2">
	<path d="M603.9,35.1c1.1,1.2,1.5,2.9,1.3,5.1l-1,10.4l-2.2-0.2l0.3-2.6c-0.6,0.8-1.4,1.4-2.5,1.8c-1,0.4-2.2,0.5-3.6,0.4
		c-1.9-0.2-3.3-0.8-4.3-1.8c-1-1-1.5-2.2-1.3-3.7c0.1-1.4,0.8-2.5,1.9-3.3c1.1-0.8,2.8-1,5.1-0.8l5.3,0.5l0.1-1
		c0.1-1.5-0.2-2.6-0.9-3.4c-0.7-0.8-1.9-1.3-3.4-1.5c-1.1-0.1-2.1,0-3.1,0.2c-1,0.3-1.9,0.7-2.7,1.2l-0.9-1.8c0.9-0.6,2-1.1,3.2-1.4
		c1.2-0.3,2.5-0.3,3.8-0.2C601.2,33.1,602.9,33.9,603.9,35.1z M600.1,47.6c1-0.5,1.7-1.3,2.3-2.3l0.3-2.8l-5.3-0.5
		c-2.9-0.3-4.4,0.6-4.6,2.6c-0.1,1,0.2,1.8,0.9,2.4c0.7,0.6,1.7,1,3.1,1.2C598,48.3,599.1,48.1,600.1,47.6z"/>
</g>
<g class="st2">
	<path d="M612.9,27.7l2.2,0.3l-2.8,23.5l-2.2-0.3L612.9,27.7z"/>
</g>
<g class="st2">
	<path d="M645.9,32.6l-4,23.5l-2.2-0.4l0.6-3.3c-0.9,1-1.9,1.7-3.1,2.1c-1.2,0.4-2.5,0.5-3.9,0.2c-1.6-0.3-2.9-0.9-4.1-1.8
		s-2-2.1-2.5-3.5s-0.6-2.9-0.3-4.6c0.3-1.6,0.9-3.1,1.8-4.2c0.9-1.2,2.1-2,3.5-2.5c1.4-0.5,2.9-0.6,4.4-0.3c1.4,0.2,2.5,0.7,3.5,1.5
		c1,0.7,1.7,1.7,2.3,2.9l1.7-10L645.9,32.6z M637.1,52.5c1-0.4,1.9-1,2.6-1.9c0.7-0.9,1.2-2,1.4-3.3c0.2-1.3,0.1-2.4-0.2-3.5
		c-0.4-1.1-1-2-1.8-2.7c-0.8-0.7-1.9-1.2-3-1.3c-1.2-0.2-2.3-0.1-3.3,0.3c-1,0.4-1.9,1-2.6,1.9c-0.7,0.9-1.2,2-1.4,3.3
		c-0.2,1.3-0.1,2.4,0.2,3.5c0.4,1.1,1,2,1.8,2.7c0.8,0.7,1.9,1.2,3,1.4C634.9,53,636,52.9,637.1,52.5z"/>
</g>
<g class="st2">
	<path d="M650.4,56.8c-1.1-1-1.9-2.2-2.4-3.6c-0.5-1.4-0.5-2.9-0.2-4.6c0.3-1.6,1-3,2-4.1s2.2-1.9,3.6-2.3c1.4-0.4,2.9-0.5,4.5-0.2
		s2.9,1,4.1,2c1.1,1,1.9,2.2,2.4,3.6c0.5,1.4,0.5,2.9,0.2,4.5c-0.3,1.6-1,3-2,4.1c-1,1.1-2.2,1.9-3.6,2.4c-1.4,0.5-2.9,0.5-4.5,0.2
		C652.9,58.4,651.6,57.8,650.4,56.8z M658.2,56.7c1-0.3,1.9-0.9,2.7-1.8c0.7-0.9,1.2-1.9,1.5-3.2c0.3-1.3,0.2-2.4-0.1-3.5
		s-0.9-2-1.7-2.7c-0.8-0.7-1.8-1.2-3-1.5c-1.2-0.2-2.3-0.2-3.3,0.1c-1,0.3-1.9,0.9-2.7,1.8s-1.2,1.9-1.5,3.2
		c-0.3,1.3-0.2,2.4,0.1,3.5c0.3,1.1,0.9,2,1.7,2.7c0.8,0.7,1.8,1.2,3,1.5C656.1,57,657.2,57,658.2,56.7z"/>
</g>
<g class="st2">
	<path d="M667.9,61.2c-1.1-0.7-1.9-1.4-2.5-2.2l1.4-1.5c0.5,0.7,1.3,1.4,2.3,2c1,0.6,2,1,3.1,1.3c1.5,0.4,2.7,0.4,3.5,0.1
		c0.8-0.3,1.4-0.9,1.6-1.7c0.1-0.6,0.1-1.1-0.2-1.6c-0.3-0.4-0.7-0.8-1.3-1.1c-0.6-0.3-1.3-0.7-2.3-1.1c-1.3-0.6-2.3-1.1-3-1.6
		c-0.7-0.5-1.3-1.1-1.7-1.8c-0.4-0.8-0.5-1.7-0.2-2.8c0.3-1.4,1.2-2.3,2.5-2.9c1.4-0.6,3-0.6,5.1-0.1c1.1,0.3,2.1,0.7,3.1,1.2
		s1.8,1.1,2.3,1.8l-1.4,1.5c-1.1-1.3-2.6-2.1-4.5-2.6c-1.4-0.3-2.5-0.4-3.4,0s-1.4,0.9-1.6,1.7c-0.2,0.6-0.1,1.2,0.2,1.6
		c0.3,0.5,0.7,0.9,1.3,1.2c0.6,0.3,1.3,0.7,2.3,1.2c1.2,0.6,2.2,1.1,3,1.5c0.7,0.4,1.3,1,1.7,1.8c0.4,0.7,0.5,1.6,0.2,2.7
		c-0.4,1.4-1.2,2.4-2.6,3c-1.4,0.5-3.2,0.6-5.3,0C670.2,62.3,669,61.8,667.9,61.2z"/>
</g>
<g class="st2">
	<path d="M715.3,51.7l-6.7,21.5l-1.9-0.6l-8.4-21.8l-5.5,17.4l-2.3-0.7l6.7-21.5l1.9,0.6l8.4,21.8l5.5-17.4L715.3,51.7z"/>
</g>
<g class="st2">
	<path d="M731.1,73l-13.2-4.8c-0.5,1.7-0.3,3.2,0.5,4.7s2,2.5,3.8,3.1c1,0.4,1.9,0.5,2.9,0.5c0.9-0.1,1.8-0.3,2.7-0.8l0.7,1.8
		c-1,0.6-2.1,0.9-3.3,1c-1.2,0.1-2.5-0.1-3.7-0.6c-1.6-0.6-2.9-1.5-3.9-2.6c-1-1.1-1.6-2.5-1.9-3.9c-0.3-1.5-0.1-3,0.4-4.5
		s1.4-2.8,2.5-3.8c1.1-1,2.4-1.6,3.8-1.9c1.4-0.3,2.9-0.1,4.3,0.4c1.5,0.5,2.7,1.3,3.6,2.4c0.9,1.1,1.5,2.4,1.7,3.8
		c0.2,1.5,0.1,3-0.5,4.5L731.1,73z M721.6,63.4c-1.4,0.6-2.4,1.7-3.1,3.2l11.2,4c0.4-1.6,0.3-3.1-0.4-4.4c-0.7-1.3-1.8-2.3-3.3-2.9
		C724.4,62.8,723,62.8,721.6,63.4z"/>
</g>
<g class="st2">
	<path d="M753.4,72.1l-5.6,13.7c-1.1,2.6-2.5,4.3-4.3,5.1s-4,0.6-6.6-0.5c-1.4-0.6-2.7-1.4-3.8-2.3c-1.1-1-1.9-2-2.4-3l1.7-1.2
		c0.5,1,1.2,1.9,2.1,2.7c0.9,0.8,2,1.5,3.2,1.9c2,0.8,3.6,0.9,4.9,0.4c1.3-0.5,2.3-1.8,3.1-3.7l0.8-2c-1.1,0.7-2.2,1.1-3.5,1.2
		c-1.3,0.1-2.5-0.1-3.8-0.7c-1.5-0.6-2.7-1.5-3.6-2.6c-0.9-1.1-1.5-2.4-1.7-3.8c-0.2-1.4,0-2.9,0.6-4.3c0.6-1.5,1.5-2.6,2.6-3.5
		s2.4-1.4,3.9-1.5c1.4-0.1,2.9,0.1,4.4,0.7c1.3,0.5,2.4,1.3,3.3,2.3s1.4,2.1,1.6,3.4l1.2-3L753.4,72.1z M743.5,82.5
		c1.1-0.1,2.1-0.5,2.9-1.2c0.9-0.7,1.5-1.5,2-2.7c0.5-1.1,0.6-2.2,0.4-3.3c-0.2-1.1-0.6-2-1.3-2.9c-0.7-0.8-1.6-1.5-2.8-2
		c-1.1-0.5-2.2-0.6-3.3-0.5c-1.1,0.1-2.1,0.5-2.9,1.2c-0.9,0.7-1.5,1.5-2,2.7c-0.5,1.1-0.6,2.2-0.5,3.3c0.1,1.1,0.6,2,1.3,2.9
		c0.7,0.9,1.6,1.5,2.7,2S742.4,82.6,743.5,82.5z"/>
</g>
<g class="st2">
	<path d="M755.4,90.3c-0.9-1.2-1.4-2.6-1.5-4.1c-0.1-1.5,0.1-3,0.8-4.5s1.6-2.7,2.9-3.6c1.2-0.9,2.6-1.4,4.1-1.5
		c1.5-0.1,3,0.2,4.4,0.8c1.5,0.7,2.7,1.6,3.5,2.8c0.9,1.2,1.4,2.5,1.5,4s-0.1,3-0.8,4.5c-0.7,1.5-1.6,2.7-2.8,3.6
		c-1.2,0.9-2.6,1.4-4,1.5c-1.5,0.1-3-0.1-4.4-0.8C757.5,92.5,756.3,91.5,755.4,90.3z M763,91.9c1.1-0.1,2.1-0.5,3-1.2
		c0.9-0.7,1.6-1.6,2.2-2.8c0.5-1.2,0.8-2.3,0.7-3.4s-0.4-2.1-1.1-3c-0.6-0.9-1.5-1.6-2.6-2.1c-1.1-0.5-2.2-0.7-3.3-0.6
		c-1.1,0.1-2.1,0.5-3,1.2c-0.9,0.7-1.6,1.6-2.2,2.8c-0.5,1.2-0.8,2.3-0.7,3.5c0.1,1.1,0.4,2.2,1.1,3c0.6,0.9,1.5,1.6,2.6,2.1
		C760.9,91.8,761.9,92,763,91.9z M770.8,72.7l2.8,1.3l-6.4,1.5l-2-0.9L770.8,72.7z"/>
</g>
<g class="st2">
	<path d="M773.4,98.8c-0.8-1.2-1.3-2.6-1.4-4.1c-0.1-1.5,0.3-3,1-4.5c0.7-1.5,1.7-2.6,3-3.4c1.3-0.8,2.6-1.3,4.1-1.3
		c1.5-0.1,3,0.3,4.5,1c1.3,0.7,2.3,1.5,3.1,2.5c0.8,1,1.2,2.2,1.3,3.4l-2,0.3c-0.1-1-0.5-1.9-1-2.6c-0.6-0.8-1.3-1.4-2.2-1.8
		c-1.1-0.5-2.2-0.8-3.3-0.7s-2.1,0.4-3.1,1.1c-0.9,0.7-1.7,1.5-2.3,2.7c-0.6,1.2-0.9,2.3-0.8,3.4c0,1.1,0.4,2.2,1,3.1
		s1.5,1.7,2.6,2.2c0.9,0.5,1.8,0.7,2.8,0.7c0.9,0,1.9-0.2,2.7-0.7l1,1.8c-1.1,0.7-2.3,1-3.5,1c-1.3,0-2.6-0.3-3.8-1
		C775.4,101.1,774.2,100.1,773.4,98.8z"/>
</g>
<g class="st2">
	<path d="M794.5,91.9l2,1.1l-7.9,14.8l-2-1.1L794.5,91.9z M796.5,88.2c-0.1-0.4-0.1-0.8,0.1-1.2c0.2-0.4,0.5-0.6,0.9-0.8
		c0.4-0.1,0.9-0.1,1.3,0.1s0.7,0.5,0.8,1c0.1,0.4,0.1,0.8-0.1,1.2c-0.2,0.4-0.5,0.7-1,0.8c-0.4,0.1-0.9,0.1-1.3-0.1
		C796.9,88.9,796.6,88.6,796.5,88.2z"/>
</g>
<g class="st2">
	<path d="M796.7,111.1c-0.8-1.3-1.1-2.7-1.1-4.2c0-1.5,0.4-3,1.2-4.4c0.8-1.4,1.9-2.5,3.2-3.3c1.3-0.8,2.7-1.1,4.2-1.1
		c1.5,0,2.9,0.4,4.3,1.2c1.4,0.8,2.5,1.8,3.3,3.1c0.8,1.3,1.1,2.7,1.1,4.2c0,1.5-0.4,3-1.2,4.4c-0.8,1.4-1.9,2.5-3.2,3.3
		c-1.3,0.8-2.7,1.1-4.2,1.1c-1.5,0-2.9-0.4-4.4-1.2C798.6,113.5,797.5,112.4,796.7,111.1z M804.2,113.4c1.1,0,2.1-0.3,3.1-0.9
		c1-0.6,1.8-1.5,2.4-2.6c0.6-1.1,1-2.2,1-3.4c0-1.1-0.2-2.2-0.8-3.1c-0.6-0.9-1.3-1.7-2.4-2.3s-2.1-0.9-3.2-0.9
		c-1.1,0-2.1,0.3-3.1,0.9c-1,0.6-1.8,1.5-2.4,2.6c-0.6,1.1-1,2.2-1,3.4c0,1.1,0.2,2.2,0.8,3.1s1.3,1.7,2.4,2.3
		C802,113.1,803.1,113.4,804.2,113.4z"/>
</g>
<g class="st2">
	<path d="M812,120.7c-0.9-1-1.4-1.9-1.7-2.8l1.8-1c0.3,0.8,0.8,1.7,1.5,2.6c0.7,0.9,1.6,1.6,2.5,2.2c1.3,0.8,2.4,1.2,3.3,1.2
		c0.9,0,1.5-0.4,2-1.1c0.3-0.5,0.4-1,0.3-1.6c-0.2-0.5-0.5-1-0.9-1.5c-0.4-0.5-1-1.1-1.8-1.8c-1-0.9-1.8-1.7-2.4-2.4
		c-0.6-0.7-0.9-1.4-1.1-2.3c-0.2-0.9,0.1-1.8,0.7-2.7c0.7-1.2,1.8-1.9,3.3-2c1.5-0.1,3.1,0.3,4.9,1.4c0.9,0.6,1.8,1.3,2.5,2.1
		s1.3,1.6,1.7,2.4l-1.8,1c-0.7-1.5-1.8-2.8-3.5-3.8c-1.2-0.8-2.3-1.1-3.2-1.1c-0.9,0-1.6,0.4-2,1.1c-0.3,0.5-0.4,1.1-0.3,1.6
		c0.1,0.5,0.4,1.1,0.9,1.5c0.4,0.5,1.1,1.1,1.9,1.8c1,0.9,1.8,1.7,2.3,2.4c0.6,0.6,0.9,1.4,1.1,2.2c0.2,0.8,0,1.7-0.6,2.6
		c-0.8,1.2-1.9,1.9-3.4,2s-3.2-0.4-5-1.6C813.8,122.5,812.8,121.7,812,120.7z"/>
</g>
<g>
	<circle class="st3" cx="550" cy="550" r="418"/>
</g>
<g>
	<circle class="st4" cx="550" cy="550" r="200"/>
</g>
<g>
	<circle class="st5" cx="550" cy="550" r="150"/>
</g>
<g>
	<circle class="st6" cx="550" cy="550" r="100"/>
</g>
<g class="st2">
	<path d="M504.8,499v19.6h-1.7l-12.6-15.9v15.9h-2.1V499h1.7l12.6,15.9V499H504.8z"/>
	<path d="M523.6,511.8h-12.3c0.1,1.5,0.7,2.8,1.8,3.7c1.1,0.9,2.4,1.4,4,1.4c0.9,0,1.8-0.2,2.5-0.5c0.8-0.3,1.4-0.8,2-1.4l1.1,1.3
		c-0.7,0.8-1.5,1.4-2.5,1.8c-1,0.4-2.1,0.6-3.2,0.6c-1.5,0-2.9-0.3-4-1c-1.2-0.6-2.1-1.5-2.7-2.7c-0.7-1.1-1-2.4-1-3.9
		c0-1.4,0.3-2.7,0.9-3.9c0.6-1.1,1.5-2,2.6-2.7c1.1-0.6,2.3-1,3.7-1c1.4,0,2.6,0.3,3.7,1s1.9,1.5,2.5,2.6c0.6,1.1,0.9,2.4,0.9,3.9
		L523.6,511.8z M512.9,506.8c-1,0.9-1.5,2.1-1.6,3.5h10.4c-0.1-1.5-0.7-2.6-1.6-3.5c-1-0.9-2.2-1.4-3.6-1.4
		C515,505.4,513.9,505.9,512.9,506.8z"/>
	<path d="M541.3,503.8v12.9c0,2.5-0.6,4.4-1.8,5.6c-1.2,1.2-3.1,1.8-5.5,1.8c-1.4,0-2.7-0.2-3.9-0.6c-1.2-0.4-2.2-1-3-1.7l1-1.5
		c0.7,0.6,1.6,1.1,2.6,1.5c1,0.4,2.1,0.5,3.2,0.5c1.9,0,3.2-0.4,4.1-1.3c0.9-0.9,1.3-2.2,1.3-4v-1.9c-0.6,0.9-1.4,1.6-2.4,2.1
		c-1,0.5-2.1,0.7-3.3,0.7c-1.4,0-2.6-0.3-3.8-0.9c-1.1-0.6-2-1.5-2.7-2.5c-0.6-1.1-1-2.3-1-3.7c0-1.4,0.3-2.6,1-3.7s1.5-1.9,2.6-2.5
		c1.1-0.6,2.4-0.9,3.8-0.9c1.3,0,2.4,0.3,3.4,0.8c1,0.5,1.8,1.2,2.4,2.2v-2.8H541.3z M536.7,515.5c0.9-0.5,1.5-1.1,2-1.9
		c0.5-0.8,0.7-1.8,0.7-2.8c0-1-0.2-2-0.7-2.8c-0.5-0.8-1.1-1.4-2-1.9c-0.8-0.5-1.8-0.7-2.9-0.7c-1.1,0-2,0.2-2.9,0.7
		c-0.8,0.4-1.5,1.1-2,1.9c-0.5,0.8-0.7,1.8-0.7,2.8c0,1,0.2,2,0.7,2.8s1.1,1.5,2,1.9c0.8,0.5,1.8,0.7,2.9,0.7S535.8,516,536.7,515.5
		z"/>
	<path d="M549.1,517.7c-1.1-0.6-2-1.5-2.7-2.7c-0.7-1.1-1-2.4-1-3.9c0-1.4,0.3-2.7,1-3.9c0.7-1.1,1.5-2,2.7-2.7c1.1-0.6,2.4-1,3.8-1
		s2.7,0.3,3.8,1s2,1.5,2.7,2.7c0.6,1.1,1,2.4,1,3.9c0,1.4-0.3,2.7-1,3.9c-0.6,1.1-1.5,2-2.7,2.7c-1.1,0.6-2.4,1-3.8,1
		S550.2,518.4,549.1,517.7z M555.7,516.2c0.8-0.5,1.5-1.2,1.9-2c0.5-0.9,0.7-1.9,0.7-3c0-1.1-0.2-2.1-0.7-3c-0.5-0.9-1.1-1.6-1.9-2
		c-0.8-0.5-1.8-0.7-2.8-0.7c-1,0-2,0.2-2.8,0.7c-0.8,0.5-1.5,1.2-2,2c-0.5,0.9-0.7,1.9-0.7,3c0,1.1,0.2,2.1,0.7,3
		c0.5,0.9,1.1,1.6,2,2c0.8,0.5,1.8,0.7,2.8,0.7C553.9,516.9,554.9,516.7,555.7,516.2z M554.9,498.1h2.7l-4.5,3.5h-2L554.9,498.1z"/>
	<path d="M566.6,517.7c-1.1-0.6-2-1.5-2.7-2.7c-0.7-1.1-1-2.4-1-3.9c0-1.4,0.3-2.7,1-3.9s1.6-2,2.7-2.7s2.5-1,3.9-1
		c1.3,0,2.4,0.2,3.4,0.7c1,0.5,1.8,1.2,2.4,2.2l-1.5,1c-0.5-0.7-1.1-1.3-1.8-1.6c-0.7-0.4-1.6-0.5-2.4-0.5c-1.1,0-2,0.2-2.9,0.7
		c-0.8,0.5-1.5,1.2-2,2c-0.5,0.9-0.7,1.9-0.7,3c0,1.1,0.2,2.1,0.7,3c0.5,0.9,1.1,1.5,2,2c0.8,0.5,1.8,0.7,2.9,0.7
		c0.9,0,1.7-0.2,2.4-0.5c0.7-0.4,1.4-0.9,1.8-1.6l1.5,1c-0.6,1-1.4,1.7-2.4,2.2c-1,0.5-2.1,0.7-3.4,0.7
		C569.1,518.7,567.8,518.4,566.6,517.7z"/>
	<path d="M580.2,500.2c-0.3-0.3-0.4-0.6-0.4-1c0-0.4,0.1-0.7,0.4-1c0.3-0.3,0.6-0.4,1-0.4c0.4,0,0.8,0.1,1,0.4
		c0.3,0.3,0.4,0.6,0.4,1c0,0.4-0.1,0.8-0.4,1c-0.3,0.3-0.6,0.4-1,0.4C580.8,500.6,580.4,500.5,580.2,500.2z M580.2,503.8h2v14.7h-2
		V503.8z"/>
	<path d="M589.9,517.7c-1.1-0.6-2-1.5-2.7-2.7c-0.7-1.1-1-2.4-1-3.9c0-1.4,0.3-2.7,1-3.9c0.7-1.1,1.5-2,2.7-2.7s2.4-1,3.8-1
		s2.7,0.3,3.8,1s2,1.5,2.7,2.7c0.6,1.1,1,2.4,1,3.9c0,1.4-0.3,2.7-1,3.9c-0.6,1.1-1.5,2-2.7,2.7c-1.1,0.6-2.4,1-3.8,1
		S591,518.4,589.9,517.7z M596.6,516.2c0.8-0.5,1.5-1.2,1.9-2c0.5-0.9,0.7-1.9,0.7-3c0-1.1-0.2-2.1-0.7-3c-0.5-0.9-1.1-1.6-1.9-2
		c-0.8-0.5-1.8-0.7-2.8-0.7c-1,0-2,0.2-2.8,0.7c-0.8,0.5-1.5,1.2-2,2c-0.5,0.9-0.7,1.9-0.7,3c0,1.1,0.2,2.1,0.7,3
		c0.5,0.9,1.1,1.6,2,2c0.8,0.5,1.8,0.7,2.8,0.7C594.8,516.9,595.7,516.7,596.6,516.2z"/>
	<path d="M605.8,518.2c-1.1-0.3-1.9-0.8-2.6-1.3l0.9-1.6c0.6,0.5,1.4,0.9,2.3,1.2c0.9,0.3,1.9,0.5,2.9,0.5c1.3,0,2.3-0.2,3-0.6
		c0.6-0.4,1-1,1-1.8c0-0.5-0.2-1-0.5-1.3c-0.4-0.3-0.8-0.5-1.3-0.7c-0.5-0.2-1.3-0.3-2.2-0.5c-1.2-0.2-2.2-0.5-2.9-0.7
		c-0.7-0.2-1.3-0.6-1.9-1.2c-0.5-0.6-0.8-1.3-0.8-2.3c0-1.2,0.5-2.2,1.5-3c1-0.8,2.5-1.2,4.3-1.2c1,0,1.9,0.1,2.9,0.4s1.7,0.6,2.4,1
		l-0.9,1.6c-1.2-0.8-2.7-1.3-4.3-1.3c-1.3,0-2.2,0.2-2.9,0.7c-0.6,0.4-1,1-1,1.8c0,0.6,0.2,1,0.5,1.3c0.4,0.3,0.8,0.6,1.4,0.7
		c0.5,0.2,1.3,0.3,2.2,0.5c1.2,0.2,2.1,0.4,2.8,0.7c0.7,0.2,1.3,0.6,1.8,1.1c0.5,0.5,0.8,1.3,0.8,2.2c0,1.3-0.5,2.3-1.6,3.1
		s-2.6,1.1-4.5,1.1C608,518.7,606.9,518.5,605.8,518.2z"/>
</g>
<g class="st2">
	<path d="M481.9,527.8v20.8H480v-2.9c-0.6,1-1.4,1.7-2.4,2.3s-2.1,0.8-3.3,0.8c-1.4,0-2.6-0.3-3.8-1s-2-1.5-2.6-2.7
		c-0.6-1.1-1-2.4-1-3.9s0.3-2.8,1-3.9c0.6-1.1,1.5-2,2.6-2.6c1.1-0.6,2.4-0.9,3.8-0.9c1.2,0,2.3,0.2,3.2,0.7c1,0.5,1.8,1.2,2.4,2.2
		v-8.8H481.9z M477.3,546.2c0.8-0.5,1.5-1.2,2-2c0.5-0.9,0.7-1.9,0.7-3s-0.2-2.1-0.7-3c-0.5-0.9-1.1-1.6-2-2
		c-0.8-0.5-1.8-0.7-2.8-0.7c-1,0-2,0.2-2.8,0.7c-0.8,0.5-1.5,1.2-2,2c-0.5,0.9-0.7,1.9-0.7,3s0.2,2.1,0.7,3c0.5,0.9,1.1,1.6,2,2
		c0.8,0.5,1.8,0.7,2.8,0.7C475.5,546.9,476.4,546.7,477.3,546.2z"/>
	<path d="M489.6,547.7c-1.1-0.6-2-1.5-2.7-2.7c-0.7-1.1-1-2.4-1-3.9c0-1.4,0.3-2.7,1-3.9c0.7-1.1,1.5-2,2.7-2.7c1.1-0.6,2.4-1,3.8-1
		c1.4,0,2.7,0.3,3.8,1s2,1.5,2.7,2.7c0.6,1.1,1,2.4,1,3.9c0,1.4-0.3,2.7-1,3.9c-0.6,1.1-1.5,2-2.7,2.7c-1.1,0.6-2.4,1-3.8,1
		C492,548.7,490.8,548.4,489.6,547.7z M496.3,546.2c0.8-0.5,1.5-1.2,1.9-2c0.5-0.9,0.7-1.9,0.7-3s-0.2-2.1-0.7-3
		c-0.5-0.9-1.1-1.6-1.9-2c-0.8-0.5-1.8-0.7-2.8-0.7s-2,0.2-2.8,0.7c-0.8,0.5-1.5,1.2-2,2c-0.5,0.9-0.7,1.9-0.7,3s0.2,2.1,0.7,3
		c0.5,0.9,1.1,1.6,2,2c0.8,0.5,1.8,0.7,2.8,0.7S495.4,546.7,496.3,546.2z"/>
	<path d="M505.5,548.2c-1.1-0.3-1.9-0.8-2.6-1.3l0.9-1.6c0.6,0.5,1.4,0.9,2.3,1.2c0.9,0.3,1.9,0.5,2.9,0.5c1.3,0,2.3-0.2,3-0.6
		c0.6-0.4,1-1,1-1.8c0-0.5-0.2-1-0.5-1.3c-0.4-0.3-0.8-0.5-1.3-0.7c-0.5-0.2-1.3-0.3-2.2-0.5c-1.2-0.2-2.2-0.5-2.9-0.7
		s-1.3-0.6-1.9-1.2c-0.5-0.6-0.8-1.3-0.8-2.3c0-1.2,0.5-2.2,1.5-3c1-0.8,2.5-1.2,4.3-1.2c1,0,1.9,0.1,2.9,0.4s1.7,0.6,2.4,1
		l-0.9,1.6c-1.2-0.8-2.7-1.3-4.3-1.3c-1.3,0-2.2,0.2-2.9,0.7s-1,1-1,1.8c0,0.6,0.2,1,0.5,1.3c0.4,0.3,0.8,0.6,1.4,0.7
		c0.5,0.2,1.3,0.3,2.2,0.5c1.2,0.2,2.1,0.4,2.8,0.7c0.7,0.2,1.3,0.6,1.8,1.1s0.8,1.3,0.8,2.2c0,1.3-0.5,2.3-1.6,3.1
		c-1.1,0.8-2.6,1.1-4.5,1.1C507.7,548.7,506.6,548.5,505.5,548.2z"/>
	<path d="M529.7,547.4c-1.6-0.9-2.8-2-3.7-3.6c-0.9-1.5-1.3-3.2-1.3-5.1s0.4-3.6,1.3-5.1c0.9-1.5,2.1-2.7,3.7-3.6
		c1.6-0.9,3.3-1.3,5.3-1.3c1.5,0,2.8,0.2,4,0.7s2.3,1.2,3.1,2.1l-1.3,1.3c-1.5-1.5-3.5-2.3-5.8-2.3c-1.5,0-3,0.4-4.2,1.1
		c-1.3,0.7-2.3,1.7-3,2.9c-0.7,1.2-1.1,2.6-1.1,4.1s0.4,2.9,1.1,4.1c0.7,1.2,1.7,2.2,3,2.9c1.3,0.7,2.7,1.1,4.2,1.1
		c2.4,0,4.3-0.8,5.8-2.4l1.3,1.3c-0.9,0.9-1.9,1.6-3.1,2.1c-1.2,0.5-2.6,0.7-4,0.7C533,548.7,531.3,548.3,529.7,547.4z"/>
	<path d="M546.2,527.8h2v20.8h-2V527.8z"/>
	<path d="M553.7,530.2c-0.3-0.3-0.4-0.6-0.4-1c0-0.4,0.1-0.7,0.4-1c0.3-0.3,0.6-0.4,1-0.4c0.4,0,0.8,0.1,1,0.4s0.4,0.6,0.4,1
		c0,0.4-0.1,0.8-0.4,1s-0.6,0.4-1,0.4C554.3,530.6,553.9,530.5,553.7,530.2z M553.7,533.8h2v14.7h-2V533.8z"/>
	<path d="M574,541.8h-12.3c0.1,1.5,0.7,2.8,1.8,3.7c1.1,0.9,2.4,1.4,4,1.4c0.9,0,1.8-0.2,2.5-0.5c0.8-0.3,1.4-0.8,2-1.4l1.1,1.3
		c-0.7,0.8-1.5,1.4-2.5,1.8c-1,0.4-2.1,0.6-3.2,0.6c-1.5,0-2.9-0.3-4-1c-1.2-0.6-2.1-1.5-2.7-2.7s-1-2.4-1-3.9
		c0-1.4,0.3-2.7,0.9-3.9s1.5-2,2.6-2.7s2.3-1,3.7-1s2.6,0.3,3.7,1c1.1,0.6,1.9,1.5,2.5,2.6c0.6,1.1,0.9,2.4,0.9,3.9L574,541.8z
		 M563.4,536.8c-1,0.9-1.5,2.1-1.6,3.5h10.4c-0.1-1.5-0.7-2.6-1.6-3.5c-1-0.9-2.2-1.4-3.6-1.4C565.5,535.4,564.3,535.9,563.4,536.8z
		"/>
	<path d="M590,535.3c1.1,1.1,1.6,2.6,1.6,4.7v8.5h-2v-8.3c0-1.5-0.4-2.7-1.1-3.5c-0.8-0.8-1.9-1.2-3.3-1.2c-1.6,0-2.8,0.5-3.8,1.4
		s-1.4,2.2-1.4,3.9v7.7h-2v-14.7h1.9v2.7c0.5-0.9,1.3-1.6,2.3-2.1c1-0.5,2.1-0.7,3.3-0.7C587.5,533.7,588.9,534.3,590,535.3z"/>
</g>
<g class="st2">
	<path d="M604.8,547.7c-0.4,0.3-0.8,0.6-1.4,0.8c-0.6,0.2-1.1,0.3-1.7,0.3c-1.4,0-2.4-0.4-3.2-1.1c-0.7-0.7-1.1-1.8-1.1-3.2v-8.9
		h-2.6v-1.7h2.6v-3.2h2v3.2h4.5v1.7h-4.5v8.8c0,0.9,0.2,1.5,0.7,2c0.4,0.5,1.1,0.7,1.9,0.7c0.4,0,0.8-0.1,1.2-0.2s0.7-0.3,1-0.6
		L604.8,547.7z"/>
</g>
<g class="st2">
	<path d="M620.7,541.8h-12.3c0.1,1.5,0.7,2.8,1.8,3.7c1.1,0.9,2.4,1.4,4,1.4c0.9,0,1.8-0.2,2.5-0.5c0.8-0.3,1.4-0.8,2-1.4l1.1,1.3
		c-0.7,0.8-1.5,1.4-2.5,1.8c-1,0.4-2.1,0.6-3.2,0.6c-1.5,0-2.9-0.3-4-1c-1.2-0.6-2.1-1.5-2.7-2.7c-0.7-1.1-1-2.4-1-3.9
		c0-1.4,0.3-2.7,0.9-3.9c0.6-1.1,1.5-2,2.6-2.7c1.1-0.6,2.3-1,3.7-1c1.4,0,2.6,0.3,3.7,1c1.1,0.6,1.9,1.5,2.5,2.6
		c0.6,1.1,0.9,2.4,0.9,3.9L620.7,541.8z M610.1,536.8c-1,0.9-1.5,2.1-1.6,3.5h10.4c-0.1-1.5-0.7-2.6-1.6-3.5c-1-0.9-2.2-1.4-3.6-1.4
		C612.2,535.4,611,535.9,610.1,536.8z"/>
	<path d="M625.3,548.2c-1.1-0.3-1.9-0.8-2.6-1.3l0.9-1.6c0.6,0.5,1.4,0.9,2.3,1.2c0.9,0.3,1.9,0.5,2.9,0.5c1.3,0,2.3-0.2,3-0.6
		c0.6-0.4,1-1,1-1.8c0-0.5-0.2-1-0.5-1.3c-0.4-0.3-0.8-0.5-1.3-0.7c-0.5-0.2-1.3-0.3-2.2-0.5c-1.2-0.2-2.2-0.5-2.9-0.7
		c-0.7-0.2-1.3-0.6-1.9-1.2c-0.5-0.6-0.8-1.3-0.8-2.3c0-1.2,0.5-2.2,1.5-3c1-0.8,2.5-1.2,4.3-1.2c1,0,1.9,0.1,2.9,0.4s1.7,0.6,2.4,1
		l-0.9,1.6c-1.2-0.8-2.7-1.3-4.3-1.3c-1.3,0-2.2,0.2-2.9,0.7c-0.6,0.4-1,1-1,1.8c0,0.6,0.2,1,0.5,1.3c0.4,0.3,0.8,0.6,1.4,0.7
		c0.5,0.2,1.3,0.3,2.2,0.5c1.2,0.2,2.1,0.4,2.8,0.7c0.7,0.2,1.3,0.6,1.8,1.1s0.8,1.3,0.8,2.2c0,1.3-0.5,2.3-1.6,3.1
		s-2.6,1.1-4.5,1.1C627.6,548.7,626.4,548.5,625.3,548.2z"/>
</g>
<g class="st2">
	<path class="st6" d="M337.8,140.2l2.1-1.1l10.3,19.9l-2.1,1.1L337.8,140.2z"/>
</g>
<g class="st2">
	<path class="st6" d="M361.9,136.5c1.7,0.6,3,1.9,4,4l4.2,8.8l-2.1,1l-4.1-8.6c-0.7-1.6-1.7-2.6-2.9-3.1c-1.2-0.5-2.5-0.3-4,0.4
		c-1.6,0.8-2.7,1.9-3.2,3.3c-0.5,1.4-0.3,3,0.5,4.7l3.8,8l-2.1,1l-7.2-15.2l2-0.9l1.3,2.8c0.1-1.2,0.6-2.3,1.3-3.3
		c0.8-1,1.8-1.8,3.1-2.4C358.5,136.1,360.3,136,361.9,136.5z"/>
</g>
<g class="st2">
	<path class="st6" d="M382.3,127.8c1.6,0.7,2.9,2.1,3.8,4.2l3.7,9l-2.1,0.9l-3.6-8.8c-0.7-1.6-1.6-2.7-2.7-3.2
		c-1.2-0.5-2.5-0.5-4,0.2c-1.7,0.7-2.8,1.7-3.4,3.1c-0.6,1.4-0.5,3,0.2,4.7l3.4,8.2l-2.1,0.9l-6.4-15.6l2-0.8l1.2,2.9
		c0.2-1.2,0.7-2.2,1.5-3.2c0.8-0.9,1.9-1.7,3.2-2.2C378.9,127.3,380.7,127.2,382.3,127.8z"/>
</g>
<g class="st2">
	<path class="st6" d="M397.4,137.2c-1.5-0.3-2.8-0.9-3.9-1.8c-1.1-1-2-2.2-2.6-3.8c-0.6-1.5-0.7-3.1-0.4-4.5
		c0.3-1.5,0.9-2.8,1.9-3.9c1-1.1,2.2-2,3.8-2.5c1.5-0.6,3-0.7,4.5-0.5c1.5,0.2,2.8,0.8,3.9,1.8c1.1,1,2,2.2,2.5,3.8
		c0.6,1.5,0.7,3.1,0.5,4.5c-0.2,1.5-0.9,2.8-1.8,3.9c-1,1.1-2.2,2-3.7,2.5C400.4,137.3,398.9,137.5,397.4,137.2z M404,133
		c0.7-0.8,1.1-1.8,1.3-2.9c0.2-1.1,0-2.3-0.4-3.5c-0.4-1.2-1.1-2.2-1.9-2.9c-0.8-0.8-1.8-1.2-2.9-1.4c-1.1-0.2-2.2-0.1-3.3,0.3
		s-2,1-2.7,1.9c-0.7,0.8-1.1,1.8-1.3,2.9c-0.2,1.1,0,2.3,0.4,3.5c0.4,1.2,1.1,2.2,1.9,2.9c0.9,0.8,1.8,1.2,2.9,1.4
		c1.1,0.2,2.2,0.1,3.3-0.3C402.4,134.5,403.3,133.9,404,133z"/>
</g>
<g class="st2">
	<path class="st6" d="M422.1,112.3l-2.1,18.2l-2.2,0.7l-12.1-13.8l2.2-0.7l10.3,11.7l1.7-15.5L422.1,112.3z"/>
</g>
<g class="st2">
	<path class="st6" d="M436.1,110c1.4,0.8,2.4,2.2,3,4.3l2.7,10.1l-2.1,0.6l-0.7-2.5c-0.3,1-0.8,1.8-1.6,2.6
		c-0.8,0.7-1.9,1.3-3.2,1.6c-1.8,0.5-3.4,0.4-4.7-0.1c-1.3-0.6-2.1-1.6-2.5-3c-0.4-1.4-0.2-2.6,0.6-3.7c0.8-1.1,2.2-2,4.4-2.6
		l5.2-1.4l-0.3-1c-0.4-1.4-1.1-2.4-2-2.9c-1-0.5-2.2-0.6-3.7-0.2c-1,0.3-2,0.7-2.8,1.3c-0.9,0.6-1.5,1.3-2.1,2.1l-1.4-1.4
		c0.6-0.9,1.5-1.7,2.5-2.4c1-0.7,2.2-1.2,3.5-1.6C432.9,109.2,434.7,109.3,436.1,110z M437,123.1c0.7-0.8,1.2-1.8,1.3-3l-0.7-2.7
		l-5.1,1.4c-2.8,0.8-3.9,2.1-3.4,4c0.3,0.9,0.8,1.6,1.7,1.9c0.9,0.4,2,0.4,3.2,0C435.3,124.4,436.3,123.9,437,123.1z"/>
</g>
<g class="st2">
	<path class="st6" d="M456,119.9c-0.3,0.5-0.8,0.9-1.3,1.2c-0.6,0.3-1.2,0.6-1.8,0.7c-1.5,0.4-2.8,0.2-3.8-0.4
		c-1-0.6-1.7-1.7-2.1-3.2l-2.3-9.9l-2.9,0.7l-0.4-1.9l2.9-0.7l-0.8-3.6l2.2-0.5l0.8,3.6l5-1.2l0.4,1.9l-5,1.2l2.3,9.7
		c0.2,1,0.6,1.7,1.3,2c0.6,0.4,1.4,0.5,2.3,0.3c0.5-0.1,0.9-0.3,1.3-0.5c0.4-0.2,0.7-0.5,1-0.9L456,119.9z"/>
</g>
<g class="st2">
	<path class="st6" d="M455.9,99.6c-0.4-0.2-0.6-0.6-0.7-1c-0.1-0.4,0-0.8,0.2-1.2c0.2-0.4,0.6-0.6,1.1-0.7c0.5-0.1,0.9,0,1.3,0.2
		c0.4,0.2,0.6,0.6,0.7,1c0.1,0.5,0,0.9-0.2,1.3c-0.2,0.4-0.6,0.6-1.1,0.7C456.7,99.9,456.3,99.9,455.9,99.6z M456.8,103.7l2.2-0.5
		l3.4,16.5l-2.2,0.5L456.8,103.7z"/>
</g>
<g class="st2">
	<path class="st6" d="M470.8,117.1c-1.4-0.5-2.6-1.3-3.6-2.5c-1-1.2-1.6-2.6-1.9-4.2c-0.3-1.6-0.2-3.1,0.4-4.6
		c0.5-1.4,1.4-2.6,2.5-3.5c1.2-0.9,2.5-1.5,4.2-1.8c1.6-0.3,3.1-0.2,4.5,0.3c1.4,0.5,2.6,1.3,3.5,2.5c1,1.2,1.6,2.6,1.8,4.2
		c0.3,1.6,0.2,3.1-0.3,4.6c-0.5,1.4-1.3,2.6-2.5,3.5s-2.5,1.6-4.2,1.8C473.7,117.7,472.2,117.6,470.8,117.1z M478,114.1
		c0.8-0.7,1.4-1.6,1.8-2.7c0.4-1.1,0.4-2.3,0.2-3.5c-0.2-1.3-0.7-2.4-1.4-3.3c-0.7-0.9-1.6-1.5-2.6-1.9c-1-0.4-2.1-0.5-3.3-0.3
		c-1.2,0.2-2.2,0.7-3,1.4c-0.8,0.7-1.5,1.6-1.8,2.7c-0.4,1.1-0.4,2.3-0.2,3.5c0.2,1.3,0.7,2.4,1.4,3.3c0.7,0.9,1.6,1.5,2.6,1.9
		c1,0.4,2.1,0.5,3.3,0.3C476.2,115.2,477.2,114.8,478,114.1z"/>
</g>
<g class="st2">
	<path class="st6" d="M499.6,98.5c1.4,1.1,2.2,2.8,2.5,5.1l1.2,9.7l-2.3,0.3l-1.2-9.5c-0.2-1.7-0.8-3-1.8-3.8
		c-1-0.8-2.3-1.1-3.9-0.9c-1.8,0.2-3.2,0.9-4.1,2.1c-0.9,1.2-1.3,2.7-1,4.6l1.1,8.8l-2.3,0.3l-2.1-16.7l2.2-0.3l0.4,3.1
		c0.5-1.1,1.2-2,2.3-2.7c1-0.7,2.3-1.1,3.7-1.3C496.5,97.1,498.3,97.5,499.6,98.5z"/>
</g>
<g class="st2">
	<path class="st6" d="M535.5,88.6l1.1,22.4l-2.3,0.1l-0.5-10.3l-14,0.7l0.5,10.3L518,112l-1.1-22.4l2.4-0.1l0.5,10l14-0.7l-0.5-10
		L535.5,88.6z"/>
</g>
<g class="st2">
	<path class="st6" d="M558.4,94.1l-0.1,16.8l-2.2,0l0-3.1c-0.6,1-1.4,1.8-2.5,2.4c-1,0.6-2.2,0.8-3.6,0.8c-2.2,0-3.9-0.6-5.2-1.9
		c-1.3-1.2-1.9-3-1.9-5.4l0-9.8l2.3,0l0,9.5c0,1.8,0.4,3.1,1.3,4c0.9,0.9,2.1,1.4,3.7,1.4c1.8,0,3.2-0.5,4.2-1.6s1.5-2.6,1.5-4.5
		l0-8.8L558.4,94.1z"/>
</g>
<g class="st2">
	<path class="st6" d="M578.2,95.9c1.2,0.8,2.2,1.8,2.8,3.2s0.9,2.8,0.9,4.5c-0.1,1.7-0.5,3.1-1.3,4.4c-0.8,1.3-1.8,2.2-3.2,2.9
		c-1.3,0.7-2.8,0.9-4.3,0.9c-1.4-0.1-2.7-0.4-3.7-1.1c-1.1-0.7-1.9-1.6-2.6-2.7l-0.2,3.3l-2.2-0.1l1.2-23.7l2.3,0.1l-0.5,10.1
		c0.8-1,1.7-1.8,2.8-2.3c1.1-0.5,2.4-0.7,3.7-0.7C575.6,94.7,577,95.1,578.2,95.9z M576.3,109.1c1-0.5,1.8-1.2,2.4-2.2
		c0.6-1,0.9-2.1,1-3.4c0.1-1.3-0.1-2.4-0.6-3.5c-0.5-1-1.2-1.8-2.1-2.4c-0.9-0.6-2-0.9-3.2-1c-1.2-0.1-2.3,0.2-3.3,0.6
		c-1,0.5-1.8,1.2-2.4,2.2c-0.6,1-0.9,2.1-1,3.4c-0.1,1.3,0.1,2.4,0.6,3.5s1.2,1.8,2.1,2.4s2,0.9,3.2,1
		C574.2,109.8,575.3,109.6,576.3,109.1z"/>
</g>
<g class="st2">
	<path class="st6" d="M610.4,115.5l-2.7-3.5c-2.1,1.8-4.7,2.5-7.8,2.1c-1.4-0.2-2.7-0.6-3.8-1.2c-1.1-0.6-1.9-1.4-2.4-2.3
		c-0.5-0.9-0.7-1.9-0.6-3c0.2-1.3,0.7-2.5,1.7-3.4c1-1,2.5-1.9,4.7-2.8c-0.9-1.2-1.5-2.2-1.8-3.1c-0.3-0.8-0.4-1.7-0.3-2.5
		c0.2-1.4,0.8-2.5,1.9-3.2c1.1-0.7,2.5-1,4.2-0.8c1.6,0.2,2.8,0.7,3.6,1.6c0.8,0.9,1.2,2,1,3.4c-0.1,1.1-0.6,2-1.5,2.8
		c-0.8,0.8-2.2,1.6-4.2,2.4l5.3,7c0.8-1.1,1.5-2.5,2-4.1l1.8,0.8c-0.6,1.9-1.5,3.6-2.6,4.9l2.8,3.6L610.4,115.5z M606.5,110.4
		l-5.9-7.7c-1.9,0.8-3.2,1.5-4,2.3c-0.8,0.7-1.2,1.6-1.3,2.6c-0.1,1.2,0.2,2.2,1.1,3.1s2.1,1.4,3.7,1.6
		C602.7,112.5,604.8,111.9,606.5,110.4z M600.7,93.8c-0.7,0.5-1.1,1.2-1.2,2.1c-0.1,0.7,0,1.3,0.3,1.9c0.3,0.6,0.8,1.5,1.7,2.6
		c1.7-0.7,2.9-1.4,3.6-2c0.7-0.6,1.1-1.3,1.2-2c0.1-0.8-0.1-1.5-0.6-2.1c-0.5-0.6-1.3-0.9-2.3-1C602.3,93.2,601.4,93.4,600.7,93.8z"
		/>
</g>
<g class="st2">
	<path class="st6" d="M642.4,100c1.3,1.6,1.8,3.6,1.3,6c-0.4,2.3-1.6,4-3.4,5.1c-1.8,1-4.2,1.3-7,0.8l-5.9-1.1l-1.3,7l-2.3-0.4
		l4.1-22l8.2,1.6C638.9,97.2,641,98.3,642.4,100z M638.9,109.2c1.3-0.7,2.2-2,2.5-3.7c0.3-1.8,0-3.3-1-4.4c-1-1.2-2.6-2-4.7-2.4
		l-5.8-1.1l-2.1,11l5.8,1.1C635.8,110.1,637.6,110,638.9,109.2z"/>
</g>
<g class="st2">
	<path class="st6" d="M659.2,109c0.9,1.3,1.1,3,0.6,5.1l-2.4,10.1l-2.1-0.5l0.6-2.5c-0.7,0.7-1.6,1.2-2.7,1.5
		c-1.1,0.2-2.3,0.2-3.6-0.1c-1.8-0.4-3.2-1.2-4-2.3s-1.1-2.4-0.8-3.8c0.3-1.4,1.1-2.4,2.3-3s2.9-0.7,5.1-0.1l5.2,1.2l0.2-1
		c0.3-1.4,0.2-2.6-0.4-3.5c-0.6-0.9-1.7-1.6-3.2-1.9c-1-0.2-2.1-0.3-3.1-0.2c-1,0.1-2,0.4-2.8,0.8l-0.6-1.9c1-0.5,2.1-0.8,3.4-0.9
		c1.2-0.1,2.5,0,3.8,0.3C656.8,106.8,658.3,107.7,659.2,109z M653.8,120.9c1-0.4,1.9-1,2.6-2l0.6-2.7l-5.1-1.2
		c-2.8-0.7-4.4,0-4.9,1.9c-0.2,1,0,1.8,0.6,2.5c0.6,0.7,1.5,1.2,2.8,1.5C651.6,121.2,652.8,121.2,653.8,120.9z"/>
</g>
<g class="st2">
	<path class="st6" d="M671.9,111.5c1.2-0.3,2.5-0.2,4,0.2l-0.6,2.1l-0.5-0.2c-1.7-0.5-3.2-0.3-4.4,0.5c-1.3,0.8-2.1,2.1-2.7,4
		l-2.3,8.3l-2.2-0.6l4.4-16.2l2.1,0.6l-0.9,3.2C669.7,112.4,670.7,111.8,671.9,111.5z"/>
</g>
<g class="st2">
	<path class="st6" d="M677.7,129c-1-1.1-1.7-2.4-2-3.9c-0.3-1.5-0.2-3,0.3-4.6c0.5-1.6,1.3-2.9,2.4-3.9c1.1-1,2.4-1.7,3.9-2
		c1.5-0.3,3-0.2,4.6,0.3c1.4,0.4,2.6,1.1,3.5,2c0.9,0.9,1.5,1.9,1.9,3.2l-2,0.6c-0.3-1-0.8-1.8-1.5-2.4c-0.7-0.7-1.5-1.1-2.5-1.4
		c-1.2-0.4-2.3-0.4-3.4-0.2c-1.1,0.2-2.1,0.7-2.9,1.5c-0.8,0.8-1.4,1.8-1.8,3c-0.4,1.2-0.5,2.4-0.2,3.5c0.2,1.1,0.7,2.1,1.5,2.9
		c0.8,0.8,1.7,1.4,2.9,1.8c1,0.3,1.9,0.4,2.9,0.3c0.9-0.1,1.8-0.5,2.6-1.1l1.3,1.6c-1,0.8-2.1,1.4-3.4,1.6c-1.3,0.2-2.6,0.1-4-0.3
		C680.1,130.8,678.8,130.1,677.7,129z"/>
</g>
<g class="st2">
	<path class="st6" d="M708.1,132l-13.3-4.7c-0.5,1.7-0.3,3.2,0.5,4.7c0.8,1.4,2,2.4,3.8,3.1c1,0.4,2,0.5,2.9,0.4
		c0.9-0.1,1.8-0.3,2.7-0.8l0.7,1.8c-1,0.6-2.1,0.9-3.3,1c-1.2,0.1-2.5-0.1-3.7-0.6c-1.6-0.6-2.9-1.4-4-2.6c-1-1.1-1.6-2.4-1.9-3.9
		s-0.1-3,0.4-4.5c0.6-1.5,1.4-2.8,2.5-3.8c1.1-1,2.4-1.6,3.8-1.9c1.4-0.3,2.9-0.1,4.3,0.4c1.5,0.5,2.7,1.3,3.6,2.4
		c0.9,1.1,1.5,2.4,1.7,3.8c0.2,1.5,0.1,3-0.5,4.5L708.1,132z M698.5,122.5c-1.4,0.6-2.4,1.7-3.1,3.2l11.2,4c0.4-1.6,0.3-3.1-0.4-4.4
		c-0.7-1.3-1.8-2.3-3.4-2.8C701.4,121.9,699.9,121.9,698.5,122.5z"/>
</g>
<g class="st2">
	<path class="st6" d="M719.9,127.7c1.2-0.1,2.5,0.1,4,0.6l-0.8,2.1l-0.5-0.2c-1.6-0.7-3.1-0.7-4.5,0c-1.3,0.6-2.4,1.9-3.1,3.7
		l-3.2,8l-2.1-0.8l6.2-15.6l2,0.8l-1.2,3.1C717.6,128.3,718.7,127.8,719.9,127.7z"/>
</g>
<g class="st2">
	<path class="st6" d="M727.8,130.2l2.1,0.9l-6.6,15.5l-2.1-0.9L727.8,130.2z M729.4,126.3c-0.2-0.4-0.2-0.8,0-1.2
		c0.2-0.4,0.5-0.7,0.9-0.8c0.4-0.2,0.8-0.2,1.3,0c0.4,0.2,0.7,0.5,0.9,0.9c0.2,0.4,0.2,0.8,0,1.2c-0.2,0.4-0.5,0.7-0.9,0.9
		c-0.4,0.2-0.8,0.2-1.3,0C729.9,127,729.6,126.7,729.4,126.3z"/>
</g>
<g class="st2">
	<path class="st6" d="M745.4,139.6c0.6,1.5,0.5,3.2-0.4,5.2l-4.4,9.5l-2-0.9l1.1-2.4c-0.8,0.6-1.8,0.9-2.9,0.9
		c-1.1,0-2.3-0.2-3.5-0.8c-1.7-0.8-2.9-1.8-3.5-3.1c-0.6-1.3-0.6-2.6,0-3.9c0.6-1.3,1.6-2.1,2.9-2.5s3-0.1,5,0.9l4.9,2.2l0.4-0.9
		c0.6-1.3,0.7-2.5,0.3-3.5c-0.4-1-1.3-1.9-2.8-2.5c-1-0.4-2-0.7-3-0.8c-1-0.1-2,0-2.9,0.3l-0.2-2c1.1-0.3,2.2-0.4,3.5-0.2
		c1.3,0.1,2.5,0.5,3.7,1C743.5,136.9,744.8,138.1,745.4,139.6z M737.7,150.2c1.1-0.1,2.1-0.6,2.9-1.5l1.2-2.5L737,144
		c-2.6-1.2-4.4-0.9-5.2,0.9c-0.4,0.9-0.4,1.8,0,2.6c0.4,0.8,1.3,1.5,2.5,2.1C735.5,150.2,736.6,150.4,737.7,150.2z"/>
</g>
<g class="st2">
	<path class="st6" d="M746.6,156.8c-0.9-0.9-1.6-1.8-1.9-2.7l1.7-1.1c0.4,0.8,1,1.6,1.7,2.4c0.8,0.8,1.7,1.5,2.7,2
		c1.4,0.7,2.5,1,3.4,0.9c0.9-0.1,1.5-0.5,1.9-1.3c0.3-0.6,0.3-1.1,0.1-1.6c-0.2-0.5-0.5-1-1-1.4c-0.5-0.4-1.1-1-2-1.6
		c-1.1-0.8-2-1.6-2.6-2.2c-0.6-0.6-1-1.3-1.3-2.2c-0.2-0.8-0.1-1.8,0.4-2.8c0.6-1.3,1.7-2,3.1-2.3c1.5-0.3,3.1,0.1,5,1
		c1,0.5,1.9,1.1,2.7,1.9c0.8,0.8,1.5,1.5,1.9,2.2l-1.7,1.2c-0.8-1.5-2.1-2.7-3.8-3.5c-1.3-0.7-2.4-0.9-3.3-0.8
		c-0.9,0.1-1.5,0.6-1.9,1.3c-0.3,0.6-0.3,1.1-0.1,1.7c0.2,0.5,0.5,1,1,1.5c0.5,0.4,1.1,1,2,1.7c1.1,0.8,1.9,1.6,2.5,2.2
		c0.6,0.6,1,1.3,1.3,2.1c0.2,0.8,0.1,1.7-0.4,2.7c-0.7,1.3-1.7,2.1-3.2,2.3c-1.5,0.2-3.2-0.2-5.1-1.2
		C748.6,158.5,747.5,157.8,746.6,156.8z"/>
</g>
<g class="st2">
	<path class="st6" d="M403.5,207.7c-2-0.2-3.8-0.9-5.3-2.1c-1.6-1.2-2.8-2.8-3.6-4.7c-0.8-1.9-1.1-3.9-0.8-5.9s1-3.7,2.3-5.3
		c1.3-1.6,2.9-2.8,4.9-3.6c1.5-0.6,3-1,4.5-1s2.9,0.3,4.2,0.8l-0.8,1.9c-2.2-0.9-4.6-0.9-7,0.1c-1.6,0.7-2.9,1.6-3.9,2.9
		c-1,1.3-1.6,2.7-1.8,4.3c-0.2,1.6,0,3.2,0.7,4.7c0.7,1.6,1.6,2.9,2.9,3.8c1.3,1,2.7,1.5,4.3,1.7c1.6,0.2,3.2-0.1,4.8-0.7
		c2.4-1,4.1-2.7,5-4.9l1.9,0.8c-0.5,1.3-1.3,2.5-2.3,3.6c-1.1,1-2.4,1.9-3.9,2.5C407.5,207.6,405.5,207.9,403.5,207.7z"/>
</g>
<g class="st2">
	<path class="st6" d="M428.8,181.8l5.5,15.6l-2,0.7l-1-2.8c-0.2,1.1-0.7,2.1-1.5,3c-0.8,0.9-1.8,1.5-3,1.9c-2,0.7-3.8,0.7-5.4,0
		s-2.7-2.2-3.5-4.4l-3.2-9l2.1-0.7l3.1,8.8c0.6,1.6,1.4,2.7,2.5,3.3c1.1,0.6,2.4,0.6,3.9,0.1c1.6-0.6,2.8-1.5,3.3-2.9
		c0.6-1.3,0.6-2.9,0-4.7l-2.9-8.2L428.8,181.8z"/>
</g>
<g class="st2">
	<path class="st6" d="M433.3,173.3l2.1-0.6l6.7,22.3l-2.1,0.6L433.3,173.3z"/>
</g>
<g class="st2">
	<path class="st6" d="M456.1,189.9c-0.3,0.5-0.7,0.9-1.3,1.2c-0.5,0.4-1.1,0.6-1.8,0.8c-1.5,0.4-2.7,0.3-3.8-0.2
		c-1-0.6-1.7-1.6-2.2-3.1l-2.7-9.6l-2.8,0.8l-0.5-1.8l2.8-0.8l-1-3.5l2.1-0.6l1,3.5l4.8-1.4l0.5,1.8l-4.8,1.4l2.7,9.4
		c0.3,0.9,0.7,1.6,1.3,2c0.6,0.4,1.4,0.4,2.2,0.2c0.4-0.1,0.8-0.3,1.2-0.6c0.4-0.3,0.7-0.6,0.9-0.9L456.1,189.9z"/>
</g>
<g class="st2">
	<path class="st6" d="M470.9,170.5l3.7,16.1l-2.1,0.5l-0.7-2.9c-0.3,1.1-1,2-1.8,2.8s-2,1.3-3.2,1.6c-2.1,0.5-3.9,0.3-5.4-0.6
		c-1.5-0.9-2.5-2.5-3-4.7l-2.1-9.3l2.2-0.5l2.1,9.1c0.4,1.7,1.1,2.9,2.1,3.6c1,0.7,2.3,0.8,3.9,0.5c1.7-0.4,2.9-1.2,3.6-2.5
		c0.7-1.3,0.9-2.8,0.5-4.6l-1.9-8.4L470.9,170.5z"/>
</g>
<g class="st2">
	<path class="st6" d="M482,169.2c0.9-0.7,2.1-1.2,3.6-1.5l0.4,2.1l-0.5,0.1c-1.7,0.3-2.9,1.1-3.7,2.3c-0.8,1.2-1,2.8-0.6,4.7
		l1.5,8.2l-2.2,0.4l-3-16.2l2.1-0.4l0.6,3.2C480.4,170.9,481,170,482,169.2z"/>
</g>
<g class="st2">
	<path class="st6" d="M500.8,167c1.3,0.9,2.1,2.4,2.4,4.5l1.4,10.1l-2.1,0.3l-0.4-2.5c-0.4,0.9-1,1.7-1.9,2.3c-0.9,0.6-2,1-3.3,1.2
		c-1.8,0.3-3.3,0-4.5-0.7c-1.2-0.7-1.9-1.8-2.1-3.2c-0.2-1.4,0.2-2.6,1-3.6c0.9-1,2.4-1.6,4.6-1.9l5.2-0.7l-0.1-1
		c-0.2-1.4-0.7-2.4-1.6-3c-0.9-0.6-2.1-0.8-3.6-0.6c-1,0.1-2,0.5-2.9,0.9c-0.9,0.5-1.7,1.1-2.3,1.8l-1.2-1.5c0.7-0.8,1.6-1.5,2.8-2
		c1.1-0.5,2.3-0.9,3.6-1.1C497.9,165.8,499.6,166.1,500.8,167z M500.1,179.8c0.8-0.7,1.4-1.6,1.6-2.7l-0.4-2.7l-5.1,0.7
		c-2.8,0.4-4.1,1.6-3.8,3.5c0.1,1,0.6,1.7,1.4,2.1c0.8,0.4,1.9,0.6,3.2,0.4C498.3,180.9,499.3,180.5,500.1,179.8z"/>
</g>
<g class="st2">
	<path class="st6" d="M522.5,178.7c-1.8-0.9-3.3-2.1-4.3-3.7s-1.7-3.5-1.8-5.6c-0.1-2.1,0.3-4,1.1-5.8c0.9-1.8,2.2-3.2,3.9-4.2
		c1.7-1.1,3.6-1.7,5.8-1.8c1.6-0.1,3.2,0.1,4.6,0.5c1.4,0.5,2.6,1.2,3.7,2.2l-1.4,1.6c-1.8-1.6-4-2.4-6.6-2.2
		c-1.7,0.1-3.3,0.6-4.7,1.5c-1.4,0.9-2.4,2-3.1,3.5c-0.7,1.4-1,3-0.9,4.7c0.1,1.7,0.6,3.2,1.5,4.6c0.9,1.3,2.1,2.4,3.5,3.1
		c1.5,0.7,3.1,1,4.8,0.9c2.6-0.2,4.7-1.2,6.3-3l1.6,1.4c-0.9,1.1-2,2-3.4,2.6c-1.4,0.6-2.8,1-4.5,1.1
		C526.2,179.9,524.3,179.6,522.5,178.7z"/>
</g>
<g class="st2">
	<path class="st6" d="M542.3,178.1c-1.3-0.7-2.3-1.7-3-3c-0.7-1.3-1.1-2.7-1.1-4.3c0-1.6,0.3-3.1,1.1-4.3c0.7-1.3,1.7-2.3,3-3
		c1.3-0.7,2.7-1.1,4.3-1.1c1.6,0,3,0.3,4.3,1c1.3,0.7,2.3,1.7,3,2.9c0.7,1.3,1.1,2.7,1.1,4.3c0,1.6-0.3,3.1-1,4.3
		c-0.7,1.3-1.7,2.3-3,3c-1.3,0.7-2.7,1.1-4.3,1.1C545,179.1,543.6,178.8,542.3,178.1z M549.8,176.3c0.9-0.5,1.6-1.3,2.2-2.3
		c0.5-1,0.8-2.1,0.8-3.4c0-1.3-0.3-2.4-0.8-3.3c-0.5-1-1.3-1.7-2.2-2.3c-0.9-0.5-2-0.8-3.2-0.8s-2.2,0.3-3.1,0.8
		c-0.9,0.5-1.6,1.3-2.2,2.3c-0.5,1-0.8,2.1-0.8,3.4c0,1.3,0.3,2.4,0.8,3.3c0.5,1,1.3,1.7,2.2,2.3c0.9,0.5,2,0.8,3.2,0.8
		S548.8,176.8,549.8,176.3z"/>
</g>
<g class="st2">
	<path class="st6" d="M560,155.8l2.2,0.1l-0.7,23.2l-2.2-0.1L560,155.8z"/>
</g>
<g class="st2">
	<path class="st6" d="M579.2,165.1c1.1,1.1,1.5,2.8,1.4,4.9l-0.7,10.2l-2.1-0.1l0.2-2.6c-0.6,0.8-1.3,1.4-2.3,1.9
		c-1,0.4-2.2,0.6-3.5,0.5c-1.8-0.1-3.3-0.7-4.3-1.6c-1-0.9-1.5-2.1-1.4-3.6c0.1-1.4,0.7-2.5,1.7-3.3c1.1-0.8,2.7-1.1,4.9-1l5.2,0.3
		l0.1-1c0.1-1.4-0.2-2.5-1-3.3s-1.9-1.2-3.4-1.3c-1-0.1-2.1,0-3,0.3c-1,0.3-1.8,0.7-2.6,1.3l-0.9-1.7c0.9-0.7,1.9-1.1,3.1-1.4
		s2.4-0.4,3.7-0.3C576.6,163.3,578.2,163.9,579.2,165.1z M575.9,177.4c0.9-0.5,1.7-1.3,2.2-2.4l0.2-2.7l-5.2-0.3
		c-2.8-0.2-4.3,0.7-4.4,2.7c-0.1,1,0.3,1.7,0.9,2.3c0.7,0.6,1.7,0.9,3,1C573.9,178.2,575,177.9,575.9,177.4z"/>
</g>
<g class="st2">
	<path class="st6" d="M600.2,166.7c1.2,0.8,2,1.9,2.6,3.3c0.6,1.3,0.7,2.8,0.5,4.5c-0.2,1.6-0.7,3-1.6,4.2s-1.9,2.1-3.3,2.6
		s-2.8,0.7-4.3,0.6c-1.4-0.2-2.6-0.6-3.6-1.3c-1-0.7-1.8-1.7-2.3-2.8l-0.4,3.2l-2.1-0.2l2.7-23.1l2.2,0.3l-1.2,9.8
		c0.8-1,1.8-1.7,2.9-2.1c1.1-0.4,2.4-0.6,3.7-0.4C597.7,165.3,599,165.8,600.2,166.7z M597.4,179.4c1-0.4,1.8-1.1,2.5-2
		c0.6-0.9,1-2,1.2-3.2c0.1-1.2,0-2.4-0.4-3.4c-0.4-1-1.1-1.9-1.9-2.5c-0.9-0.6-1.9-1-3-1.2c-1.2-0.1-2.2,0-3.2,0.4
		c-1,0.4-1.8,1.1-2.4,2c-0.6,0.9-1,2-1.2,3.2c-0.1,1.2,0,2.4,0.4,3.4c0.4,1,1.1,1.9,1.9,2.5c0.9,0.6,1.9,1,3,1.2
		C595.4,180,596.4,179.8,597.4,179.4z"/>
</g>
<g class="st2">
	<path class="st6" d="M609.1,182.8c-1.1-0.9-2-2.1-2.5-3.5c-0.5-1.4-0.6-2.9-0.3-4.4s0.9-2.9,1.8-4.1c0.9-1.1,2.1-1.9,3.5-2.4
		c1.4-0.5,2.8-0.6,4.4-0.3s2.9,0.9,4.1,1.8c1.1,0.9,1.9,2.1,2.4,3.4c0.5,1.4,0.6,2.9,0.3,4.4s-0.9,2.9-1.8,4.1
		c-0.9,1.1-2.1,1.9-3.5,2.4c-1.4,0.5-2.9,0.6-4.4,0.3C611.6,184.3,610.2,183.7,609.1,182.8z M616.7,182.4c1-0.4,1.8-1,2.5-1.9
		c0.7-0.9,1.1-1.9,1.3-3.2s0.1-2.4-0.2-3.4c-0.3-1.1-0.9-1.9-1.8-2.6c-0.8-0.7-1.8-1.1-3-1.3c-1.2-0.2-2.2-0.1-3.2,0.3
		c-1,0.4-1.9,1-2.5,1.9c-0.7,0.9-1.1,1.9-1.4,3.2s-0.1,2.4,0.2,3.4c0.4,1.1,1,1.9,1.8,2.6c0.8,0.7,1.8,1.1,3,1.3
		C614.6,182.8,615.7,182.7,616.7,182.4z"/>
</g>
<g class="st2">
	<path class="st6" d="M633.4,172.3c1.1-0.3,2.4-0.3,3.9,0l-0.5,2.1l-0.5-0.1c-1.7-0.4-3.1-0.1-4.3,0.7c-1.2,0.8-2,2.2-2.4,4.1
		l-1.8,8.2l-2.2-0.5l3.5-16.2l2.1,0.4l-0.7,3.2C631.3,173.3,632.2,172.6,633.4,172.3z"/>
</g>
<g class="st2">
	<path class="st6" d="M651.6,177.6c0.8,1.3,1,3,0.5,5.1l-2.6,9.9l-2.1-0.5l0.6-2.5c-0.7,0.7-1.6,1.2-2.6,1.4
		c-1.1,0.2-2.2,0.2-3.5-0.2c-1.8-0.5-3.1-1.3-3.9-2.4c-0.8-1.1-1.1-2.4-0.7-3.8c0.4-1.4,1.1-2.3,2.3-2.9c1.2-0.6,2.9-0.6,5,0
		l5.1,1.3l0.3-1c0.4-1.4,0.2-2.5-0.3-3.4c-0.6-0.9-1.6-1.6-3.1-1.9c-1-0.3-2-0.3-3-0.3c-1,0.1-1.9,0.3-2.8,0.8l-0.6-1.9
		c1-0.5,2.1-0.8,3.3-0.8c1.2-0.1,2.5,0,3.7,0.4C649.3,175.3,650.7,176.2,651.6,177.6z M646,189.1c1-0.3,1.9-1,2.6-1.9l0.7-2.6
		l-5-1.3c-2.7-0.7-4.3-0.1-4.8,1.8c-0.2,0.9-0.1,1.8,0.5,2.5c0.6,0.7,1.5,1.2,2.8,1.6C643.9,189.4,645,189.4,646,189.1z"/>
</g>
<g class="st2">
	<path class="st6" d="M663.7,195.7c-0.5,0.2-1.1,0.4-1.7,0.4s-1.3-0.1-1.9-0.3c-1.5-0.4-2.5-1.2-3.1-2.2s-0.6-2.3-0.2-3.8l2.9-9.5
		l-2.8-0.9l0.5-1.8l2.8,0.9l1-3.4l2.1,0.6l-1,3.4l4.8,1.5l-0.5,1.8l-4.8-1.5l-2.9,9.4c-0.3,0.9-0.3,1.7,0.1,2.4
		c0.3,0.6,0.9,1.1,1.8,1.3c0.4,0.1,0.9,0.2,1.3,0.2c0.5,0,0.9-0.1,1.2-0.3L663.7,195.7z"/>
</g>
<g class="st2">
	<path class="st6" d="M672.3,182.3l2.1,0.7l-5.2,15.6l-2.1-0.7L672.3,182.3z M673.6,178.4c-0.2-0.4-0.2-0.8-0.1-1.2
		c0.1-0.4,0.4-0.7,0.8-0.9c0.4-0.2,0.8-0.2,1.2-0.1c0.4,0.1,0.8,0.4,1,0.8c0.2,0.4,0.2,0.8,0.1,1.2c-0.1,0.4-0.4,0.8-0.8,1
		s-0.8,0.2-1.2,0.1C674.1,179.1,673.8,178.8,673.6,178.4z"/>
</g>
<g class="st2">
	<path class="st6" d="M693.6,189.9L681,202.8l-2.1-0.8l-1.1-18l2.2,0.8l0.9,15.3l10.7-11L693.6,189.9z"/>
</g>
<g class="st2">
	<path class="st6" d="M705.8,196.7c0.6,1.4,0.5,3.1-0.3,5.1l-4,9.4l-2-0.8l1-2.4c-0.8,0.6-1.7,0.9-2.8,1s-2.2-0.2-3.5-0.7
		c-1.7-0.7-2.9-1.7-3.5-2.9c-0.7-1.2-0.7-2.5-0.1-3.8c0.5-1.3,1.5-2.1,2.7-2.5s2.9-0.2,5,0.7l4.8,2l0.4-0.9c0.6-1.3,0.6-2.5,0.2-3.4
		c-0.4-1-1.4-1.8-2.8-2.4c-1-0.4-2-0.6-3-0.7c-1-0.1-2,0.1-2.8,0.3l-0.3-1.9c1-0.3,2.2-0.4,3.4-0.3c1.2,0.1,2.4,0.4,3.6,0.9
		C703.8,194.1,705.1,195.2,705.8,196.7z M698.6,207.2c1.1-0.2,2-0.7,2.8-1.5l1.1-2.5l-4.8-2c-2.6-1.1-4.3-0.7-5,1.1
		c-0.4,0.9-0.3,1.7,0.1,2.5c0.5,0.8,1.3,1.4,2.5,2C696.4,207.3,697.5,207.4,698.6,207.2z"/>
</g>
<g class="st2">
	<path class="st6" d="M435.8,430.1c-2,0.5-3.9,0.4-5.8-0.2c-1.9-0.6-3.6-1.7-5-3.3c-1.4-1.6-2.4-3.4-2.8-5.3c-0.4-2-0.3-3.9,0.4-5.8
		s1.8-3.6,3.5-5.1c1.2-1.1,2.6-1.9,4-2.5c1.4-0.5,2.8-0.7,4.3-0.6l-0.1,2.1c-2.5-0.1-4.7,0.7-6.7,2.5c-1.3,1.2-2.2,2.6-2.8,4.1
		c-0.5,1.6-0.6,3.2-0.3,4.7c0.3,1.6,1.1,3,2.3,4.3c1.2,1.3,2.5,2.2,4.1,2.7c1.6,0.5,3.1,0.6,4.8,0.2c1.6-0.4,3.1-1.2,4.4-2.3
		c2-1.8,3-3.9,3.1-6.4l2.1,0.1c0,1.4-0.4,2.9-1,4.2c-0.7,1.4-1.6,2.6-2.9,3.7C439.6,428.7,437.8,429.7,435.8,430.1z"/>
</g>
<g class="st2">
	<path class="st6" d="M437.2,403.1c-0.4-0.1-0.8-0.3-1.1-0.6c-0.3-0.3-0.4-0.7-0.3-1.2c0.1-0.4,0.3-0.8,0.7-1.1
		c0.4-0.3,0.8-0.4,1.2-0.3c0.4,0.1,0.8,0.3,1,0.6c0.3,0.4,0.4,0.8,0.3,1.2c-0.1,0.4-0.3,0.8-0.7,1.1
		C438.1,403,437.7,403.2,437.2,403.1z M439.8,406.4l1.8-1.4l10.2,13.4l-1.8,1.4L439.8,406.4z"/>
</g>
<g class="st2">
	<path class="st6" d="M457.6,413.1c-1.5,0.1-2.9-0.2-4.3-0.9c-1.3-0.7-2.5-1.7-3.3-3.1c-0.9-1.4-1.4-2.8-1.5-4.3
		c-0.1-1.5,0.2-2.9,0.9-4.2c0.7-1.3,1.8-2.4,3.2-3.3c1.2-0.8,2.5-1.3,3.7-1.4c1.3-0.1,2.5,0.1,3.6,0.6l-0.8,1.9
		c-0.9-0.4-1.8-0.5-2.8-0.4c-0.9,0.1-1.8,0.4-2.7,1c-1,0.7-1.8,1.5-2.3,2.5c-0.5,1-0.7,2-0.6,3.2s0.5,2.2,1.2,3.3
		c0.7,1.1,1.6,1.9,2.6,2.4c1,0.5,2,0.8,3.2,0.7c1.1-0.1,2.2-0.4,3.2-1.1c0.8-0.5,1.5-1.2,2-2c0.5-0.8,0.8-1.7,0.8-2.7l2,0
		c0,1.3-0.3,2.5-0.9,3.6c-0.7,1.1-1.6,2-2.8,2.8C460.5,412.5,459.1,413,457.6,413.1z"/>
</g>
<g class="st2">
	<path class="st6" d="M458.9,385.5l2-1.1l11.4,20.9l-2,1.1L458.9,385.5z"/>
</g>
<g class="st2">
	<path class="st6" d="M478.9,400.9c-1.5-0.1-2.8-0.7-4.1-1.5c-1.2-0.9-2.2-2.1-2.8-3.6c-0.7-1.5-0.9-3-0.8-4.5
		c0.2-1.5,0.7-2.8,1.6-4c0.9-1.2,2.1-2.1,3.6-2.8c1.5-0.7,3-0.9,4.4-0.8c1.5,0.1,2.8,0.6,4,1.5c1.2,0.9,2.1,2.1,2.8,3.6
		c0.7,1.5,0.9,3,0.8,4.5c-0.1,1.5-0.7,2.8-1.5,4c-0.9,1.2-2.1,2.1-3.6,2.8C481.9,400.8,480.4,401,478.9,400.9z M485.1,396.2
		c0.6-0.9,1-1.9,1.1-3c0.1-1.1-0.1-2.3-0.7-3.5c-0.5-1.2-1.2-2.1-2.1-2.8s-1.9-1.1-3-1.2c-1.1-0.1-2.2,0.1-3.3,0.6
		c-1.1,0.5-2,1.2-2.6,2.1c-0.6,0.9-1,1.9-1.1,3c-0.1,1.1,0.1,2.3,0.6,3.5s1.2,2.1,2.1,2.8c0.9,0.7,1.9,1.1,3,1.2
		c1.1,0.1,2.2-0.1,3.3-0.6C483.6,397.8,484.5,397.1,485.1,396.2z"/>
</g>
<g class="st2">
	<path class="st6" d="M511.7,365.8l5.8,23l-2.1,0.5l-0.8-3.2c-0.4,1.3-1,2.3-2,3.2c-0.9,0.9-2.1,1.5-3.5,1.8c-1.5,0.4-3,0.4-4.4,0
		c-1.4-0.4-2.6-1.1-3.7-2.2c-1-1.1-1.7-2.4-2.1-4c-0.4-1.6-0.4-3.1,0-4.6c0.4-1.4,1.1-2.7,2.2-3.7s2.4-1.7,3.9-2.1
		c1.3-0.3,2.6-0.4,3.8-0.1c1.2,0.3,2.3,0.9,3.2,1.7l-2.5-9.8L511.7,365.8z M511.7,387.5c0.8-0.8,1.3-1.7,1.6-2.8
		c0.3-1.1,0.3-2.3,0-3.5c-0.3-1.2-0.9-2.3-1.6-3.1c-0.8-0.8-1.7-1.4-2.7-1.7c-1.1-0.3-2.1-0.3-3.3,0c-1.2,0.3-2.1,0.8-2.9,1.6
		s-1.3,1.7-1.6,2.8c-0.3,1.1-0.3,2.3,0,3.5c0.3,1.2,0.9,2.3,1.6,3.1c0.8,0.8,1.7,1.4,2.7,1.7c1.1,0.3,2.2,0.3,3.3,0
		C509.9,388.8,510.9,388.3,511.7,387.5z"/>
</g>
<g class="st2">
	<path class="st6" d="M536.1,378.4l-14,1.8c0.3,1.7,1.2,3,2.5,3.9c1.3,0.9,2.9,1.3,4.8,1c1-0.1,2-0.4,2.8-0.9s1.5-1.1,2-1.9l1.5,1.3
		c-0.6,1-1.5,1.8-2.5,2.4c-1.1,0.6-2.2,1-3.6,1.2c-1.7,0.2-3.3,0-4.7-0.5c-1.4-0.6-2.6-1.4-3.5-2.6c-0.9-1.2-1.5-2.6-1.7-4.2
		c-0.2-1.6,0-3.1,0.5-4.5c0.5-1.4,1.4-2.5,2.5-3.4c1.1-0.9,2.5-1.4,4-1.6c1.5-0.2,3,0,4.3,0.5c1.3,0.6,2.4,1.4,3.3,2.6
		c0.9,1.2,1.4,2.6,1.6,4.3L536.1,378.4z M523.3,374.3c-1,1.2-1.4,2.6-1.3,4.3l11.8-1.5c-0.4-1.6-1.2-2.9-2.4-3.8
		c-1.2-0.9-2.6-1.2-4.3-1C525.5,372.4,524.2,373.1,523.3,374.3z"/>
</g>
<g class="st2">
	<path class="st6" d="M550.2,363.4l2.4,0l-0.2,22.4l-2.4,0L550.2,363.4z"/>
</g>
<g class="st2">
	<path class="st6" d="M572.7,372c1.1,1.3,1.6,3.2,1.4,5.5l-0.9,9.7l-2.3-0.2l0.9-9.5c0.2-1.7-0.1-3.1-0.9-4.1c-0.8-1-2-1.6-3.6-1.7
		c-1.8-0.2-3.3,0.2-4.4,1.2s-1.8,2.4-2,4.3L560,386l-2.3-0.2l1.6-16.8l2.2,0.2l-0.3,3.1c0.7-1,1.6-1.7,2.8-2.1
		c1.1-0.5,2.4-0.6,3.9-0.5C570,369.9,571.6,370.7,572.7,372z"/>
</g>
<g class="st2">
	<path class="st6" d="M580.7,387.7c-1.1-1-1.9-2.2-2.4-3.6c-0.5-1.4-0.5-3-0.2-4.6c0.3-1.6,1-3,2-4.1s2.2-1.9,3.6-2.3
		c1.4-0.4,2.9-0.5,4.5-0.1s2.9,1,4.1,2c1.1,1,1.9,2.2,2.4,3.6c0.4,1.4,0.5,2.9,0.2,4.6c-0.3,1.6-1,3-2,4.1c-1,1.1-2.2,1.9-3.6,2.4
		c-1.4,0.4-2.9,0.5-4.5,0.2S581.8,388.7,580.7,387.7z M588.5,387.6c1-0.3,1.9-0.9,2.7-1.8s1.2-1.9,1.5-3.2c0.3-1.3,0.2-2.4-0.1-3.5
		c-0.3-1.1-0.9-2-1.7-2.7c-0.8-0.7-1.8-1.2-3-1.5c-1.2-0.3-2.3-0.2-3.3,0.1c-1,0.3-1.9,0.9-2.7,1.8c-0.7,0.9-1.3,1.9-1.5,3.2
		c-0.3,1.3-0.2,2.4,0.1,3.5s0.9,2,1.7,2.7c0.8,0.7,1.8,1.2,3,1.5S587.5,387.9,588.5,387.6z"/>
</g>
<g class="st2">
	<path class="st6" d="M615,380.8l-12.3,13.7l-2.2-0.7l-1.9-18.3l2.3,0.7l1.5,15.6l10.5-11.6L615,380.8z"/>
</g>
<g class="st2">
	<path class="st6" d="M628.3,388.4c0.6,1.5,0.5,3.2-0.4,5.2l-4.3,9.5l-2-0.9l1.1-2.4c-0.8,0.6-1.8,0.9-2.9,0.9
		c-1.1,0-2.3-0.2-3.5-0.8c-1.7-0.8-2.9-1.8-3.5-3.1c-0.6-1.3-0.7-2.6-0.1-3.9c0.6-1.3,1.5-2.1,2.8-2.5c1.3-0.4,3-0.1,5,0.8l4.9,2.2
		l0.4-0.9c0.6-1.3,0.7-2.5,0.3-3.5c-0.4-1-1.3-1.9-2.8-2.5c-1-0.4-2-0.7-3-0.8c-1-0.1-2,0-2.9,0.3l-0.2-2c1.1-0.3,2.2-0.4,3.5-0.3
		c1.3,0.1,2.5,0.5,3.7,1C626.4,385.7,627.7,386.9,628.3,388.4z M620.7,399c1.1-0.2,2-0.6,2.9-1.5l1.1-2.5l-4.8-2.2
		c-2.6-1.2-4.3-0.9-5.2,1c-0.4,0.9-0.4,1.8,0.1,2.6c0.4,0.8,1.3,1.5,2.5,2.1C618.5,398.9,619.6,399.1,620.7,399z"/>
</g>
<g class="st2">
	<path class="st6" d="M627.3,412.3l1.1-0.8c0.3,0.7,0.8,1.2,1.5,1.6c0.6,0.3,1,0.5,1.5,0.4s0.8-0.3,1-0.7c0.2-0.4,0.3-0.8,0.1-1.2
		c-0.1-0.4-0.5-0.8-1.1-1.1l-0.6-0.4l2.1-2.1l1.2,0.7l-1.4,1.4c0.7,0.5,1.1,1.1,1.3,1.7c0.2,0.6,0.1,1.3-0.3,1.9
		c-0.4,0.7-1.1,1.1-1.9,1.2s-1.7-0.1-2.6-0.7C628.4,413.8,627.7,413.1,627.3,412.3z M630.7,405.9c-0.8-1.3-1.1-2.7-1.1-4.2
		c0-1.5,0.5-3,1.3-4.4c0.8-1.4,1.9-2.5,3.2-3.2s2.7-1.1,4.2-1c1.5,0,3,0.5,4.4,1.3c1.2,0.7,2.2,1.6,2.9,2.7s1,2.2,1.1,3.5l-2,0.1
		c-0.1-1-0.3-1.9-0.9-2.7c-0.5-0.8-1.2-1.4-2.1-2c-1-0.6-2.1-0.9-3.2-1c-1.1,0-2.2,0.3-3.1,0.8c-1,0.6-1.8,1.4-2.4,2.5
		c-0.7,1.1-1,2.2-1.1,3.4c0,1.1,0.2,2.2,0.8,3.1c0.6,1,1.4,1.8,2.4,2.4c0.9,0.5,1.8,0.8,2.7,0.9c0.9,0.1,1.9-0.1,2.8-0.5l0.9,1.9
		c-1.1,0.6-2.3,0.8-3.6,0.7c-1.3-0.1-2.5-0.5-3.8-1.2C632.5,408.2,631.4,407.2,630.7,405.9z"/>
</g>
<g class="st2">
	<path class="st6" d="M660.6,408.5c0.3,1.6-0.2,3.2-1.5,5l-6.2,8.4l-1.7-1.3l1.6-2.1c-0.9,0.4-1.9,0.5-3,0.3
		c-1.1-0.2-2.2-0.7-3.3-1.5c-1.5-1.1-2.4-2.4-2.8-3.7s-0.1-2.7,0.8-3.8c0.9-1.1,2-1.8,3.3-1.9c1.4-0.1,2.9,0.5,4.8,1.9l4.3,3.2
		l0.6-0.8c0.9-1.2,1.2-2.3,1-3.4c-0.2-1.1-0.9-2.1-2.2-3c-0.9-0.6-1.8-1.1-2.8-1.4c-1-0.3-2-0.4-2.9-0.3l0.2-2
		c1.1-0.1,2.3,0.1,3.5,0.5c1.2,0.4,2.3,1,3.4,1.8C659.3,405.5,660.3,406.9,660.6,408.5z M650.9,417.3c1.1,0.1,2.1-0.2,3.2-0.8
		l1.6-2.2l-4.2-3.1c-2.3-1.7-4.1-1.8-5.3-0.2c-0.6,0.8-0.7,1.6-0.5,2.5c0.3,0.9,0.9,1.8,2,2.5C648.8,416.8,649.8,417.2,650.9,417.3z
		 M660.1,402.3c-0.2-0.4-0.3-0.9-0.4-1.5c-0.1-0.5-0.2-0.9-0.3-1.1c-0.1-0.2-0.2-0.4-0.5-0.6c-0.4-0.3-0.8-0.4-1.3-0.3
		c-0.5,0.1-0.9,0.4-1.3,0.9l-1.1-0.8c0.7-0.8,1.4-1.4,2.2-1.6c0.8-0.2,1.5-0.1,2.2,0.4c0.4,0.3,0.7,0.6,0.9,1
		c0.2,0.4,0.3,0.9,0.5,1.5c0.1,0.4,0.2,0.8,0.3,1.1s0.3,0.5,0.5,0.6c0.4,0.3,0.8,0.4,1.2,0.3c0.4-0.1,0.9-0.4,1.3-0.9l1.1,0.8
		c-0.7,0.8-1.4,1.3-2.2,1.5s-1.5,0-2.2-0.5C660.5,403.1,660.2,402.7,660.1,402.3z"/>
</g>
<g class="st2">
	<path class="st6" d="M659.2,426.1c-0.5-1.4-0.5-2.9-0.2-4.3c0.3-1.5,1.1-2.8,2.2-4c1.1-1.2,2.4-2,3.8-2.5c1.4-0.4,2.9-0.5,4.3-0.1
		c1.4,0.4,2.8,1.1,3.9,2.2s2,2.4,2.5,3.8c0.5,1.4,0.5,2.9,0.2,4.3c-0.3,1.5-1.1,2.8-2.2,4c-1.1,1.2-2.4,2-3.8,2.5
		c-1.4,0.5-2.9,0.5-4.3,0.2c-1.5-0.3-2.8-1.1-4-2.2C660.5,428.8,659.7,427.5,659.2,426.1z M666,430c1.1,0.2,2.1,0.2,3.2-0.2
		c1.1-0.4,2-1,2.9-2c0.9-0.9,1.5-2,1.7-3.1c0.3-1.1,0.3-2.2,0-3.2c-0.3-1-0.9-2-1.8-2.8c-0.9-0.8-1.8-1.3-2.9-1.6s-2.1-0.2-3.2,0.2
		c-1.1,0.4-2.1,1-2.9,1.9c-0.9,0.9-1.5,2-1.7,3.1c-0.3,1.1-0.3,2.2,0.1,3.2c0.3,1,0.9,2,1.8,2.8S664.9,429.7,666,430z"/>
</g>
<g>
	<g>
		<path class="st7" d="M577.9,605.7c2.3,0,4.1-1.9,4.2-4.2v-10.7c0-2.3-1.9-4.1-4.2-4.2h-10.6c-1.1,0-2.2,0.4-2.9,1.2
			c-0.8,0.8-1.2,1.8-1.2,2.9h-7c0-6.2,5-11.2,11.1-11.2c0,0,0,0,0.1,0h10.5c6.2,0,11.2,5,11.2,11.1c0,0,0,0,0,0.1v10.7
			c0,6.2-5,11.2-11.2,11.2c0,0,0,0,0,0V605.7z"/>
	</g>
	<g>
		<path class="st8" d="M589.1,619.5c-5-0.2-7.5-2.5-10-4.9c-1.4-1.4-2.8-2.7-5.1-2.7c-2,0-3.5-1.6-3.5-3.5c0-2,1.6-3.5,3.5-3.5
			c5.1,0,7.5,2.3,10,4.7c1.4,1.3,2.8,2.7,5.1,2.9L589.1,619.5z"/>
	</g>
	<g>
		<path class="st7" d="M537.5,579.7H552c6.2,0,11.2,5,11.2,11.2c0,3-1.2,5.8-3.3,7.9c-0.7,0.7-1.5,1.3-2.4,1.8
			c1,0.8,1.9,1.6,2.9,2.4c3.1,2.8,6,6,8.4,9.4h-9c-1.3-1.5-2.7-2.8-4.1-4.1c-2.9-2.5-6-4.7-9.3-6.7l0,0c-1.7-1-2.2-3.2-1.2-4.8
			c0.6-1.1,1.8-1.7,3.1-1.7c0.6,0,1.2,0,1.8,0s1.1,0,1.7,0h0.2c2.3,0,4.1-1.9,4.1-4.2c0-2.3-1.9-4.1-4.1-4.1h-14.5V579.7z"/>
	</g>
	<g>
		<path class="st7" d="M534.2,586.7h-10.5c-1.3,0-2.4,1-2.5,2.4s1,2.4,2.4,2.5l0,0h10.5V586.7z M537.7,612.4h-15.5
			c-5.8,0-10.4-4.7-10.4-10.4c0-2.8,1.1-5.4,3.1-7.4c0.2-0.2,0.5-0.5,0.7-0.7c-0.9-1.5-1.3-3.1-1.3-4.8c0-5.2,4.2-9.5,9.5-9.5
			c0,0,0,0,0,0h17.5v7.1l0,0v25.7L537.7,612.4z M523.6,598.6h-1.4c-1.9,0.1-3.3,1.7-3.2,3.5c0.1,1.7,1.5,3.1,3.2,3.2h12v-6.7H523.6
			L523.6,598.6z"/>
	</g>
</g>
<g class="st2">
	<path d="M454.7,634.1l1.4,1.8l-6.7,5.3c-1.4-0.3-2.7-0.8-4-1.6c-1.3-0.8-2.4-1.8-3.4-3.1c-1.4-1.8-2.3-3.6-2.6-5.7
		c-0.3-2-0.1-4,0.6-5.8c0.7-1.9,1.9-3.5,3.6-4.8c1.7-1.3,3.5-2.1,5.5-2.4c2-0.3,3.9,0,5.8,0.8c1.9,0.8,3.5,2.1,4.9,3.9
		c1.1,1.3,1.8,2.7,2.3,4.2c0.5,1.5,0.6,2.9,0.3,4.3l-2.1-0.2c0.3-2.5-0.4-4.8-2.1-6.9c-1.1-1.4-2.5-2.5-4-3.1
		c-1.5-0.7-3.1-0.9-4.7-0.6c-1.6,0.2-3.1,0.9-4.5,2c-1.4,1.1-2.4,2.4-2.9,3.9s-0.8,3.1-0.5,4.8c0.3,1.6,1,3.2,2.1,4.6
		c1.4,1.8,3.1,3,5,3.5L454.7,634.1z"/>
</g>
<g class="st2">
	<path d="M469.1,652.6l-10.5-9.4c-1.1,1.4-1.5,2.9-1.3,4.5s1,3,2.3,4.3c0.8,0.7,1.6,1.2,2.5,1.5c0.9,0.3,1.8,0.4,2.8,0.3l0,2
		c-1.2,0.2-2.3,0.1-3.5-0.3c-1.1-0.4-2.2-1-3.2-1.9c-1.3-1.2-2.2-2.5-2.7-3.9c-0.5-1.4-0.6-2.9-0.3-4.4c0.3-1.5,1-2.8,2.1-4
		c1.1-1.2,2.3-2.1,3.7-2.6c1.4-0.5,2.8-0.6,4.2-0.3c1.4,0.3,2.7,1,3.9,2c1.2,1,2,2.2,2.4,3.6c0.4,1.4,0.5,2.8,0.1,4.2
		c-0.3,1.4-1.1,2.8-2.2,4L469.1,652.6z M463.8,640.2c-1.5,0-2.9,0.6-4.1,1.8l8.9,8c1-1.3,1.4-2.8,1.3-4.3c-0.1-1.5-0.8-2.8-2-3.9
		C466.7,640.7,465.3,640.1,463.8,640.2z"/>
</g>
<g class="st2">
	<path d="M481.5,651c1.2,0.1,2.4,0.6,3.7,1.5l-1.3,1.8l-0.4-0.3c-1.5-1-2.9-1.4-4.3-1c-1.4,0.3-2.7,1.3-3.8,2.9l-4.9,7l-1.9-1.3
		l9.6-13.8l1.8,1.2l-1.9,2.7C479.2,651.2,480.3,650.9,481.5,651z"/>
</g>
<g class="st2">
	<path d="M497.1,661c0.5,1.5,0.3,3.2-0.7,5.1l-4.8,9.2l-1.9-1l1.2-2.3c-0.9,0.5-1.8,0.8-2.9,0.8c-1.1,0-2.3-0.4-3.5-1
		c-1.7-0.9-2.8-2-3.3-3.3c-0.6-1.3-0.5-2.6,0.2-3.9c0.7-1.3,1.7-2,3-2.3c1.3-0.3,3,0.1,5,1.1l4.7,2.5l0.5-0.9
		c0.7-1.3,0.8-2.4,0.5-3.5c-0.4-1-1.2-1.9-2.6-2.7c-0.9-0.5-1.9-0.8-3-1c-1-0.1-2-0.1-2.9,0.1l-0.1-2c1.1-0.2,2.3-0.3,3.5-0.1
		c1.2,0.2,2.4,0.6,3.6,1.2C495.4,658.2,496.6,659.5,497.1,661z M488.9,671.2c1.1-0.1,2.1-0.5,3-1.3l1.3-2.4l-4.7-2.5
		c-2.6-1.3-4.3-1.1-5.2,0.7c-0.5,0.9-0.5,1.7-0.1,2.6c0.4,0.8,1.2,1.6,2.4,2.2C486.7,671,487.9,671.3,488.9,671.2z"/>
</g>
<g class="st2">
	<path d="M501.3,678.3c-1-1.1-1.6-2.4-1.9-3.9c-0.3-1.5-0.1-3,0.4-4.6s1.4-2.8,2.5-3.8c1.1-1,2.4-1.6,3.9-1.8c1.5-0.2,3-0.1,4.6,0.5
		c1.4,0.5,2.5,1.2,3.4,2.1c0.9,0.9,1.5,2,1.7,3.2l-2,0.5c-0.2-1-0.7-1.8-1.4-2.5c-0.7-0.7-1.5-1.2-2.4-1.5c-1.1-0.4-2.3-0.5-3.4-0.3
		s-2.1,0.7-2.9,1.4c-0.8,0.8-1.5,1.8-1.9,3c-0.4,1.2-0.6,2.4-0.4,3.5c0.2,1.1,0.6,2.1,1.4,2.9c0.7,0.8,1.7,1.5,2.8,1.9
		c0.9,0.3,1.9,0.4,2.8,0.3c0.9-0.1,1.8-0.4,2.6-1.1l1.2,1.7c-1,0.8-2.1,1.3-3.4,1.4c-1.3,0.2-2.6,0-3.9-0.5
		C503.6,680.3,502.3,679.5,501.3,678.3z M499.3,685.3l0.9-1c0.4,0.6,1,1,1.8,1.3c0.6,0.2,1.1,0.3,1.5,0.1c0.4-0.1,0.7-0.4,0.9-0.9
		c0.1-0.4,0.1-0.8-0.1-1.2c-0.2-0.4-0.6-0.7-1.3-0.9l-0.7-0.2l1.7-2.5l1.3,0.5l-1.1,1.6c0.8,0.4,1.3,0.9,1.6,1.4
		c0.3,0.6,0.3,1.2,0.1,1.9c-0.3,0.8-0.8,1.3-1.6,1.6c-0.8,0.3-1.7,0.2-2.7-0.2C500.6,686.6,499.8,686,499.3,685.3z"/>
</g>
<g class="st2">
	<path d="M531.1,671.5c0.9,1.3,1.2,3,0.8,5.1l-2,10.2l-2.1-0.4l0.5-2.6c-0.7,0.8-1.5,1.3-2.6,1.6s-2.3,0.3-3.6,0
		c-1.8-0.4-3.2-1.1-4.1-2.2c-0.9-1.1-1.2-2.4-1-3.8c0.3-1.4,1-2.4,2.2-3.1c1.2-0.7,2.9-0.8,5.1-0.3l5.2,1l0.2-1
		c0.3-1.4,0.1-2.6-0.6-3.5c-0.7-0.9-1.7-1.5-3.3-1.8c-1-0.2-2.1-0.2-3.1-0.1c-1,0.2-2,0.5-2.8,0.9l-0.7-1.9c1-0.5,2.1-0.9,3.3-1.1
		c1.2-0.2,2.5-0.1,3.8,0.1C528.6,669.3,530.1,670.2,531.1,671.5z M526.1,683.5c1-0.4,1.8-1.1,2.5-2.1l0.5-2.7l-5.2-1
		c-2.8-0.5-4.4,0.2-4.8,2.1c-0.2,1,0,1.8,0.7,2.5c0.6,0.7,1.6,1.2,2.9,1.4C524,684,525.1,683.9,526.1,683.5z M527.9,666.1
		c-0.3-0.3-0.7-0.7-1-1.2c-0.3-0.4-0.6-0.7-0.8-0.9c-0.2-0.2-0.4-0.3-0.7-0.3c-0.5-0.1-0.9,0-1.3,0.3s-0.6,0.8-0.8,1.4l-1.4-0.3
		c0.2-1,0.7-1.8,1.3-2.4c0.6-0.5,1.4-0.7,2.2-0.6c0.5,0.1,0.9,0.3,1.2,0.6c0.3,0.3,0.7,0.7,1.1,1.2c0.3,0.4,0.5,0.6,0.7,0.8
		c0.2,0.2,0.4,0.3,0.7,0.4c0.5,0.1,0.9,0,1.2-0.3c0.4-0.3,0.6-0.7,0.8-1.3l1.4,0.3c-0.2,1-0.7,1.8-1.3,2.3c-0.6,0.5-1.4,0.7-2.2,0.5
		C528.6,666.6,528.2,666.4,527.9,666.1z"/>
</g>
<g class="st2">
	<path d="M540.1,686.9c-1.3-0.8-2.3-1.8-2.9-3.2c-0.7-1.3-1-2.8-0.9-4.5c0.1-1.6,0.5-3.1,1.3-4.4c0.8-1.3,1.9-2.2,3.2-2.9
		c1.3-0.7,2.8-1,4.4-0.9c1.6,0.1,3.1,0.5,4.3,1.3c1.3,0.8,2.2,1.8,2.9,3.2s1,2.8,0.9,4.5c-0.1,1.6-0.5,3.1-1.3,4.4
		c-0.8,1.3-1.8,2.2-3.2,2.9c-1.3,0.7-2.8,1-4.4,0.9C542.8,688.1,541.3,687.7,540.1,686.9z M547.7,685.5c1-0.5,1.7-1.2,2.3-2.2
		c0.6-1,0.9-2.1,0.9-3.4c0.1-1.3-0.2-2.4-0.7-3.5c-0.5-1-1.2-1.8-2.1-2.4s-2-0.9-3.2-0.9s-2.3,0.2-3.2,0.7c-1,0.5-1.7,1.2-2.3,2.2
		c-0.6,1-0.9,2.1-1,3.4s0.2,2.4,0.7,3.5c0.5,1,1.2,1.8,2.1,2.4c0.9,0.6,2,0.9,3.2,0.9S546.8,686,547.7,685.5z"/>
</g>
<g class="st2">
	<path d="M579.7,660.9l4.5,23.3l-2.1,0.4l-0.6-3.3c-0.5,1.2-1.2,2.3-2.2,3.1s-2.2,1.3-3.5,1.6c-1.5,0.3-3,0.2-4.4-0.3
		c-1.4-0.5-2.6-1.3-3.5-2.4c-1-1.1-1.6-2.5-1.9-4.2c-0.3-1.6-0.2-3.2,0.2-4.6c0.5-1.4,1.3-2.6,2.4-3.5c1.1-0.9,2.5-1.6,4-1.9
		c1.3-0.3,2.6-0.2,3.8,0.1c1.2,0.3,2.2,1,3.1,1.9l-1.9-9.9L579.7,660.9z M578.5,682.5c0.8-0.7,1.4-1.6,1.8-2.7s0.4-2.3,0.1-3.5
		c-0.2-1.3-0.7-2.3-1.5-3.2c-0.7-0.9-1.6-1.5-2.6-1.8c-1-0.4-2.1-0.4-3.3-0.2c-1.2,0.2-2.2,0.7-3,1.4c-0.8,0.7-1.4,1.6-1.8,2.7
		c-0.3,1.1-0.4,2.3-0.1,3.5c0.2,1.3,0.7,2.3,1.5,3.2s1.6,1.5,2.6,1.8c1,0.4,2.1,0.4,3.3,0.2C576.7,683.7,577.7,683.2,578.5,682.5z"
		/>
</g>
<g class="st2">
	<path d="M603,669.5l-13.2,4.9c0.7,1.6,1.8,2.7,3.4,3.3c1.5,0.6,3.1,0.6,4.9-0.1c1-0.4,1.8-0.9,2.5-1.5c0.7-0.7,1.2-1.4,1.6-2.3
		l1.7,0.9c-0.4,1.1-1,2.1-1.9,2.9c-0.9,0.8-2,1.5-3.2,1.9c-1.6,0.6-3.2,0.8-4.7,0.6c-1.5-0.2-2.8-0.8-4-1.8c-1.2-1-2-2.2-2.6-3.8
		c-0.6-1.5-0.7-3-0.5-4.5c0.2-1.5,0.8-2.8,1.7-3.9c0.9-1.1,2.1-1.9,3.6-2.5c1.5-0.5,2.9-0.7,4.3-0.4c1.4,0.3,2.7,0.9,3.8,1.8
		c1.1,1,2,2.2,2.5,3.8L603,669.5z M589.6,668.4c-0.7,1.4-0.8,2.8-0.4,4.4l11.2-4.1c-0.7-1.5-1.8-2.6-3.2-3.1c-1.4-0.6-2.9-0.6-4.4,0
		C591.4,666,590.3,667,589.6,668.4z"/>
</g>
<g class="st2">
	<path d="M623.6,640l4.2,24.1l-1.9,1.3l-20.7-13.1l2.1-1.4l18,11.4l-3.7-21L623.6,640z"/>
</g>
<g class="st2">
	<path d="M636.7,637.2c1.6,0,3.1,0.8,4.6,2.4l7.1,7.7l-1.6,1.5l-1.8-1.9c0.2,1,0.1,2-0.3,3c-0.4,1-1.1,2-2.1,2.9
		c-1.4,1.3-2.8,2-4.2,2.1c-1.4,0.1-2.6-0.4-3.6-1.5c-1-1.1-1.4-2.2-1.2-3.6c0.2-1.3,1.1-2.8,2.7-4.3l3.9-3.6l-0.7-0.8
		c-1-1.1-2-1.6-3.1-1.6c-1.1,0-2.2,0.5-3.4,1.6c-0.8,0.7-1.4,1.5-1.9,2.5c-0.5,0.9-0.8,1.9-0.9,2.8l-1.9-0.6
		c0.1-1.1,0.5-2.2,1.1-3.3c0.6-1.1,1.4-2.1,2.4-3C633.5,637.9,635.1,637.2,636.7,637.2z M643.5,648.3c0.3-1.1,0.2-2.1-0.2-3.3
		l-1.9-2l-3.9,3.6c-2.1,2-2.5,3.7-1.1,5.1c0.7,0.7,1.5,1,2.4,0.9c0.9-0.1,1.9-0.6,2.9-1.5C642.6,650.3,643.2,649.4,643.5,648.3z"/>
</g>
<g class="st2">
	<path d="M635,626.6l1.5-1.7l17.8,15.7l-1.5,1.7L635,626.6z"/>
</g>
<g class="st2">
	<path d="M659.8,632.5c-1.4,0.6-2.8,0.9-4.3,0.8c-1.5-0.1-2.9-0.7-4.3-1.6c-1.3-0.9-2.3-2.1-3-3.5c-0.6-1.4-0.9-2.8-0.7-4.3
		c0.2-1.5,0.7-2.9,1.6-4.2c0.9-1.3,2.1-2.3,3.4-3s2.8-0.9,4.2-0.7c1.5,0.1,2.9,0.7,4.2,1.6c1.3,0.9,2.3,2.1,3,3.4
		c0.6,1.4,0.9,2.8,0.7,4.3c-0.1,1.5-0.7,2.9-1.6,4.2C662.3,630.9,661.1,631.8,659.8,632.5z M662.7,625.3c0.1-1.1-0.1-2.1-0.6-3.2
		c-0.5-1-1.3-1.9-2.3-2.6s-2.1-1.2-3.3-1.3s-2.2,0-3.2,0.5c-1,0.5-1.8,1.2-2.5,2.2c-0.7,1-1.1,2-1.2,3.1c-0.1,1.1,0.1,2.1,0.6,3.2
		c0.5,1,1.3,1.9,2.3,2.6s2.1,1.2,3.3,1.3c1.1,0.1,2.2,0,3.2-0.5c1-0.5,1.8-1.2,2.5-2.2C662.2,627.4,662.6,626.4,662.7,625.3z"/>
</g>
<g class="st2">
	<path d="M658.7,605.7c0-1.2,0.3-2.5,1.1-3.9l2,1l-0.3,0.5c-0.8,1.6-1,3-0.5,4.4c0.5,1.4,1.6,2.5,3.3,3.5l7.6,4l-1.1,2l-14.9-7.8
		l1-1.9l2.9,1.5C659.1,608,658.7,606.9,658.7,605.7z"/>
</g>
<g class="st2">
	<path class="st6" d="M330.3,881.5c-1-1.8-1.4-3.7-1.3-5.7c0.1-2,0.7-3.9,1.9-5.7c1.2-1.8,2.7-3.2,4.5-4.1c1.8-0.9,3.7-1.3,5.8-1.1
		c2,0.2,4,0.8,5.8,2c1.4,0.9,2.5,2,3.4,3.2c0.9,1.2,1.4,2.6,1.7,4l-2.1,0.4c-0.5-2.4-1.9-4.4-4.1-5.8c-1.5-1-3.1-1.5-4.7-1.6
		c-1.7-0.1-3.2,0.2-4.7,0.9c-1.5,0.7-2.7,1.8-3.6,3.3c-1,1.5-1.5,3-1.5,4.6c-0.1,1.6,0.3,3.2,1,4.6c0.8,1.5,1.9,2.7,3.4,3.6
		c2.3,1.5,4.6,1.9,7,1.3l0.4,2.1c-1.4,0.4-2.9,0.4-4.4,0.1c-1.5-0.3-2.9-0.9-4.3-1.8C332.6,884.8,331.2,883.3,330.3,881.5z"/>
</g>
<g class="st2">
	<path class="st6" d="M366.6,885.4l-8.4,14.6l-1.9-1.1l1.5-2.7c-1,0.6-2.1,0.9-3.3,0.8c-1.2,0-2.4-0.4-3.5-1
		c-1.9-1.1-3.1-2.5-3.6-4.2c-0.5-1.7-0.1-3.6,1-5.6l4.9-8.5l2,1.1l-4.7,8.3c-0.9,1.5-1.2,2.9-0.9,4.2c0.3,1.2,1.2,2.2,2.6,3.1
		c1.5,0.9,3,1.1,4.4,0.7c1.4-0.4,2.6-1.5,3.6-3.1l4.4-7.7L366.6,885.4z"/>
</g>
<g class="st2">
	<path class="st6" d="M374.5,881.7l2,1.1l-11,21l-2-1.1L374.5,881.7z"/>
</g>
<g class="st2">
	<path class="st6" d="M379.3,909.5c-0.6,0.2-1.2,0.2-1.8,0.1c-0.7-0.1-1.3-0.3-1.9-0.6c-1.4-0.7-2.3-1.6-2.7-2.8
		c-0.4-1.1-0.2-2.4,0.4-3.8l4.5-9.1l-2.7-1.3l0.8-1.7l2.7,1.3l1.6-3.3l2,1l-1.6,3.3l4.6,2.3l-0.8,1.7l-4.6-2.3l-4.4,9
		c-0.4,0.9-0.6,1.7-0.3,2.4c0.2,0.7,0.8,1.2,1.6,1.7c0.4,0.2,0.9,0.3,1.3,0.4c0.5,0.1,0.9,0,1.3-0.1L379.3,909.5z"/>
</g>
<g class="st2">
	<path class="st6" d="M402.6,902.6l-6.8,15.4l-2-0.9l1.2-2.8c-1,0.7-2,1.1-3.2,1.2c-1.2,0.1-2.4-0.1-3.6-0.7c-2-0.9-3.4-2.1-4-3.8
		c-0.7-1.6-0.5-3.5,0.4-5.7l3.9-8.9l2.1,0.9l-3.8,8.7c-0.7,1.6-0.9,3-0.4,4.2c0.4,1.2,1.4,2.1,2.9,2.8c1.6,0.7,3.1,0.8,4.5,0.2
		c1.4-0.6,2.4-1.7,3.2-3.5l3.6-8.1L402.6,902.6z"/>
</g>
<g class="st2">
	<path class="st6" d="M411.5,906.9c1.2-0.2,2.5,0.1,4,0.6l-0.8,2.1l-0.5-0.2c-1.6-0.6-3.1-0.6-4.5,0c-1.3,0.6-2.4,1.9-3.1,3.7
		l-3.1,8l-2.1-0.8l6.1-15.7l2,0.8l-1.2,3.1C409.3,907.6,410.3,907.1,411.5,906.9z"/>
</g>
<g class="st2">
	<path class="st6" d="M428.8,914c0.8,1.4,0.8,3.1,0.1,5.2l-3.4,9.9l-2.1-0.7l0.9-2.5c-0.8,0.7-1.7,1.1-2.8,1.2
		c-1.1,0.1-2.3,0-3.6-0.5c-1.8-0.6-3-1.5-3.8-2.7c-0.8-1.2-0.9-2.5-0.4-3.9c0.5-1.4,1.3-2.3,2.6-2.8s3-0.4,5.1,0.4l5.1,1.7l0.3-1
		c0.5-1.4,0.5-2.5-0.1-3.5s-1.5-1.7-3-2.2c-1-0.3-2-0.5-3.1-0.5c-1,0-2,0.2-2.9,0.6l-0.4-1.9c1-0.4,2.2-0.6,3.5-0.6
		c1.3,0,2.5,0.2,3.8,0.7C426.7,911.5,428.1,912.6,428.8,914z M422.2,925.3c1.1-0.3,2-0.8,2.8-1.7l0.9-2.6l-5-1.7
		c-2.7-0.9-4.4-0.5-5.1,1.4c-0.3,0.9-0.2,1.8,0.3,2.6c0.5,0.8,1.4,1.4,2.7,1.8C420,925.5,421.2,925.5,422.2,925.3z"/>
</g>
<g class="st2">
	<path class="st6" d="M456,931.6l-12.1-3.2l-4.1,5.1l-2.4-0.6l15.6-19.1l2.3,0.6l4.2,24.3L457,938L456,931.6z M455.6,929.5l-2.1-13
		l-8.3,10.3L455.6,929.5z"/>
</g>
<g class="st2">
	<path class="st6" d="M479.5,927.3c1,1.5,1.2,3.3,0.8,5.6l-2,9.6l-2.2-0.5l1.9-9.3c0.3-1.7,0.2-3.1-0.5-4.2
		c-0.7-1.1-1.8-1.8-3.4-2.1c-1.8-0.4-3.3-0.1-4.5,0.7c-1.3,0.8-2.1,2.2-2.4,4.1l-1.8,8.7l-2.2-0.5l3.4-16.5l2.1,0.4l-0.6,3
		c0.8-0.9,1.8-1.5,3-1.8c1.2-0.3,2.5-0.4,3.9-0.1C477,924.9,478.5,925.9,479.5,927.3z"/>
</g>
<g class="st2">
	<path class="st6" d="M497.4,930c1,1.3,1.3,3,1,5.1l-1.5,10.3l-2.2-0.3l0.4-2.6c-0.6,0.8-1.5,1.4-2.5,1.7c-1.1,0.3-2.3,0.4-3.6,0.2
		c-1.9-0.3-3.3-0.9-4.2-2c-1-1.1-1.3-2.3-1.1-3.8c0.2-1.4,0.9-2.5,2-3.2c1.2-0.7,2.8-0.9,5.1-0.6l5.3,0.8l0.2-1
		c0.2-1.4,0-2.6-0.7-3.5c-0.7-0.9-1.8-1.4-3.3-1.7c-1.1-0.2-2.1-0.1-3.1,0.1c-1,0.2-1.9,0.6-2.7,1.1l-0.8-1.8c1-0.6,2-1,3.3-1.2
		c1.2-0.2,2.5-0.2,3.8,0C494.8,927.9,496.4,928.7,497.4,930z M493,942.3c1-0.4,1.8-1.2,2.4-2.2l0.4-2.7l-5.2-0.8
		c-2.8-0.4-4.4,0.4-4.7,2.3c-0.1,1,0.1,1.8,0.8,2.5c0.7,0.7,1.6,1.1,3,1.3C490.9,942.8,492,942.7,493,942.3z"/>
</g>
<g class="st2">
	<path class="st6" d="M505.3,922.5l2.3,0.3l-2.7,23.6l-2.3-0.3L505.3,922.5z"/>
</g>
<g class="st2">
	<path class="st6" d="M512.2,930.2l2.3,0.2l-1.6,16.8l-2.3-0.2L512.2,930.2z M516.2,923.9l3,0.3l-5.5,3.5l-2.2-0.2L516.2,923.9z"/>
</g>
<g class="st2">
	<path class="st6" d="M527.8,947.3c-0.5,0.4-1,0.6-1.6,0.8c-0.6,0.2-1.3,0.2-2,0.2c-1.6-0.1-2.8-0.6-3.6-1.5c-0.8-0.9-1.1-2.1-1-3.7
		l0.7-10.2l-3-0.2l0.1-1.9l3,0.2l0.3-3.7l2.3,0.2l-0.3,3.7l5.1,0.4l-0.1,1.9l-5.1-0.4l-0.7,10c-0.1,1,0.1,1.8,0.6,2.3
		c0.5,0.6,1.2,0.9,2.1,0.9c0.5,0,0.9,0,1.4-0.1c0.4-0.1,0.8-0.3,1.2-0.6L527.8,947.3z"/>
</g>
<g class="st2">
	<path class="st6" d="M532.1,931.6l2.3,0.1l-0.7,16.8l-2.3-0.1L532.1,931.6z M532.3,927.5c-0.3-0.3-0.4-0.7-0.4-1.2
		c0-0.4,0.2-0.8,0.5-1.1s0.7-0.4,1.2-0.4s0.9,0.2,1.2,0.5c0.3,0.3,0.5,0.7,0.4,1.1c0,0.5-0.2,0.9-0.5,1.2c-0.3,0.3-0.7,0.4-1.2,0.4
		S532.6,927.8,532.3,927.5z"/>
</g>
<g class="st2">
	<path class="st6" d="M542.3,947.9c-1.3-0.7-2.3-1.8-3.1-3.1c-0.7-1.3-1.1-2.8-1.1-4.4s0.4-3.1,1.2-4.4c0.8-1.3,1.8-2.3,3.1-3
		s2.8-1.1,4.5-1c1.5,0,2.7,0.3,3.9,0.9c1.1,0.6,2,1.4,2.7,2.5l-1.7,1.1c-0.5-0.8-1.2-1.5-2.1-1.9c-0.8-0.4-1.8-0.6-2.8-0.7
		c-1.2,0-2.3,0.2-3.3,0.8c-1,0.5-1.7,1.3-2.3,2.3c-0.6,1-0.8,2.1-0.8,3.4c0,1.3,0.2,2.5,0.8,3.4c0.5,1,1.3,1.8,2.2,2.3
		c1,0.6,2.1,0.8,3.3,0.8c1,0,1.9-0.2,2.8-0.6c0.9-0.4,1.6-1,2.1-1.8l1.7,1.2c-0.7,1.1-1.6,1.9-2.7,2.5c-1.2,0.6-2.5,0.8-3.9,0.8
		C545.1,949,543.6,948.6,542.3,947.9z"/>
</g>
<g class="st2">
	<path class="st6" d="M568.5,933.1c1.2,1.1,1.9,2.7,1.9,4.8l0.4,10.4l-2.2,0.1l-0.1-2.6c-0.5,0.9-1.2,1.6-2.2,2.1
		c-1,0.5-2.1,0.8-3.5,0.9c-1.9,0.1-3.4-0.3-4.5-1.2c-1.1-0.9-1.7-2-1.8-3.5c-0.1-1.4,0.4-2.6,1.4-3.5s2.6-1.4,4.9-1.5l5.3-0.2l0-1
		c-0.1-1.4-0.5-2.5-1.3-3.3c-0.8-0.7-2-1.1-3.6-1c-1.1,0-2.1,0.3-3.1,0.6c-1,0.4-1.8,0.9-2.5,1.5l-1.1-1.7c0.8-0.8,1.8-1.3,3-1.8
		c1.2-0.4,2.4-0.7,3.8-0.7C565.6,931.6,567.3,932.1,568.5,933.1z M566.4,946c0.9-0.6,1.5-1.5,2-2.6l-0.1-2.8l-5.3,0.2
		c-2.9,0.1-4.3,1.2-4.2,3.2c0,1,0.4,1.7,1.2,2.3c0.8,0.5,1.8,0.8,3.2,0.7C564.5,947,565.5,946.6,566.4,946z"/>
</g>
<g class="st2">
	<path class="st6" d="M587.2,946.6c-0.9-2.5-1.5-5.2-1.7-8.1c-0.3-2.9-0.2-5.7,0.2-8.3c0.4-2.6,1.1-4.9,2.1-7l2.2-0.2
		c-1,2.3-1.7,4.7-2.1,7.2s-0.4,5.2-0.1,8.1c0.3,2.9,0.8,5.5,1.6,7.9c0.8,2.4,2,4.6,3.4,6.6l-2.2,0.2
		C589.2,951.2,588.1,949.1,587.2,946.6z"/>
</g>
<g class="st2">
	<path class="st6" d="M593.5,924.1l9-1.3c2.3-0.3,4.5-0.2,6.4,0.5c1.9,0.7,3.5,1.8,4.7,3.3c1.2,1.5,2,3.4,2.3,5.5s0.1,4.1-0.7,6
		c-0.8,1.8-2,3.3-3.6,4.5c-1.7,1.2-3.7,2-6,2.3l-9,1.3L593.5,924.1z M605.2,943c1.9-0.3,3.6-0.9,4.9-1.9c1.3-1,2.3-2.2,2.9-3.7
		c0.6-1.5,0.8-3.1,0.5-4.9c-0.3-1.8-0.9-3.3-1.9-4.5c-1-1.2-2.3-2.2-3.8-2.7c-1.6-0.6-3.3-0.7-5.3-0.4l-6.6,0.9l2.6,18.1L605.2,943z
		"/>
</g>
<g class="st2">
	<path class="st6" d="M630.3,925.1c1.4,0.8,2.3,2.3,2.7,4.4l2.1,10.2l-2.1,0.4l-0.5-2.6c-0.3,1-0.9,1.8-1.8,2.5
		c-0.9,0.7-2,1.1-3.3,1.4c-1.8,0.4-3.4,0.2-4.7-0.4c-1.3-0.7-2-1.7-2.3-3.2c-0.3-1.4,0-2.6,0.8-3.7c0.8-1.1,2.4-1.8,4.6-2.3l5.2-1.1
		l-0.2-1c-0.3-1.4-0.9-2.4-1.8-3c-0.9-0.6-2.2-0.7-3.7-0.4c-1,0.2-2,0.6-2.9,1.1c-0.9,0.5-1.6,1.2-2.2,1.9l-1.3-1.5
		c0.7-0.9,1.6-1.6,2.7-2.3c1.1-0.6,2.3-1.1,3.6-1.3C627.2,924.1,628.9,924.3,630.3,925.1z M630.3,938.2c0.8-0.8,1.3-1.7,1.5-2.9
		l-0.5-2.7l-5.2,1c-2.8,0.6-4,1.8-3.6,3.8c0.2,1,0.7,1.6,1.6,2.1c0.8,0.4,1.9,0.5,3.2,0.2C628.5,939.5,629.5,939,630.3,938.2z"/>
</g>
<g class="st2">
	<path class="st6" d="M648.9,935.5c-0.3,0.5-0.8,0.9-1.3,1.2c-0.6,0.3-1.2,0.6-1.8,0.8c-1.5,0.4-2.8,0.2-3.8-0.4
		c-1-0.6-1.7-1.7-2.1-3.2l-2.4-9.9l-2.9,0.7l-0.4-1.9l2.9-0.7l-0.9-3.6l2.2-0.5l0.9,3.6l5-1.2l0.4,1.9l-5,1.2l2.4,9.8
		c0.2,1,0.7,1.7,1.3,2c0.6,0.4,1.4,0.5,2.3,0.3c0.5-0.1,0.9-0.3,1.3-0.5c0.4-0.2,0.7-0.5,1-0.9L648.9,935.5z"/>
</g>
<g class="st2">
	<path class="st6" d="M659.5,917.7c1.4,0.7,2.4,2.1,3,4.2l2.8,10l-2.1,0.6l-0.7-2.5c-0.3,1-0.8,1.8-1.6,2.6
		c-0.8,0.7-1.9,1.3-3.2,1.7c-1.8,0.5-3.4,0.5-4.7-0.1c-1.3-0.6-2.2-1.5-2.6-3c-0.4-1.4-0.2-2.6,0.5-3.7c0.8-1.1,2.2-2,4.4-2.6
		l5.1-1.5l-0.3-1c-0.4-1.4-1.1-2.3-2.1-2.9c-1-0.5-2.2-0.5-3.7-0.1c-1,0.3-2,0.7-2.8,1.3c-0.8,0.6-1.5,1.3-2,2.1l-1.4-1.4
		c0.6-0.9,1.5-1.7,2.5-2.5c1-0.7,2.2-1.2,3.5-1.6C656.3,916.9,658.1,917,659.5,917.7z M660.5,930.7c0.7-0.8,1.1-1.8,1.3-3l-0.8-2.6
		l-5.1,1.4c-2.8,0.8-3.9,2.1-3.3,4.1c0.3,0.9,0.8,1.6,1.7,1.9s2,0.3,3.2,0C658.8,932.1,659.8,931.5,660.5,930.7z"/>
</g>
<g class="st2">
	<path class="st6" d="M672.9,906l8.6-3.2c2.2-0.8,4.4-1.1,6.4-0.9c2,0.3,3.8,1,5.4,2.3c1.5,1.2,2.7,2.9,3.4,4.9c0.8,2,1,4,0.6,6
		c-0.3,1.9-1.2,3.7-2.6,5.2c-1.4,1.5-3.2,2.7-5.4,3.5l-8.6,3.2L672.9,906z M688.5,922c1.8-0.7,3.3-1.7,4.4-2.9
		c1.1-1.2,1.8-2.7,2.1-4.2c0.3-1.6,0.1-3.2-0.5-4.9c-0.6-1.7-1.6-3-2.8-4c-1.2-1-2.7-1.6-4.3-1.8c-1.7-0.2-3.4,0-5.3,0.7l-6.2,2.3
		l6.4,17.2L688.5,922z"/>
</g>
<g class="st2">
	<path class="st6" d="M703,900.9c0.7-1,1.8-1.7,3.3-2.4l0.9,2l-0.5,0.2c-1.6,0.7-2.7,1.8-3.2,3.2c-0.5,1.4-0.3,3,0.4,4.8l3.4,7.9
		l-2.1,0.9l-6.7-15.5l2-0.9l1.3,3C701.9,902.9,702.3,901.8,703,900.9z"/>
</g>
<g class="st2">
	<path class="st6" d="M707.6,893.5c-0.4-0.2-0.7-0.4-0.9-0.8c-0.2-0.4-0.2-0.8,0-1.2c0.2-0.4,0.4-0.7,0.9-0.9s0.8-0.2,1.3-0.1
		c0.4,0.1,0.7,0.4,0.9,0.8c0.2,0.4,0.2,0.9,0.1,1.3c-0.2,0.4-0.4,0.7-0.9,0.9S708,893.7,707.6,893.5z M709.4,897.3l2.1-1l7.1,15.3
		l-2.1,1L709.4,897.3z"/>
</g>
<g class="st2">
	<path class="st6" d="M729.4,887.5l0.9,18.3l-2.1,1.1L714,895.3l2.1-1.1l12.1,9.9l-0.8-15.6L729.4,887.5z"/>
</g>
<g class="st2">
	<path class="st6" d="M748.7,887.1l-12.3,6.9c1,1.5,2.3,2.4,3.8,2.7s3.2,0.1,4.8-0.9c0.9-0.5,1.7-1.1,2.2-1.9c0.6-0.8,1-1.6,1.2-2.6
		l1.8,0.7c-0.2,1.1-0.7,2.2-1.4,3.2c-0.7,1-1.7,1.8-2.9,2.4c-1.5,0.8-3,1.3-4.5,1.3c-1.5,0-2.9-0.4-4.2-1.1
		c-1.3-0.8-2.3-1.9-3.1-3.3c-0.8-1.4-1.2-2.9-1.2-4.4c0-1.5,0.3-2.8,1.1-4.1c0.7-1.2,1.8-2.2,3.1-3c1.4-0.8,2.8-1.1,4.2-1.1
		c1.4,0,2.8,0.4,4,1.2c1.2,0.8,2.3,1.9,3.1,3.3L748.7,887.1z M735.2,888.1c-0.5,1.4-0.3,2.9,0.4,4.4l10.4-5.9
		c-0.9-1.4-2.2-2.2-3.6-2.6c-1.5-0.4-2.9-0.1-4.3,0.7C736.6,885.5,735.7,886.6,735.2,888.1z"/>
</g>
<g class="st2">
	<path class="st6" d="M759.9,871.5c1.7,0.4,3.2,1.5,4.4,3.5l5.2,8.2l-1.9,1.2l-5.1-8c-0.9-1.5-2-2.4-3.2-2.7c-1.2-0.3-2.5,0-3.9,0.8
		c-1.5,1-2.4,2.2-2.8,3.6c-0.3,1.5,0,3,1,4.6l4.7,7.4l-1.9,1.2l-8.9-14.1l1.8-1.2l1.6,2.6c0-1.2,0.3-2.3,0.9-3.4
		c0.6-1.1,1.5-2,2.8-2.7C756.5,871.5,758.2,871.1,759.9,871.5z"/>
</g>
<g class="st2">
	<path class="st6" d="M775.8,886.4c-0.2-2.5-0.8-4.9-1.7-7.3c-0.9-2.4-2.2-4.7-3.9-7.1c-1.7-2.4-3.4-4.4-5.3-6.1
		c-1.9-1.7-4-3-6.2-4.1l1.8-1.2c2.1,0.9,4.1,2.2,6.1,3.9c2,1.7,3.8,3.8,5.5,6.2c1.7,2.4,3,4.8,3.9,7.3c0.9,2.5,1.5,4.8,1.6,7.1
		L775.8,886.4z"/>
</g>
</svg>
