<svg id="Layer_1" data-name="Layer 1" xmlns="http://www.w3.org/2000/svg" width="1100" height="1100" viewBox="0 0 1100 1100">
  <defs>
    <style>
      .cls-1 {
        fill: #c5c5c5;
      }

      .cls-2 {
        fill: #5b5b5b;
      }

      .cls-11, .cls-3 {
        font-size: 32px;
      }

      .cls-11, .cls-12, .cls-3, .cls-8 {
        font-family: Montserrat-Regular, Montserrat;
      }

      .cls-4 {
        fill: #222;
      }

      .cls-5 {
        fill: #475a76;
      }

      .cls-6 {
        fill: #9fcb83;
      }

      .cls-11, .cls-12, .cls-7 {
        fill: #fff;
      }

      .cls-8 {
        font-size: 28px;
      }

      .cls-9 {
        letter-spacing: -0.02em;
      }

      .cls-10 {
        letter-spacing: 0em;
      }

      .cls-12 {
        font-size: 31.34px;
      }

      .cls-13 {
        fill: #0092dc;
      }

      .cls-14 {
        fill: #ff8000;
      }
    </style>
  </defs>
  <circle class="cls-1" cx="550" cy="550" r="550"/>
  <circle class="cls-2" cx="550" cy="550" r="484"/>
  <text class="cls-3" transform="matrix(0.85, -0.52, 0.52, 0.85, 280.06, 126.18)">T</text>
  <text class="cls-3" transform="matrix(0.87, -0.5, 0.5, 0.87, 295.22, 116.94)">r</text>
  <text class="cls-3" transform="translate(305.94 110.75) rotate(-28.03)">a</text>
  <text class="cls-3" transform="matrix(0.9, -0.43, 0.43, 0.9, 322.41, 101.95)">n</text>
  <text class="cls-3" transform="translate(341.77 92.67) rotate(-23.64)">s</text>
  <text class="cls-3" transform="translate(355.99 86.47) rotate(-22.15)">f</text>
  <text class="cls-3" transform="matrix(0.94, -0.35, 0.35, 0.94, 365.59, 82.49)">o</text>
  <text class="cls-3" transform="matrix(0.95, -0.32, 0.32, 0.95, 384.26, 75.59)">r</text>
  <text class="cls-3" transform="translate(395.86 71.42) rotate(-15.95)">m</text>
  <text class="cls-3" transform="translate(428.29 62.35) rotate(-12.95)">a</text>
  <text class="cls-3" transform="translate(446.56 58.16) rotate(-10.85)">ç</text>
  <text class="cls-3" transform="translate(464.06 54.79) rotate(-8.75)">ã</text>
  <text class="cls-3" transform="translate(482.59 51.92) rotate(-6.53)">o</text>
  <text class="cls-3" transform="translate(502.37 49.74) rotate(-4.91)"> </text>
  <text class="cls-3" transform="translate(510.53 48.88) rotate(-2.94)">D</text>
  <text class="cls-3" transform="translate(536.74 47.69) rotate(-0.95)">i</text>
  <text class="cls-3" transform="translate(545.2 47.44) rotate(0.78)">g</text>
  <text class="cls-3" transform="translate(566.98 47.84) rotate(2.5)">i</text>
  <text class="cls-3" transform="translate(575.46 48.18) rotate(3.71)">t</text>
  <text class="cls-3" transform="matrix(1, 0.1, -0.1, 1, 588.28, 48.97)">a</text>
  <text class="cls-3" transform="matrix(0.99, 0.12, -0.12, 0.99, 606.91, 50.83)">l</text>
  <text class="cls-3" transform="translate(615.38 51.89) rotate(7.71)"> </text>
  <text class="cls-3" transform="matrix(0.99, 0.17, -0.17, 0.99, 623.52, 52.91)">d</text>
  <text class="cls-3" transform="translate(644.71 56.52) rotate(11.96)">o</text>
  <text class="cls-3" transform="translate(664.13 60.67) rotate(13.96)">s</text>
  <text class="cls-3" transform="matrix(0.96, 0.26, -0.26, 0.96, 679.2, 64.46)"> </text>
  <text class="cls-3" transform="matrix(0.96, 0.3, -0.3, 0.96, 687.14, 66.47)">N</text>
  <text class="cls-3" transform="translate(711.73 74.18) rotate(19.82)">e</text>
  <text class="cls-3" transform="translate(729.73 80.63) rotate(22.16)">g</text>
  <text class="cls-3" transform="translate(749.86 88.84) rotate(24.55)">ó</text>
  <text class="cls-3" transform="translate(767.91 97.11) rotate(26.71)">c</text>
  <text class="cls-3" transform="matrix(0.88, 0.47, -0.47, 0.88, 783.84, 105.19)">i</text>
  <text class="cls-3" transform="translate(791.33 109.12) rotate(29.86)">o</text>
  <text class="cls-3" transform="translate(808.54 119.04) rotate(31.88)">s</text>
  <circle class="cls-4" cx="550" cy="550" r="418"/>
  <circle class="cls-5" cx="550" cy="550" r="200"/>
  <circle class="cls-6" cx="550" cy="550" r="150"/>
  <circle class="cls-7" cx="550" cy="550" r="100"/>
  <text class="cls-8" transform="translate(485.22 518.56)">Negócios<tspan x="-19.54" y="30">dos Clien</tspan><tspan class="cls-9" x="109.09" y="30">t</tspan><tspan class="cls-10" x="119.92" y="30">es</tspan></text>
  <text class="cls-11" transform="matrix(0.89, -0.46, 0.46, 0.89, 344.85, 161.81)">I</text>
  <text class="cls-11" transform="translate(353.22 157.37) rotate(-25.26)">n</text>
  <text class="cls-11" transform="translate(372.59 148.23) rotate(-22.47)">n</text>
  <text class="cls-11" transform="matrix(0.94, -0.34, 0.34, 0.94, 392.44, 140.04)">o</text>
  <text class="cls-11" transform="matrix(0.95, -0.3, 0.3, 0.95, 410.67, 133.5)">v</text>
  <text class="cls-11" transform="translate(426.5 128.51) rotate(-15.13)">a</text>
  <text class="cls-11" transform="matrix(0.97, -0.23, 0.23, 0.97, 444.56, 123.68)">t</text>
  <text class="cls-11" transform="translate(457.09 120.8) rotate(-11.66)">i</text>
  <text class="cls-11" transform="matrix(0.99, -0.17, 0.17, 0.99, 465.35, 118.99)">o</text>
  <text class="cls-11" transform="translate(484.85 115.6) rotate(-7.08)">n</text>
  <text class="cls-11" transform="translate(506.18 113.06) rotate(-5.13)"> </text>
  <text class="cls-11" transform="translate(514.32 112.15) rotate(-2.9)">H</text>
  <text class="cls-11" transform="translate(540.01 110.91) rotate(0.18)">u</text>
  <text class="cls-11" transform="translate(561.3 110.96) rotate(2.96)">b</text>
  <text class="cls-11" transform="matrix(1, 0.09, -0.09, 1, 582.77, 112.18)"> </text>
  <text class="cls-11" transform="matrix(0.99, 0.12, -0.12, 0.99, 590.95, 112.77)">&amp;</text>
  <text class="cls-11" transform="matrix(0.99, 0.17, -0.17, 0.99, 612.06, 115.32)"> </text>
  <text class="cls-11" transform="translate(620.16 116.49) rotate(10.66)">P</text>
  <text class="cls-11" transform="matrix(0.97, 0.23, -0.23, 0.97, 642.01, 120.63)">a</text>
  <text class="cls-11" transform="translate(660.2 124.98) rotate(15.3)">r</text>
  <text class="cls-11" transform="matrix(0.96, 0.3, -0.3, 0.96, 672.01, 128.15)">c</text>
  <text class="cls-11" transform="translate(688.74 133.31) rotate(19.62)">e</text>
  <text class="cls-11" transform="translate(706.75 139.8) rotate(21.7)">r</text>
  <text class="cls-11" transform="translate(718.3 144.41) rotate(23.06)">i</text>
  <text class="cls-11" transform="matrix(0.91, 0.42, -0.42, 0.91, 726.1, 147.64)">a</text>
  <text class="cls-11" transform="translate(743.04 155.52) rotate(27.09)">s</text>
  <text class="cls-12" transform="translate(397.31 211.66) rotate(-22.61)">C</text>
  <text class="cls-12" transform="translate(417.33 203.32) rotate(-19.36)">u</text>
  <text class="cls-12" transform="matrix(0.96, -0.29, 0.29, 0.96, 437.06, 196.51)">l</text>
  <text class="cls-12" transform="matrix(0.96, -0.27, 0.27, 0.96, 445.02, 194.03)">t</text>
  <text class="cls-12" transform="translate(457.03 190.6) rotate(-12.89)">u</text>
  <text class="cls-12" transform="matrix(0.98, -0.18, 0.18, 0.98, 477.38, 186.03)">r</text>
  <text class="cls-12" transform="translate(489.24 183.8) rotate(-7.97)">a</text>
  <text class="cls-12" transform="translate(507.37 181.35) rotate(-5.93)"> </text>
  <text class="cls-12" transform="matrix(1, -0.06, 0.06, 1, 515.31, 180.38)">C</text>
  <text class="cls-12" transform="matrix(1, -0.01, 0.01, 1, 536.79, 179.05)">o</text>
  <text class="cls-12" transform="translate(556.26 179) rotate(1.69)">l</text>
  <text class="cls-12" transform="translate(564.48 179.14) rotate(3.73)">a</text>
  <text class="cls-12" transform="translate(582.66 180.29) rotate(6.72)">b</text>
  <text class="cls-12" transform="translate(603.48 182.75) rotate(9.78)">o</text>
  <text class="cls-12" transform="matrix(0.98, 0.21, -0.21, 0.98, 622.63, 186.12)">r</text>
  <text class="cls-12" transform="translate(634.44 188.61) rotate(14.51)">a</text>
  <text class="cls-12" transform="translate(652.11 193.23) rotate(16.88)">t</text>
  <text class="cls-12" transform="translate(664.14 196.91) rotate(18.5)">i</text>
  <text class="cls-12" transform="translate(671.98 199.46) rotate(20.44)">v</text>
  <text class="cls-12" transform="matrix(0.92, 0.39, -0.39, 0.92, 687.2, 205.09)">a</text>
  <text class="cls-11" transform="matrix(0.74, -0.67, 0.67, 0.74, 431.24, 436.01)">C</text>
  <text class="cls-11" transform="translate(447.41 421.72) rotate(-37.14)">i</text>
  <text class="cls-11" transform="translate(453.31 416.99) rotate(-32.89)">c</text>
  <text class="cls-11" transform="matrix(0.88, -0.48, 0.48, 0.88, 467.55, 407.94)">l</text>
  <text class="cls-11" transform="translate(474.11 404.04) rotate(-24.03)">o</text>
  <text class="cls-11" transform="translate(492.12 396.26) rotate(-19.21)"> </text>
  <text class="cls-11" transform="translate(499.49 393.35) rotate(-14.11)">d</text>
  <text class="cls-11" transform="translate(519.43 388.34) rotate(-7.31)">e</text>
  <text class="cls-11" transform="translate(538.2 386.14) rotate(-2.59)"> </text>
  <text class="cls-11" transform="matrix(1, 0.01, -0.01, 1, 546.29, 385.75)">I</text>
  <text class="cls-11" transform="translate(554.59 385.5) rotate(5.43)">n</text>
  <text class="cls-11" transform="matrix(0.98, 0.21, -0.21, 0.98, 574.98, 387.42)">o</text>
  <text class="cls-11" transform="matrix(0.95, 0.31, -0.31, 0.95, 593.32, 391.38)">v</text>
  <text class="cls-11" transform="translate(609.11 396.49) rotate(24.33)">a</text>
  <text class="cls-11" transform="matrix(0.86, 0.51, -0.51, 0.86, 625.3, 403.78)">ç</text>
  <text class="cls-11" transform="translate(640.14 412.4) rotate(36.57)">ã</text>
  <text class="cls-11" transform="translate(654.46 422.91) rotate(42.97)">o</text>
  <g>
    <path class="cls-13" d="M577.9,605.68a4.18,4.18,0,0,0,4.16-4.15V590.87a4.18,4.18,0,0,0-4.16-4.15H567.35a4.16,4.16,0,0,0-2.93,1.22,4.11,4.11,0,0,0-1.23,2.93h-7a11.16,11.16,0,0,1,11.19-11.2H577.9a11.18,11.18,0,0,1,11.21,11.2v10.66a11.2,11.2,0,0,1-11.21,11.21Z"/>
    <path class="cls-14" d="M589.11,619.47c-5-.17-7.52-2.54-10-4.87-1.43-1.38-2.84-2.73-5.12-2.73a3.54,3.54,0,0,1,0-7.08c5.09,0,7.54,2.34,10,4.72,1.39,1.32,2.79,2.67,5.06,2.87Z"/>
    <path class="cls-13" d="M537.45,579.66H552a11.21,11.21,0,0,1,7.93,19.14,11.41,11.41,0,0,1-2.42,1.83c1,.77,1.94,1.57,2.87,2.4a60.25,60.25,0,0,1,8.44,9.38h-9a48.64,48.64,0,0,0-4.1-4.14,61.08,61.08,0,0,0-9.27-6.67h0a3.52,3.52,0,0,1,1.87-6.53c.56,0,1.16,0,1.76,0s1.1,0,1.68,0H552a4.15,4.15,0,0,0,0-8.3H537.45Z"/>
    <path class="cls-13" d="M534.21,586.72H523.76a2.42,2.42,0,0,0-.07,4.84h10.52Zm3.52,25.69h-15.5a10.42,10.42,0,0,1-7.37-17.8,9.24,9.24,0,0,1,.73-.66,9.35,9.35,0,0,1-1.31-4.81,9.47,9.47,0,0,1,9.48-9.48H541.3v7.06h0v25.69Zm-14.1-13.79h-1.4a3.37,3.37,0,0,0,0,6.73h12v-6.73H523.63Z"/>
  </g>
  <text class="cls-3" transform="translate(433.86 625.8) rotate(51.7)">G</text>
  <text class="cls-3" transform="translate(450.65 646.42) rotate(41.93)">e</text>
  <text class="cls-3" transform="translate(465.99 659.84) rotate(34.84)">r</text>
  <text class="cls-3" transform="translate(477.54 668.02) rotate(27.68)">a</text>
  <text class="cls-3" transform="translate(495.63 677.34) rotate(19.37)">ç</text>
  <text class="cls-3" transform="translate(514.29 683.8) rotate(11)">ã</text>
  <text class="cls-3" transform="translate(534.37 687.63) rotate(2.33)">o</text>
  <text class="cls-3" transform="translate(556 688.09) rotate(-4.19)"> </text>
  <text class="cls-3" transform="matrix(0.98, -0.19, 0.19, 0.98, 566.05, 687.65)">d</text>
  <text class="cls-3" transform="translate(589.01 682.92) rotate(-20.31)">e</text>
  <text class="cls-3" transform="translate(608.45 675.31) rotate(-26.75)"> </text>
  <text class="cls-3" transform="translate(617.63 671.04) rotate(-33.87)">V</text>
  <text class="cls-3" transform="translate(636.69 658.01) rotate(-42.7)">a</text>
  <text class="cls-3" transform="matrix(0.66, -0.75, 0.75, 0.66, 650.72, 644.68)">l</text>
  <text class="cls-3" transform="translate(657.28 637.66) rotate(-54.84)">o</text>
  <text class="cls-3" transform="translate(669.3 620.06) rotate(-62.22)">r</text>
  <text class="cls-11" transform="translate(323.37 878.59) rotate(32.96)">C</text>
  <text class="cls-11" transform="translate(342.32 890.87) rotate(29.8)">u</text>
  <text class="cls-11" transform="translate(360.69 901.26) rotate(27.68)">l</text>
  <text class="cls-11" transform="translate(368.06 905.16) rotate(26.16)">t</text>
  <text class="cls-11" transform="translate(379.03 910.66) rotate(23.77)">u</text>
  <text class="cls-11" transform="translate(398.44 919.12) rotate(21.35)">r</text>
  <text class="cls-11" transform="translate(410.49 923.89) rotate(19.04)">a</text>
  <text class="cls-11" transform="matrix(0.96, 0.29, -0.29, 0.96, 428.82, 930.11)"> </text>
  <text class="cls-11" transform="translate(437.33 932.86) rotate(14.69)">A</text>
  <text class="cls-11" transform="matrix(0.98, 0.2, -0.2, 0.98, 460.05, 938.78)">n</text>
  <text class="cls-11" transform="translate(481.2 943.02) rotate(8.54)">a</text>
  <text class="cls-11" transform="translate(499.46 945.68) rotate(6.63)">l</text>
  <text class="cls-11" transform="translate(507.4 946.61) rotate(5.49)">í</text>
  <text class="cls-11" transform="translate(515.72 947.44) rotate(3.99)">t</text>
  <text class="cls-11" transform="translate(528.23 948.29) rotate(2.51)">i</text>
  <text class="cls-11" transform="matrix(1, 0.01, -0.01, 1, 536.65, 948.74)">c</text>
  <text class="cls-11" transform="translate(554.99 948.95) rotate(-2.05)">a</text>
  <text class="cls-11" transform="translate(574.34 948.15) rotate(-4.07)"> </text>
  <text class="cls-11" transform="translate(583.02 947.55) rotate(-5.46)">(</text>
  <text class="cls-11" transform="matrix(0.99, -0.14, 0.14, 0.99, 592.98, 946.79)">D</text>
  <text class="cls-11" transform="translate(619.48 942.93) rotate(-11.34)">a</text>
  <text class="cls-11" transform="translate(637.46 939.27) rotate(-13.55)">t</text>
  <text class="cls-11" transform="translate(650.11 936.29) rotate(-15.85)">a</text>
  <text class="cls-11" transform="translate(668.72 930.9) rotate(-17.89)"> </text>
  <text class="cls-11" transform="matrix(0.94, -0.35, 0.35, 0.94, 677.33, 928.32)">D</text>
  <text class="cls-11" transform="matrix(0.92, -0.4, 0.4, 0.92, 702.34, 918.78)">r</text>
  <text class="cls-11" transform="translate(713.59 913.89) rotate(-24.85)">i</text>
  <text class="cls-11" transform="matrix(0.89, -0.45, 0.45, 0.89, 721.52, 910.3)">v</text>
  <text class="cls-11" transform="translate(736.93 902.56) rotate(-29.38)">e</text>
  <text class="cls-11" transform="matrix(0.84, -0.53, 0.53, 0.84, 753.82, 893.08)">n</text>
  <text class="cls-11" transform="matrix(0.82, -0.57, 0.57, 0.82, 771.17, 882)">)</text>
</svg>
