<svg xmlns="http://www.w3.org/2000/svg" width="32" height="32" viewBox="0 0 32 32">
  <g id="Grupo_3" data-name="Grupo 3" transform="translate(-606 -3939)">
    <path id="Fill_116" data-name="Fill 116" d="M0,4.5l4.323-2.24L0,0Z" transform="translate(620.347 3952.579)" fill="#005fa3"/>
    <path id="Fill_117" data-name="Fill 117" d="M32,32H0V0H32V32ZM16,10.373c-.034,0-3.384,0-5.6.162l-.1.011a2.2,2.2,0,0,0-1.5.666A3.483,3.483,0,0,0,8.16,12.8,24.44,24.44,0,0,0,8,15.39V16.6a24.421,24.421,0,0,0,.16,2.59A3.479,3.479,0,0,0,8.8,20.782a2.36,2.36,0,0,0,1.546.654c.085.01.157.019.218.03,1.264.121,5.4.16,5.441.16s3.382-.007,5.6-.167l.1-.01a2.2,2.2,0,0,0,1.5-.666,3.475,3.475,0,0,0,.636-1.588A24.47,24.47,0,0,0,24,16.6V15.39a24.391,24.391,0,0,0-.16-2.589,3.475,3.475,0,0,0-.636-1.589,2.2,2.2,0,0,0-1.5-.666l-.1-.01c-2.214-.16-5.564-.162-5.6-.162Z" transform="translate(606 3939)" fill="#005fa3"/>
  </g>
</svg>
